<ttFont>
    <TTGlyph name=".notdef" xMin="193" yMin="0" xMax="1034" yMax="1462">
      <contour>
        <pt x="193" y="1462" on="1"/>
        <pt x="1034" y="1462" on="1"/>
        <pt x="1034" y="0" on="1"/>
        <pt x="193" y="0" on="1"/>
      </contour>
      <contour>
        <pt x="297" y="104" on="1"/>
        <pt x="930" y="104" on="1"/>
        <pt x="930" y="1358" on="1"/>
        <pt x="297" y="1358" on="1"/>
      </contour>
    </TTGlyph>
    <TTGlyph name="aadeva" xMin="40" yMin="0" xMax="2363" yMax="1295">
      <contour>
        <pt x="325" y="1208" on="1"/>
        <pt x="495" y="1295" on="0"/>
        <pt x="682" y="1295" on="1"/>
        <pt x="849" y="1295" on="0"/>
        <pt x="1042" y="1119" on="0"/>
        <pt x="1042" y="976" on="1"/>
        <pt x="1042" y="819" on="0"/>
        <pt x="919" y="723" on="1"/>
        <pt x="958" y="708" on="0"/>
        <pt x="1028" y="708" on="1"/>
        <pt x="1101" y="708" on="0"/>
        <pt x="1228" y="768" on="0"/>
        <pt x="1292" y="834" on="1"/>
        <pt x="1292" y="1048" on="1"/>
        <pt x="1162" y="1048" on="1"/>
        <pt x="1162" y="1274" on="1"/>
        <pt x="2363" y="1274" on="1"/>
        <pt x="2363" y="1048" on="1"/>
        <pt x="2170" y="1048" on="1"/>
        <pt x="2170" y="0" on="1"/>
        <pt x="1895" y="0" on="1"/>
        <pt x="1895" y="1048" on="1"/>
        <pt x="1567" y="1048" on="1"/>
        <pt x="1567" y="0" on="1"/>
        <pt x="1292" y="0" on="1"/>
        <pt x="1292" y="571" on="1"/>
        <pt x="1201" y="518" on="0"/>
        <pt x="1057" y="509" on="1"/>
        <pt x="1067" y="467" on="0"/>
        <pt x="1067" y="433" on="1"/>
        <pt x="1067" y="284" on="0"/>
        <pt x="874" y="123" on="0"/>
        <pt x="696" y="123" on="1"/>
        <pt x="563" y="123" on="0"/>
        <pt x="348" y="221" on="0"/>
        <pt x="140" y="476" on="0"/>
        <pt x="40" y="713" on="1"/>
        <pt x="276" y="803" on="1"/>
        <pt x="363" y="577" on="0"/>
        <pt x="558" y="354" on="0"/>
        <pt x="675" y="354" on="1"/>
        <pt x="795" y="354" on="0"/>
        <pt x="795" y="472" on="1"/>
        <pt x="795" y="569" on="0"/>
        <pt x="729" y="640" on="1"/>
        <pt x="660" y="625" on="0"/>
        <pt x="575" y="623" on="1"/>
        <pt x="564" y="839" on="1"/>
        <pt x="671" y="845" on="0"/>
        <pt x="771" y="903" on="0"/>
        <pt x="771" y="970" on="1"/>
        <pt x="771" y="1070" on="0"/>
        <pt x="637" y="1070" on="1"/>
        <pt x="533" y="1070" on="0"/>
        <pt x="401" y="1003" on="1"/>
      </contour>
    </TTGlyph>
    <TTGlyph name="aanuktadeva" xMin="40" yMin="-308" xMax="2363" yMax="1295">
      <component glyphName="aadeva" x="0" y="0" flags="0x204"/>
      <component glyphName="nuktadeva" x="1201" y="120" flags="0x4"/>
    </TTGlyph>
    <TTGlyph name="aavowelsigndeva" xMin="0" yMin="0" xMax="632" yMax="1274">
      <contour>
        <pt x="632" y="1048" on="1"/>
        <pt x="439" y="1048" on="1"/>
        <pt x="439" y="0" on="1"/>
        <pt x="164" y="0" on="1"/>
        <pt x="164" y="1048" on="1"/>
        <pt x="0" y="1048" on="1"/>
        <pt x="0" y="1274" on="1"/>
        <pt x="632" y="1274" on="1"/>
      </contour>
    </TTGlyph>
    <TTGlyph name="abbreviationsigndeva" xMin="132" yMin="542" xMax="800" yMax="1274">
      <contour>
        <pt x="467" y="542" on="1"/>
        <pt x="322" y="542" on="0"/>
        <pt x="132" y="717" on="0"/>
        <pt x="132" y="858" on="1"/>
        <pt x="132" y="995" on="0"/>
        <pt x="319" y="1172" on="0"/>
        <pt x="467" y="1172" on="1"/>
        <pt x="611" y="1172" on="0"/>
        <pt x="800" y="997" on="0"/>
        <pt x="800" y="858" on="1"/>
        <pt x="800" y="720" on="0"/>
        <pt x="611" y="542" on="0"/>
      </contour>
      <contour>
        <pt x="466" y="988" on="1"/>
        <pt x="405" y="988" on="0"/>
        <pt x="329" y="914" on="0"/>
        <pt x="329" y="858" on="1"/>
        <pt x="329" y="800" on="0"/>
        <pt x="407" y="726" on="0"/>
        <pt x="466" y="726" on="1"/>
        <pt x="526" y="726" on="0"/>
        <pt x="603" y="801" on="0"/>
        <pt x="603" y="858" on="1"/>
        <pt x="603" y="914" on="0"/>
        <pt x="526" y="988" on="0"/>
      </contour>
      <contour>
        <pt x="467" y="1274" on="1"/>
      </contour>
    </TTGlyph>
    <TTGlyph name="acandraanusvaradeva" xMin="40" yMin="0" xMax="1779" yMax="1836">
      <component glyphName="adeva" x="0" y="0" flags="0x204"/>
      <component glyphName="ecandravowelsignanusvaradeva" x="1691" y="0" flags="0x4"/>
    </TTGlyph>
    <TTGlyph name="acandradeva" xMin="40" yMin="0" xMax="1849" yMax="1836">
      <component glyphName="adeva" x="0" y="0" flags="0x204"/>
      <component glyphName="ecandravowelsigndeva" x="1710" y="0" flags="0x4"/>
    </TTGlyph>
    <TTGlyph name="acandranuktaanusvaradeva" xMin="40" yMin="-308" xMax="1779" yMax="1836">
      <component glyphName="adeva" x="0" y="0" flags="0x204"/>
      <component glyphName="ecandravowelsignanusvaradeva" x="1691" y="0" flags="0x4"/>
      <component glyphName="nuktadeva" x="1201" y="120" flags="0x4"/>
    </TTGlyph>
    <TTGlyph name="acandranuktadeva" xMin="40" yMin="-308" xMax="1849" yMax="1836">
      <component glyphName="adeva" x="0" y="0" flags="0x204"/>
      <component glyphName="ecandravowelsigndeva" x="1710" y="0" flags="0x4"/>
      <component glyphName="nuktadeva" x="1201" y="120" flags="0x4"/>
    </TTGlyph>
    <TTGlyph name="adeva" xMin="40" yMin="0" xMax="1760" yMax="1295">
      <contour>
        <pt x="325" y="1208" on="1"/>
        <pt x="495" y="1295" on="0"/>
        <pt x="682" y="1295" on="1"/>
        <pt x="849" y="1295" on="0"/>
        <pt x="1042" y="1119" on="0"/>
        <pt x="1042" y="976" on="1"/>
        <pt x="1042" y="819" on="0"/>
        <pt x="919" y="723" on="1"/>
        <pt x="958" y="708" on="0"/>
        <pt x="1028" y="708" on="1"/>
        <pt x="1101" y="708" on="0"/>
        <pt x="1228" y="768" on="0"/>
        <pt x="1292" y="834" on="1"/>
        <pt x="1292" y="1048" on="1"/>
        <pt x="1162" y="1048" on="1"/>
        <pt x="1162" y="1274" on="1"/>
        <pt x="1760" y="1274" on="1"/>
        <pt x="1760" y="1048" on="1"/>
        <pt x="1567" y="1048" on="1"/>
        <pt x="1567" y="0" on="1"/>
        <pt x="1292" y="0" on="1"/>
        <pt x="1292" y="571" on="1"/>
        <pt x="1201" y="518" on="0"/>
        <pt x="1057" y="509" on="1"/>
        <pt x="1067" y="467" on="0"/>
        <pt x="1067" y="433" on="1"/>
        <pt x="1067" y="284" on="0"/>
        <pt x="874" y="123" on="0"/>
        <pt x="696" y="123" on="1"/>
        <pt x="563" y="123" on="0"/>
        <pt x="348" y="221" on="0"/>
        <pt x="140" y="476" on="0"/>
        <pt x="40" y="713" on="1"/>
        <pt x="276" y="803" on="1"/>
        <pt x="363" y="577" on="0"/>
        <pt x="558" y="354" on="0"/>
        <pt x="675" y="354" on="1"/>
        <pt x="795" y="354" on="0"/>
        <pt x="795" y="472" on="1"/>
        <pt x="795" y="569" on="0"/>
        <pt x="729" y="640" on="1"/>
        <pt x="660" y="625" on="0"/>
        <pt x="575" y="623" on="1"/>
        <pt x="564" y="839" on="1"/>
        <pt x="671" y="845" on="0"/>
        <pt x="771" y="903" on="0"/>
        <pt x="771" y="970" on="1"/>
        <pt x="771" y="1070" on="0"/>
        <pt x="637" y="1070" on="1"/>
        <pt x="533" y="1070" on="0"/>
        <pt x="401" y="1003" on="1"/>
      </contour>
    </TTGlyph>
    <TTGlyph name="aianusvaradeva" xMin="0" yMin="-405" xMax="1305" yMax="1836">
      <component glyphName="edeva" x="0" y="0" flags="0x204"/>
      <component glyphName="evowelsignanusvaradeva" x="1270" y="0" flags="0x4"/>
    </TTGlyph>
    <TTGlyph name="aideva" xMin="0" yMin="-405" xMax="1274" yMax="1836">
      <component glyphName="edeva" x="0" y="0" flags="0x204"/>
      <component glyphName="evowelsigndeva" x="1270" y="0" flags="0x4"/>
    </TTGlyph>
    <TTGlyph name="ainuktaanusvaradeva" xMin="0" yMin="-405" xMax="1305" yMax="1836">
      <component glyphName="edeva" x="0" y="0" flags="0x204"/>
      <component glyphName="evowelsignanusvaradeva" x="1270" y="0" flags="0x4"/>
      <component glyphName="nuktadeva" x="976" y="102" flags="0x4"/>
    </TTGlyph>
    <TTGlyph name="ainuktadeva" xMin="0" yMin="-405" xMax="1274" yMax="1836">
      <component glyphName="edeva" x="0" y="0" flags="0x204"/>
      <component glyphName="evowelsigndeva" x="1270" y="0" flags="0x4"/>
      <component glyphName="nuktadeva" x="976" y="102" flags="0x4"/>
    </TTGlyph>
    <TTGlyph name="aivowelsignanusvaradeva" xMin="-933" yMin="1259" xMax="35" yMax="1836">
      <contour>
        <pt x="-438" y="1259" on="1"/>
        <pt x="-492" y="1317" on="0"/>
        <pt x="-569" y="1373" on="0"/>
        <pt x="-638" y="1395" on="0"/>
        <pt x="-694" y="1395" on="1"/>
        <pt x="-770" y="1395" on="0"/>
        <pt x="-864" y="1347" on="1"/>
        <pt x="-933" y="1525" on="1"/>
        <pt x="-819" y="1575" on="0"/>
        <pt x="-723" y="1575" on="1"/>
        <pt x="-640" y="1575" on="0"/>
        <pt x="-515" y="1513" on="0"/>
        <pt x="-453" y="1444" on="1"/>
        <pt x="-442" y="1446" on="1"/>
        <pt x="-492" y="1554" on="0"/>
        <pt x="-602" y="1656" on="0"/>
        <pt x="-698" y="1656" on="1"/>
        <pt x="-768" y="1656" on="0"/>
        <pt x="-833" y="1629" on="1"/>
        <pt x="-895" y="1804" on="1"/>
        <pt x="-790" y="1836" on="0"/>
        <pt x="-700" y="1836" on="1"/>
        <pt x="-594" y="1836" on="0"/>
        <pt x="-468" y="1796" on="0"/>
        <pt x="-350" y="1687" on="0"/>
        <pt x="-236" y="1449" on="0"/>
        <pt x="-182" y="1259" on="1"/>
      </contour>
      <contour>
        <pt x="-115" y="1836" on="1"/>
        <pt x="-52" y="1836" on="0"/>
        <pt x="35" y="1749" on="0"/>
        <pt x="35" y="1683" on="1"/>
        <pt x="35" y="1617" on="0"/>
        <pt x="-52" y="1530" on="0"/>
        <pt x="-115" y="1530" on="1"/>
        <pt x="-178" y="1530" on="0"/>
        <pt x="-265" y="1617" on="0"/>
        <pt x="-265" y="1683" on="1"/>
        <pt x="-265" y="1749" on="0"/>
        <pt x="-178" y="1836" on="0"/>
      </contour>
      <contour>
        <pt x="-439" y="1274" on="1"/>
      </contour>
    </TTGlyph>
    <TTGlyph name="aivowelsigncandrabindudeva" xMin="-933" yMin="1259" xMax="267" yMax="1836">
      <component glyphName="aivowelsigndeva" x="0" y="0" flags="0x204"/>
      <component glyphName="candrabindusmalldeva" x="148" y="0" flags="0x4"/>
    </TTGlyph>
    <TTGlyph name="aivowelsigndeva" xMin="-933" yMin="1259" xMax="-182" yMax="1836">
      <contour>
        <pt x="-438" y="1259" on="1"/>
        <pt x="-492" y="1317" on="0"/>
        <pt x="-569" y="1373" on="0"/>
        <pt x="-638" y="1395" on="0"/>
        <pt x="-694" y="1395" on="1"/>
        <pt x="-770" y="1395" on="0"/>
        <pt x="-864" y="1347" on="1"/>
        <pt x="-933" y="1525" on="1"/>
        <pt x="-819" y="1575" on="0"/>
        <pt x="-723" y="1575" on="1"/>
        <pt x="-640" y="1575" on="0"/>
        <pt x="-515" y="1513" on="0"/>
        <pt x="-453" y="1444" on="1"/>
        <pt x="-442" y="1446" on="1"/>
        <pt x="-492" y="1554" on="0"/>
        <pt x="-602" y="1656" on="0"/>
        <pt x="-698" y="1656" on="1"/>
        <pt x="-768" y="1656" on="0"/>
        <pt x="-833" y="1629" on="1"/>
        <pt x="-895" y="1804" on="1"/>
        <pt x="-790" y="1836" on="0"/>
        <pt x="-700" y="1836" on="1"/>
        <pt x="-594" y="1836" on="0"/>
        <pt x="-468" y="1796" on="0"/>
        <pt x="-350" y="1687" on="0"/>
        <pt x="-236" y="1449" on="0"/>
        <pt x="-182" y="1259" on="1"/>
      </contour>
      <contour>
        <pt x="-439" y="1274" on="1"/>
      </contour>
    </TTGlyph>
    <TTGlyph name="aivowelsignrephanusvaradeva" xMin="-933" yMin="1259" xMax="80" yMax="1836">
      <contour>
        <pt x="-438" y="1259" on="1"/>
        <pt x="-492" y="1317" on="0"/>
        <pt x="-569" y="1373" on="0"/>
        <pt x="-638" y="1395" on="0"/>
        <pt x="-694" y="1395" on="1"/>
        <pt x="-770" y="1395" on="0"/>
        <pt x="-864" y="1347" on="1"/>
        <pt x="-933" y="1525" on="1"/>
        <pt x="-819" y="1575" on="0"/>
        <pt x="-723" y="1575" on="1"/>
        <pt x="-640" y="1575" on="0"/>
        <pt x="-515" y="1513" on="0"/>
        <pt x="-453" y="1444" on="1"/>
        <pt x="-442" y="1446" on="1"/>
        <pt x="-492" y="1554" on="0"/>
        <pt x="-602" y="1656" on="0"/>
        <pt x="-698" y="1656" on="1"/>
        <pt x="-768" y="1656" on="0"/>
        <pt x="-833" y="1629" on="1"/>
        <pt x="-895" y="1804" on="1"/>
        <pt x="-790" y="1836" on="0"/>
        <pt x="-700" y="1836" on="1"/>
        <pt x="-617" y="1836" on="0"/>
        <pt x="-529" y="1819" on="0"/>
        <pt x="-449" y="1776" on="0"/>
        <pt x="-413" y="1737" on="1"/>
        <pt x="-318" y="1836" on="0"/>
        <pt x="-159" y="1836" on="1"/>
        <pt x="-32" y="1836" on="0"/>
        <pt x="80" y="1805" on="1"/>
        <pt x="30" y="1609" on="1"/>
        <pt x="-30" y="1630" on="0"/>
        <pt x="-101" y="1630" on="1"/>
        <pt x="-180" y="1630" on="0"/>
        <pt x="-252" y="1552" on="0"/>
        <pt x="-253" y="1476" on="1"/>
        <pt x="-214" y="1375" on="0"/>
        <pt x="-182" y="1259" on="1"/>
      </contour>
      <contour>
        <pt x="-54" y="1549" on="1"/>
        <pt x="-10" y="1549" on="0"/>
        <pt x="53" y="1486" on="0"/>
        <pt x="53" y="1442" on="1"/>
        <pt x="53" y="1398" on="0"/>
        <pt x="-10" y="1335" on="0"/>
        <pt x="-54" y="1335" on="1"/>
        <pt x="-98" y="1335" on="0"/>
        <pt x="-161" y="1398" on="0"/>
        <pt x="-161" y="1442" on="1"/>
        <pt x="-161" y="1486" on="0"/>
        <pt x="-98" y="1549" on="0"/>
      </contour>
      <contour>
        <pt x="-439" y="1274" on="1"/>
      </contour>
    </TTGlyph>
    <TTGlyph name="aivowelsignrephdeva" xMin="-933" yMin="1259" xMax="80" yMax="1836">
      <contour>
        <pt x="-438" y="1259" on="1"/>
        <pt x="-492" y="1317" on="0"/>
        <pt x="-569" y="1373" on="0"/>
        <pt x="-638" y="1395" on="0"/>
        <pt x="-694" y="1395" on="1"/>
        <pt x="-770" y="1395" on="0"/>
        <pt x="-864" y="1347" on="1"/>
        <pt x="-933" y="1525" on="1"/>
        <pt x="-819" y="1575" on="0"/>
        <pt x="-723" y="1575" on="1"/>
        <pt x="-640" y="1575" on="0"/>
        <pt x="-515" y="1513" on="0"/>
        <pt x="-453" y="1444" on="1"/>
        <pt x="-442" y="1446" on="1"/>
        <pt x="-492" y="1554" on="0"/>
        <pt x="-602" y="1656" on="0"/>
        <pt x="-698" y="1656" on="1"/>
        <pt x="-768" y="1656" on="0"/>
        <pt x="-833" y="1629" on="1"/>
        <pt x="-895" y="1804" on="1"/>
        <pt x="-790" y="1836" on="0"/>
        <pt x="-700" y="1836" on="1"/>
        <pt x="-617" y="1836" on="0"/>
        <pt x="-529" y="1819" on="0"/>
        <pt x="-449" y="1776" on="0"/>
        <pt x="-413" y="1737" on="1"/>
        <pt x="-318" y="1836" on="0"/>
        <pt x="-159" y="1836" on="1"/>
        <pt x="-32" y="1836" on="0"/>
        <pt x="80" y="1805" on="1"/>
        <pt x="30" y="1609" on="1"/>
        <pt x="-30" y="1630" on="0"/>
        <pt x="-101" y="1630" on="1"/>
        <pt x="-180" y="1630" on="0"/>
        <pt x="-252" y="1552" on="0"/>
        <pt x="-253" y="1476" on="1"/>
        <pt x="-214" y="1375" on="0"/>
        <pt x="-182" y="1259" on="1"/>
      </contour>
      <contour>
        <pt x="-439" y="1274" on="1"/>
      </contour>
    </TTGlyph>
    <TTGlyph name="anudattadeva" xMin="-915" yMin="-323" xMax="-154" yMax="-137">
      <contour>
        <pt x="-915" y="-323" on="1"/>
        <pt x="-915" y="-137" on="1"/>
        <pt x="-154" y="-137" on="1"/>
        <pt x="-154" y="-323" on="1"/>
      </contour>
    </TTGlyph>
    <TTGlyph name="anuktadeva" xMin="40" yMin="-308" xMax="1760" yMax="1295">
      <component glyphName="adeva" x="0" y="0" flags="0x204"/>
      <component glyphName="nuktadeva" x="1201" y="120" flags="0x4"/>
    </TTGlyph>
    <TTGlyph name="anusvaradeva" xMin="-452" yMin="1274" xMax="-152" yMax="1736">
      <contour>
        <pt x="-302" y="1736" on="1"/>
        <pt x="-239" y="1736" on="0"/>
        <pt x="-152" y="1649" on="0"/>
        <pt x="-152" y="1583" on="1"/>
        <pt x="-152" y="1517" on="0"/>
        <pt x="-239" y="1430" on="0"/>
        <pt x="-302" y="1430" on="1"/>
        <pt x="-365" y="1430" on="0"/>
        <pt x="-452" y="1517" on="0"/>
        <pt x="-452" y="1583" on="1"/>
        <pt x="-452" y="1649" on="0"/>
        <pt x="-365" y="1736" on="0"/>
      </contour>
      <contour>
        <pt x="-439" y="1274" on="1"/>
      </contour>
    </TTGlyph>
    <TTGlyph name="asciicircum.deva" xMin="45" yMin="520" xMax="1122" yMax="1470">
      <contour>
        <pt x="45" y="520" on="1"/>
        <pt x="483" y="1470" on="1"/>
        <pt x="627" y="1470" on="1"/>
        <pt x="1122" y="520" on="1"/>
        <pt x="883" y="520" on="1"/>
        <pt x="561" y="1163" on="1"/>
        <pt x="492" y="1002" on="0"/>
        <pt x="349" y="676" on="0"/>
        <pt x="281" y="520" on="1"/>
      </contour>
    </TTGlyph>
    <TTGlyph name="asciitilde.deva" xMin="108" yMin="491" xMax="1060" yMax="833">
      <contour>
        <pt x="548" y="556" on="1"/>
        <pt x="511" y="572" on="0"/>
        <pt x="454" y="594" on="0"/>
        <pt x="407" y="607" on="0"/>
        <pt x="365" y="612" on="0"/>
        <pt x="342" y="612" on="1"/>
        <pt x="313" y="612" on="0"/>
        <pt x="251" y="593" on="0"/>
        <pt x="191" y="560" on="0"/>
        <pt x="134" y="516" on="0"/>
        <pt x="108" y="491" on="1"/>
        <pt x="108" y="722" on="1"/>
        <pt x="159" y="776" on="0"/>
        <pt x="286" y="831" on="0"/>
        <pt x="364" y="831" on="1"/>
        <pt x="394" y="831" on="0"/>
        <pt x="445" y="826" on="0"/>
        <pt x="502" y="812" on="0"/>
        <pt x="572" y="787" on="0"/>
        <pt x="620" y="767" on="1"/>
        <pt x="658" y="751" on="0"/>
        <pt x="715" y="730" on="0"/>
        <pt x="763" y="717" on="0"/>
        <pt x="805" y="712" on="0"/>
        <pt x="827" y="712" on="1"/>
        <pt x="856" y="712" on="0"/>
        <pt x="918" y="731" on="0"/>
        <pt x="978" y="763" on="0"/>
        <pt x="1035" y="808" on="0"/>
        <pt x="1060" y="833" on="1"/>
        <pt x="1060" y="602" on="1"/>
        <pt x="959" y="493" on="0"/>
        <pt x="804" y="493" on="1"/>
        <pt x="774" y="493" on="0"/>
        <pt x="723" y="498" on="0"/>
        <pt x="666" y="511" on="0"/>
        <pt x="596" y="536" on="0"/>
      </contour>
    </TTGlyph>
    <TTGlyph name="ashortanusvaradeva" xMin="40" yMin="0" xMax="1766" yMax="1836">
      <component glyphName="adeva" x="0" y="0" flags="0x204"/>
      <component glyphName="eshortvowelsignanusvaradeva" x="1731" y="0" flags="0x4"/>
    </TTGlyph>
    <TTGlyph name="ashortdeva" xMin="40" yMin="0" xMax="1760" yMax="1836">
      <component glyphName="adeva" x="0" y="0" flags="0x204"/>
      <component glyphName="eshortvowelsigndeva" x="1731" y="0" flags="0x4"/>
    </TTGlyph>
    <TTGlyph name="ashortnuktaanusvaradeva" xMin="40" yMin="-308" xMax="1766" yMax="1836">
      <component glyphName="adeva" x="0" y="0" flags="0x204"/>
      <component glyphName="eshortvowelsignanusvaradeva" x="1731" y="0" flags="0x4"/>
      <component glyphName="nuktadeva" x="1201" y="120" flags="0x4"/>
    </TTGlyph>
    <TTGlyph name="ashortnuktadeva" xMin="40" yMin="-308" xMax="1760" yMax="1836">
      <component glyphName="adeva" x="0" y="0" flags="0x204"/>
      <component glyphName="eshortvowelsigndeva" x="1731" y="0" flags="0x4"/>
      <component glyphName="nuktadeva" x="1201" y="120" flags="0x4"/>
    </TTGlyph>
    <TTGlyph name="asterisk.deva" xMin="136" yMin="567" xMax="1126" yMax="1836">
      <contour>
        <pt x="761" y="1525" on="1"/>
        <pt x="720" y="1157" on="1"/>
        <pt x="1093" y="1261" on="1"/>
        <pt x="1126" y="1009" on="1"/>
        <pt x="786" y="985" on="1"/>
        <pt x="1009" y="688" on="1"/>
        <pt x="782" y="567" on="1"/>
        <pt x="626" y="880" on="1"/>
        <pt x="489" y="569" on="1"/>
        <pt x="253" y="688" on="1"/>
        <pt x="474" y="985" on="1"/>
        <pt x="136" y="1011" on="1"/>
        <pt x="175" y="1261" on="1"/>
        <pt x="540" y="1157" on="1"/>
        <pt x="499" y="1525" on="1"/>
      </contour>
      <contour>
        <pt x="355" y="1836" on="1"/>
      </contour>
      <contour>
        <pt x="487" y="1274" on="1"/>
      </contour>
    </TTGlyph>
    <TTGlyph name="auanusvaradeva" xMin="40" yMin="0" xMax="2369" yMax="1836">
      <component glyphName="aadeva" x="0" y="0" flags="0x204"/>
      <component glyphName="aivowelsignanusvaradeva" x="2334" y="0" flags="0x4"/>
    </TTGlyph>
    <TTGlyph name="audeva" xMin="40" yMin="0" xMax="2363" yMax="1836">
      <component glyphName="aadeva" x="0" y="0" flags="0x204"/>
      <component glyphName="aivowelsigndeva" x="2334" y="0" flags="0x4"/>
    </TTGlyph>
    <TTGlyph name="aunuktaanusvaradeva" xMin="40" yMin="-308" xMax="2369" yMax="1836">
      <component glyphName="aadeva" x="0" y="0" flags="0x204"/>
      <component glyphName="aivowelsignanusvaradeva" x="2334" y="0" flags="0x4"/>
      <component glyphName="nuktadeva" x="1201" y="120" flags="0x4"/>
    </TTGlyph>
    <TTGlyph name="aunuktadeva" xMin="40" yMin="-308" xMax="2363" yMax="1836">
      <component glyphName="aadeva" x="0" y="0" flags="0x204"/>
      <component glyphName="aivowelsigndeva" x="2334" y="0" flags="0x4"/>
      <component glyphName="nuktadeva" x="1201" y="120" flags="0x4"/>
    </TTGlyph>
    <TTGlyph name="auvowelsignanusvaradeva" xMin="-330" yMin="0" xMax="638" yMax="1836">
      <component glyphName="aavowelsigndeva" x="0" y="0" flags="0x204"/>
      <component glyphName="aivowelsignanusvaradeva" x="603" y="0" flags="0x4"/>
    </TTGlyph>
    <TTGlyph name="auvowelsigncandrabindudeva" xMin="-330" yMin="0" xMax="870" yMax="1836">
      <component glyphName="aavowelsigndeva" x="0" y="0" flags="0x204"/>
      <component glyphName="aivowelsigndeva" x="603" y="0" flags="0x4"/>
      <component glyphName="candrabindusmalldeva" x="751" y="0" flags="0x4"/>
    </TTGlyph>
    <TTGlyph name="auvowelsigndeva" xMin="-330" yMin="0" xMax="632" yMax="1836">
      <component glyphName="aavowelsigndeva" x="0" y="0" flags="0x204"/>
      <component glyphName="aivowelsigndeva" x="603" y="0" flags="0x4"/>
    </TTGlyph>
    <TTGlyph name="auvowelsignrephanusvaradeva" xMin="-330" yMin="0" xMax="683" yMax="1836">
      <component glyphName="aavowelsigndeva" x="0" y="0" flags="0x204"/>
      <component glyphName="aivowelsignrephanusvaradeva" x="603" y="0" flags="0x4"/>
    </TTGlyph>
    <TTGlyph name="auvowelsignrephdeva" xMin="-330" yMin="0" xMax="683" yMax="1836">
      <component glyphName="aavowelsigndeva" x="0" y="0" flags="0x204"/>
      <component glyphName="aivowelsignrephdeva" x="603" y="0" flags="0x4"/>
    </TTGlyph>
    <TTGlyph name="avagrahadeva" xMin="43" yMin="65" xMax="1014" yMax="1274">
      <contour>
        <pt x="969" y="1048" on="1"/>
        <pt x="735" y="1048" on="1"/>
        <pt x="684" y="1048" on="0"/>
        <pt x="634" y="1044" on="0"/>
        <pt x="594" y="1027" on="0"/>
        <pt x="576" y="1001" on="0"/>
        <pt x="576" y="982" on="1"/>
        <pt x="576" y="947" on="0"/>
        <pt x="649" y="871" on="0"/>
        <pt x="765" y="780" on="1"/>
        <pt x="908" y="667" on="0"/>
        <pt x="1014" y="488" on="0"/>
        <pt x="1014" y="375" on="1"/>
        <pt x="1014" y="233" on="0"/>
        <pt x="804" y="65" on="0"/>
        <pt x="619" y="65" on="1"/>
        <pt x="431" y="65" on="0"/>
        <pt x="157" y="281" on="0"/>
        <pt x="43" y="493" on="1"/>
        <pt x="268" y="607" on="1"/>
        <pt x="368" y="432" on="0"/>
        <pt x="523" y="296" on="0"/>
        <pt x="620" y="296" on="1"/>
        <pt x="675" y="296" on="0"/>
        <pt x="737" y="347" on="0"/>
        <pt x="737" y="391" on="1"/>
        <pt x="737" y="422" on="0"/>
        <pt x="713" y="475" on="0"/>
        <pt x="640" y="551" on="0"/>
        <pt x="560" y="616" on="1"/>
        <pt x="414" y="735" on="0"/>
        <pt x="301" y="895" on="0"/>
        <pt x="301" y="987" on="1"/>
        <pt x="301" y="1083" on="0"/>
        <pt x="393" y="1211" on="0"/>
        <pt x="564" y="1274" on="0"/>
        <pt x="749" y="1274" on="1"/>
        <pt x="969" y="1274" on="1"/>
      </contour>
    </TTGlyph>
    <TTGlyph name="babardeva" xMin="0" yMin="-40" xMax="1299" yMax="1274">
      <contour>
        <pt x="1299" y="1274" on="1"/>
        <pt x="1299" y="1048" on="1"/>
        <pt x="1106" y="1048" on="1"/>
        <pt x="1106" y="-40" on="1"/>
        <pt x="168" y="-40" on="1"/>
        <pt x="168" y="146" on="1"/>
        <pt x="831" y="146" on="1"/>
        <pt x="831" y="307" on="1"/>
        <pt x="758" y="267" on="0"/>
        <pt x="605" y="231" on="0"/>
        <pt x="496" y="231" on="1"/>
        <pt x="309" y="231" on="0"/>
        <pt x="75" y="425" on="0"/>
        <pt x="75" y="591" on="1"/>
        <pt x="75" y="753" on="0"/>
        <pt x="318" y="953" on="0"/>
        <pt x="516" y="953" on="1"/>
        <pt x="685" y="953" on="0"/>
        <pt x="769" y="937" on="1"/>
        <pt x="748" y="728" on="1"/>
        <pt x="681" y="744" on="0"/>
        <pt x="580" y="744" on="1"/>
        <pt x="567" y="744" on="1"/>
        <pt x="560" y="744" on="0"/>
        <pt x="553" y="743" on="1"/>
        <pt x="744" y="505" on="1"/>
        <pt x="783" y="531" on="0"/>
        <pt x="831" y="578" on="1"/>
        <pt x="831" y="1048" on="1"/>
        <pt x="0" y="1048" on="1"/>
        <pt x="0" y="1274" on="1"/>
      </contour>
      <contour>
        <pt x="607" y="444" on="1"/>
        <pt x="399" y="704" on="1"/>
        <pt x="371" y="686" on="0"/>
        <pt x="343" y="629" on="0"/>
        <pt x="343" y="590" on="1"/>
        <pt x="343" y="513" on="0"/>
        <pt x="437" y="437" on="0"/>
        <pt x="531" y="437" on="1"/>
        <pt x="576" y="437" on="0"/>
      </contour>
    </TTGlyph>
    <TTGlyph name="backslash.deva" xMin="72" yMin="-548" xMax="894" yMax="1836">
      <contour>
        <pt x="334" y="1705" on="1"/>
        <pt x="894" y="-339" on="1"/>
        <pt x="632" y="-339" on="1"/>
        <pt x="72" y="1705" on="1"/>
      </contour>
      <contour>
        <pt x="553" y="1274" on="1"/>
      </contour>
      <contour>
        <pt x="548" y="1836" on="1"/>
      </contour>
      <contour>
        <pt x="579" y="-548" on="1"/>
      </contour>
    </TTGlyph>
    <TTGlyph name="badeva" xMin="0" yMin="0" xMax="1299" yMax="1274">
      <contour>
        <pt x="831" y="257" on="1"/>
        <pt x="758" y="217" on="0"/>
        <pt x="605" y="181" on="0"/>
        <pt x="496" y="181" on="1"/>
        <pt x="309" y="181" on="0"/>
        <pt x="75" y="380" on="0"/>
        <pt x="75" y="551" on="1"/>
        <pt x="75" y="718" on="0"/>
        <pt x="319" y="923" on="0"/>
        <pt x="516" y="923" on="1"/>
        <pt x="685" y="923" on="0"/>
        <pt x="769" y="907" on="1"/>
        <pt x="748" y="688" on="1"/>
        <pt x="681" y="704" on="0"/>
        <pt x="580" y="704" on="1"/>
        <pt x="567" y="704" on="1"/>
        <pt x="560" y="704" on="0"/>
        <pt x="553" y="703" on="1"/>
        <pt x="744" y="465" on="1"/>
        <pt x="783" y="491" on="0"/>
        <pt x="831" y="538" on="1"/>
        <pt x="831" y="1048" on="1"/>
        <pt x="0" y="1048" on="1"/>
        <pt x="0" y="1274" on="1"/>
        <pt x="1299" y="1274" on="1"/>
        <pt x="1299" y="1048" on="1"/>
        <pt x="1106" y="1048" on="1"/>
        <pt x="1106" y="0" on="1"/>
        <pt x="831" y="0" on="1"/>
      </contour>
      <contour>
        <pt x="607" y="404" on="1"/>
        <pt x="399" y="664" on="1"/>
        <pt x="371" y="646" on="0"/>
        <pt x="343" y="589" on="0"/>
        <pt x="343" y="550" on="1"/>
        <pt x="343" y="473" on="0"/>
        <pt x="437" y="397" on="0"/>
        <pt x="531" y="397" on="1"/>
        <pt x="576" y="397" on="0"/>
      </contour>
    </TTGlyph>
    <TTGlyph name="banuktadeva" xMin="0" yMin="-216" xMax="1299" yMax="1274">
      <component glyphName="badeva" x="0" y="0" flags="0x204"/>
      <component glyphName="nuktadeva" x="911" y="212" flags="0x4"/>
    </TTGlyph>
    <TTGlyph name="banuktaprehalfdeva" xMin="0" yMin="-216" xMax="933" yMax="1274">
      <component glyphName="baprehalfdeva" x="0" y="0" flags="0x204"/>
      <component glyphName="nuktadeva" x="911" y="212" flags="0x4"/>
    </TTGlyph>
    <TTGlyph name="banuktaradeva" xMin="0" yMin="-423" xMax="1330" yMax="1274">
      <component glyphName="baradeva" x="0" y="0" flags="0x204"/>
      <component glyphName="nuktadeva" x="1102" y="5" flags="0x4"/>
    </TTGlyph>
    <TTGlyph name="banuktaraprehalfdeva" xMin="0" yMin="-423" xMax="963" yMax="1274">
      <component glyphName="baraprehalfdeva" x="0" y="0" flags="0x204"/>
      <component glyphName="nuktadeva" x="1102" y="5" flags="0x4"/>
    </TTGlyph>
    <TTGlyph name="baprehalfdeva" xMin="0" yMin="181" xMax="933" yMax="1274">
      <contour>
        <pt x="933" y="325" on="1"/>
        <pt x="836" y="247" on="0"/>
        <pt x="630" y="181" on="0"/>
        <pt x="496" y="181" on="1"/>
        <pt x="309" y="181" on="0"/>
        <pt x="75" y="380" on="0"/>
        <pt x="75" y="551" on="1"/>
        <pt x="75" y="718" on="0"/>
        <pt x="319" y="923" on="0"/>
        <pt x="516" y="923" on="1"/>
        <pt x="685" y="923" on="0"/>
        <pt x="769" y="907" on="1"/>
        <pt x="748" y="688" on="1"/>
        <pt x="681" y="704" on="0"/>
        <pt x="580" y="704" on="1"/>
        <pt x="567" y="704" on="1"/>
        <pt x="560" y="704" on="0"/>
        <pt x="553" y="703" on="1"/>
        <pt x="744" y="465" on="1"/>
        <pt x="783" y="491" on="0"/>
        <pt x="831" y="538" on="1"/>
      </contour>
      <contour>
        <pt x="0" y="1048" on="1"/>
        <pt x="0" y="1274" on="1"/>
        <pt x="860" y="1274" on="1"/>
        <pt x="860" y="1048" on="1"/>
      </contour>
      <contour>
        <pt x="607" y="404" on="1"/>
        <pt x="399" y="664" on="1"/>
        <pt x="371" y="646" on="0"/>
        <pt x="343" y="589" on="0"/>
        <pt x="343" y="550" on="1"/>
        <pt x="343" y="473" on="0"/>
        <pt x="437" y="397" on="0"/>
        <pt x="531" y="397" on="1"/>
        <pt x="576" y="397" on="0"/>
      </contour>
    </TTGlyph>
    <TTGlyph name="bar.deva" xMin="348" yMin="-548" xMax="662" yMax="1836">
      <contour>
        <pt x="443" y="1703" on="1"/>
        <pt x="662" y="1703" on="1"/>
        <pt x="662" y="-339" on="1"/>
        <pt x="443" y="-339" on="1"/>
      </contour>
      <contour>
        <pt x="353" y="1274" on="1"/>
      </contour>
      <contour>
        <pt x="348" y="1836" on="1"/>
      </contour>
      <contour>
        <pt x="379" y="-548" on="1"/>
      </contour>
    </TTGlyph>
    <TTGlyph name="baradeva" xMin="0" yMin="-96" xMax="1330" yMax="1274">
      <contour>
        <pt x="862" y="299" on="1"/>
        <pt x="204" y="-96" on="1"/>
        <pt x="64" y="95" on="1"/>
        <pt x="328" y="231" on="1"/>
        <pt x="220" y="274" on="0"/>
        <pt x="106" y="443" on="0"/>
        <pt x="106" y="559" on="1"/>
        <pt x="106" y="723" on="0"/>
        <pt x="350" y="923" on="0"/>
        <pt x="547" y="923" on="1"/>
        <pt x="716" y="923" on="0"/>
        <pt x="800" y="907" on="1"/>
        <pt x="779" y="688" on="1"/>
        <pt x="712" y="704" on="0"/>
        <pt x="611" y="704" on="1"/>
        <pt x="598" y="704" on="1"/>
        <pt x="591" y="704" on="0"/>
        <pt x="584" y="703" on="1"/>
        <pt x="775" y="465" on="1"/>
        <pt x="814" y="491" on="0"/>
        <pt x="862" y="538" on="1"/>
        <pt x="862" y="1048" on="1"/>
        <pt x="0" y="1048" on="1"/>
        <pt x="0" y="1274" on="1"/>
        <pt x="1330" y="1274" on="1"/>
        <pt x="1330" y="1048" on="1"/>
        <pt x="1137" y="1048" on="1"/>
        <pt x="1137" y="0" on="1"/>
        <pt x="862" y="0" on="1"/>
      </contour>
      <contour>
        <pt x="638" y="404" on="1"/>
        <pt x="430" y="664" on="1"/>
        <pt x="402" y="646" on="0"/>
        <pt x="374" y="589" on="0"/>
        <pt x="374" y="550" on="1"/>
        <pt x="374" y="473" on="0"/>
        <pt x="468" y="397" on="0"/>
        <pt x="562" y="397" on="1"/>
        <pt x="607" y="397" on="0"/>
      </contour>
      <contour>
        <pt x="496" y="181" on="1"/>
      </contour>
    </TTGlyph>
    <TTGlyph name="baraprehalfdeva" xMin="0" yMin="-96" xMax="963" yMax="1274">
      <contour>
        <pt x="963" y="331" on="1"/>
        <pt x="204" y="-96" on="1"/>
        <pt x="64" y="95" on="1"/>
        <pt x="328" y="231" on="1"/>
        <pt x="220" y="274" on="0"/>
        <pt x="106" y="443" on="0"/>
        <pt x="106" y="559" on="1"/>
        <pt x="106" y="723" on="0"/>
        <pt x="350" y="923" on="0"/>
        <pt x="547" y="923" on="1"/>
        <pt x="716" y="923" on="0"/>
        <pt x="800" y="907" on="1"/>
        <pt x="779" y="688" on="1"/>
        <pt x="712" y="704" on="0"/>
        <pt x="611" y="704" on="1"/>
        <pt x="598" y="704" on="1"/>
        <pt x="591" y="704" on="0"/>
        <pt x="584" y="703" on="1"/>
        <pt x="775" y="465" on="1"/>
        <pt x="814" y="491" on="0"/>
        <pt x="862" y="538" on="1"/>
      </contour>
      <contour>
        <pt x="0" y="1048" on="1"/>
        <pt x="0" y="1274" on="1"/>
        <pt x="890" y="1274" on="1"/>
        <pt x="890" y="1048" on="1"/>
      </contour>
      <contour>
        <pt x="638" y="404" on="1"/>
        <pt x="430" y="664" on="1"/>
        <pt x="402" y="646" on="0"/>
        <pt x="374" y="589" on="0"/>
        <pt x="374" y="550" on="1"/>
        <pt x="374" y="473" on="0"/>
        <pt x="468" y="397" on="0"/>
        <pt x="562" y="397" on="1"/>
        <pt x="607" y="397" on="0"/>
      </contour>
      <contour>
        <pt x="496" y="181" on="1"/>
      </contour>
    </TTGlyph>
    <TTGlyph name="bhadeva" xMin="85" yMin="0" xMax="1613" yMax="1294">
      <contour>
        <pt x="1145" y="452" on="1"/>
        <pt x="799" y="452" on="1"/>
        <pt x="799" y="420" on="1"/>
        <pt x="799" y="335" on="0"/>
        <pt x="729" y="255" on="0"/>
        <pt x="655" y="255" on="1"/>
        <pt x="599" y="255" on="0"/>
        <pt x="457" y="353" on="0"/>
        <pt x="360" y="493" on="0"/>
        <pt x="360" y="552" on="1"/>
        <pt x="360" y="618" on="0"/>
        <pt x="432" y="678" on="0"/>
        <pt x="504" y="678" on="1"/>
        <pt x="525" y="678" on="1"/>
        <pt x="525" y="885" on="1"/>
        <pt x="525" y="1006" on="0"/>
        <pt x="459" y="1106" on="0"/>
        <pt x="390" y="1106" on="1"/>
        <pt x="346" y="1106" on="0"/>
        <pt x="303" y="1068" on="0"/>
        <pt x="303" y="1037" on="1"/>
        <pt x="303" y="991" on="0"/>
        <pt x="384" y="948" on="0"/>
        <pt x="461" y="945" on="1"/>
        <pt x="444" y="756" on="1"/>
        <pt x="268" y="770" on="0"/>
        <pt x="85" y="918" on="0"/>
        <pt x="85" y="1046" on="1"/>
        <pt x="85" y="1163" on="0"/>
        <pt x="256" y="1294" on="0"/>
        <pt x="398" y="1294" on="1"/>
        <pt x="550" y="1294" on="0"/>
        <pt x="728" y="1190" on="0"/>
        <pt x="799" y="1024" on="0"/>
        <pt x="799" y="888" on="1"/>
        <pt x="799" y="678" on="1"/>
        <pt x="1145" y="678" on="1"/>
        <pt x="1145" y="1048" on="1"/>
        <pt x="940" y="1048" on="1"/>
        <pt x="940" y="1274" on="1"/>
        <pt x="1613" y="1274" on="1"/>
        <pt x="1613" y="1048" on="1"/>
        <pt x="1420" y="1048" on="1"/>
        <pt x="1420" y="0" on="1"/>
        <pt x="1145" y="0" on="1"/>
      </contour>
    </TTGlyph>
    <TTGlyph name="bhanuktadeva" xMin="85" yMin="-179" xMax="1613" yMax="1294">
      <component glyphName="bhadeva" x="0" y="0" flags="0x204"/>
      <component glyphName="nuktadeva" x="1243" y="249" flags="0x4"/>
    </TTGlyph>
    <TTGlyph name="bhanuktaprehalfdeva" xMin="85" yMin="-179" xMax="1145" yMax="1294">
      <component glyphName="bhaprehalfdeva" x="0" y="0" flags="0x204"/>
      <component glyphName="nuktadeva" x="1243" y="249" flags="0x4"/>
    </TTGlyph>
    <TTGlyph name="bhanuktaradeva" xMin="85" yMin="-428" xMax="1613" yMax="1294">
      <component glyphName="bharadeva" x="0" y="0" flags="0x204"/>
      <component glyphName="nuktadeva" x="1324" y="0" flags="0x4"/>
    </TTGlyph>
    <TTGlyph name="bhanuktaraprehalfdeva" xMin="85" yMin="-428" xMax="1255" yMax="1294">
      <component glyphName="bharaprehalfdeva" x="0" y="0" flags="0x204"/>
      <component glyphName="nuktadeva" x="1324" y="0" flags="0x4"/>
    </TTGlyph>
    <TTGlyph name="bhaprehalfdeva" xMin="85" yMin="255" xMax="1145" yMax="1294">
      <contour>
        <pt x="1145" y="452" on="1"/>
        <pt x="799" y="452" on="1"/>
        <pt x="799" y="420" on="1"/>
        <pt x="799" y="335" on="0"/>
        <pt x="729" y="255" on="0"/>
        <pt x="655" y="255" on="1"/>
        <pt x="599" y="255" on="0"/>
        <pt x="457" y="353" on="0"/>
        <pt x="360" y="493" on="0"/>
        <pt x="360" y="552" on="1"/>
        <pt x="360" y="618" on="0"/>
        <pt x="432" y="678" on="0"/>
        <pt x="504" y="678" on="1"/>
        <pt x="525" y="678" on="1"/>
        <pt x="525" y="885" on="1"/>
        <pt x="525" y="1006" on="0"/>
        <pt x="459" y="1106" on="0"/>
        <pt x="390" y="1106" on="1"/>
        <pt x="346" y="1106" on="0"/>
        <pt x="303" y="1068" on="0"/>
        <pt x="303" y="1037" on="1"/>
        <pt x="303" y="991" on="0"/>
        <pt x="384" y="948" on="0"/>
        <pt x="461" y="945" on="1"/>
        <pt x="444" y="756" on="1"/>
        <pt x="268" y="770" on="0"/>
        <pt x="85" y="918" on="0"/>
        <pt x="85" y="1046" on="1"/>
        <pt x="85" y="1163" on="0"/>
        <pt x="256" y="1294" on="0"/>
        <pt x="398" y="1294" on="1"/>
        <pt x="550" y="1294" on="0"/>
        <pt x="728" y="1190" on="0"/>
        <pt x="799" y="1024" on="0"/>
        <pt x="799" y="888" on="1"/>
        <pt x="799" y="678" on="1"/>
        <pt x="1145" y="678" on="1"/>
      </contour>
      <contour>
        <pt x="940" y="1048" on="1"/>
        <pt x="940" y="1274" on="1"/>
        <pt x="1123" y="1274" on="1"/>
        <pt x="1123" y="1048" on="1"/>
      </contour>
    </TTGlyph>
    <TTGlyph name="bharadeva" xMin="85" yMin="-55" xMax="1613" yMax="1294">
      <contour>
        <pt x="1145" y="476" on="1"/>
        <pt x="799" y="476" on="1"/>
        <pt x="799" y="446" on="1"/>
        <pt x="799" y="369" on="0"/>
        <pt x="730" y="294" on="0"/>
        <pt x="655" y="294" on="1"/>
        <pt x="598" y="294" on="0"/>
        <pt x="454" y="391" on="0"/>
        <pt x="360" y="525" on="0"/>
        <pt x="360" y="580" on="1"/>
        <pt x="360" y="644" on="0"/>
        <pt x="433" y="702" on="0"/>
        <pt x="504" y="702" on="1"/>
        <pt x="525" y="702" on="1"/>
        <pt x="525" y="885" on="1"/>
        <pt x="525" y="1006" on="0"/>
        <pt x="459" y="1106" on="0"/>
        <pt x="390" y="1106" on="1"/>
        <pt x="346" y="1106" on="0"/>
        <pt x="303" y="1068" on="0"/>
        <pt x="303" y="1037" on="1"/>
        <pt x="303" y="991" on="0"/>
        <pt x="384" y="948" on="0"/>
        <pt x="461" y="945" on="1"/>
        <pt x="444" y="756" on="1"/>
        <pt x="268" y="770" on="0"/>
        <pt x="85" y="918" on="0"/>
        <pt x="85" y="1046" on="1"/>
        <pt x="85" y="1163" on="0"/>
        <pt x="256" y="1294" on="0"/>
        <pt x="398" y="1294" on="1"/>
        <pt x="550" y="1294" on="0"/>
        <pt x="728" y="1190" on="0"/>
        <pt x="799" y="1024" on="0"/>
        <pt x="799" y="888" on="1"/>
        <pt x="799" y="702" on="1"/>
        <pt x="1145" y="702" on="1"/>
        <pt x="1145" y="1048" on="1"/>
        <pt x="940" y="1048" on="1"/>
        <pt x="940" y="1274" on="1"/>
        <pt x="1613" y="1274" on="1"/>
        <pt x="1613" y="1048" on="1"/>
        <pt x="1420" y="1048" on="1"/>
        <pt x="1420" y="0" on="1"/>
        <pt x="1145" y="0" on="1"/>
        <pt x="1145" y="195" on="1"/>
        <pt x="742" y="-55" on="1"/>
        <pt x="602" y="136" on="1"/>
        <pt x="1145" y="418" on="1"/>
      </contour>
    </TTGlyph>
    <TTGlyph name="bharaprehalfdeva" xMin="85" yMin="-55" xMax="1255" yMax="1294">
      <contour>
        <pt x="1145" y="476" on="1"/>
        <pt x="799" y="476" on="1"/>
        <pt x="799" y="446" on="1"/>
        <pt x="799" y="369" on="0"/>
        <pt x="730" y="294" on="0"/>
        <pt x="655" y="294" on="1"/>
        <pt x="598" y="294" on="0"/>
        <pt x="454" y="391" on="0"/>
        <pt x="360" y="525" on="0"/>
        <pt x="360" y="580" on="1"/>
        <pt x="360" y="644" on="0"/>
        <pt x="433" y="702" on="0"/>
        <pt x="504" y="702" on="1"/>
        <pt x="525" y="702" on="1"/>
        <pt x="525" y="885" on="1"/>
        <pt x="525" y="1006" on="0"/>
        <pt x="459" y="1106" on="0"/>
        <pt x="390" y="1106" on="1"/>
        <pt x="346" y="1106" on="0"/>
        <pt x="303" y="1068" on="0"/>
        <pt x="303" y="1037" on="1"/>
        <pt x="303" y="991" on="0"/>
        <pt x="384" y="948" on="0"/>
        <pt x="461" y="945" on="1"/>
        <pt x="444" y="756" on="1"/>
        <pt x="268" y="770" on="0"/>
        <pt x="85" y="918" on="0"/>
        <pt x="85" y="1046" on="1"/>
        <pt x="85" y="1163" on="0"/>
        <pt x="256" y="1294" on="0"/>
        <pt x="398" y="1294" on="1"/>
        <pt x="550" y="1294" on="0"/>
        <pt x="728" y="1190" on="0"/>
        <pt x="799" y="1024" on="0"/>
        <pt x="799" y="888" on="1"/>
        <pt x="799" y="702" on="1"/>
        <pt x="1145" y="702" on="1"/>
      </contour>
      <contour>
        <pt x="940" y="1048" on="1"/>
        <pt x="940" y="1274" on="1"/>
        <pt x="1174" y="1274" on="1"/>
        <pt x="1174" y="1048" on="1"/>
      </contour>
      <contour>
        <pt x="1255" y="257" on="1"/>
        <pt x="742" y="-55" on="1"/>
        <pt x="602" y="136" on="1"/>
        <pt x="1145" y="418" on="1"/>
      </contour>
    </TTGlyph>
    <TTGlyph name="braceleft.deva" xMin="78" yMin="-548" xMax="772" yMax="1836">
      <contour>
        <pt x="78" y="562" on="1"/>
        <pt x="78" y="801" on="1"/>
        <pt x="140" y="801" on="0"/>
        <pt x="237" y="823" on="0"/>
        <pt x="303" y="873" on="0"/>
        <pt x="336" y="952" on="0"/>
        <pt x="334" y="1008" on="1"/>
        <pt x="334" y="1379" on="1"/>
        <pt x="334" y="1465" on="0"/>
        <pt x="372" y="1588" on="0"/>
        <pt x="471" y="1666" on="0"/>
        <pt x="641" y="1703" on="0"/>
        <pt x="772" y="1703" on="1"/>
        <pt x="772" y="1478" on="1"/>
        <pt x="732" y="1477" on="0"/>
        <pt x="667" y="1462" on="0"/>
        <pt x="622" y="1425" on="0"/>
        <pt x="598" y="1361" on="0"/>
        <pt x="598" y="1310" on="1"/>
        <pt x="598" y="953" on="1"/>
        <pt x="592" y="730" on="0"/>
        <pt x="364" y="688" on="1"/>
        <pt x="364" y="676" on="1"/>
        <pt x="479" y="656" on="0"/>
        <pt x="601" y="524" on="0"/>
        <pt x="598" y="412" on="1"/>
        <pt x="598" y="55" on="1"/>
        <pt x="598" y="4" on="0"/>
        <pt x="622" y="-60" on="0"/>
        <pt x="667" y="-97" on="0"/>
        <pt x="732" y="-112" on="0"/>
        <pt x="772" y="-113" on="1"/>
        <pt x="772" y="-339" on="1"/>
        <pt x="641" y="-339" on="0"/>
        <pt x="471" y="-302" on="0"/>
        <pt x="372" y="-224" on="0"/>
        <pt x="334" y="-100" on="0"/>
        <pt x="334" y="-14" on="1"/>
        <pt x="334" y="353" on="1"/>
        <pt x="334" y="466" on="0"/>
        <pt x="203" y="562" on="0"/>
      </contour>
      <contour>
        <pt x="253" y="1274" on="1"/>
      </contour>
      <contour>
        <pt x="248" y="1836" on="1"/>
      </contour>
      <contour>
        <pt x="279" y="-548" on="1"/>
      </contour>
    </TTGlyph>
    <TTGlyph name="braceright.deva" xMin="100" yMin="-548" xMax="794" yMax="1836">
      <contour>
        <pt x="794" y="563" on="1"/>
        <pt x="732" y="563" on="0"/>
        <pt x="635" y="541" on="0"/>
        <pt x="569" y="491" on="0"/>
        <pt x="536" y="412" on="0"/>
        <pt x="538" y="356" on="1"/>
        <pt x="538" y="-15" on="1"/>
        <pt x="538" y="-101" on="0"/>
        <pt x="500" y="-224" on="0"/>
        <pt x="401" y="-302" on="0"/>
        <pt x="231" y="-339" on="0"/>
        <pt x="100" y="-339" on="1"/>
        <pt x="100" y="-114" on="1"/>
        <pt x="140" y="-113" on="0"/>
        <pt x="205" y="-98" on="0"/>
        <pt x="250" y="-61" on="0"/>
        <pt x="274" y="3" on="0"/>
        <pt x="274" y="54" on="1"/>
        <pt x="274" y="411" on="1"/>
        <pt x="280" y="634" on="0"/>
        <pt x="508" y="676" on="1"/>
        <pt x="508" y="688" on="1"/>
        <pt x="393" y="708" on="0"/>
        <pt x="271" y="840" on="0"/>
        <pt x="274" y="952" on="1"/>
        <pt x="274" y="1309" on="1"/>
        <pt x="274" y="1360" on="0"/>
        <pt x="250" y="1424" on="0"/>
        <pt x="205" y="1461" on="0"/>
        <pt x="140" y="1476" on="0"/>
        <pt x="100" y="1477" on="1"/>
        <pt x="100" y="1703" on="1"/>
        <pt x="231" y="1703" on="0"/>
        <pt x="401" y="1666" on="0"/>
        <pt x="500" y="1588" on="0"/>
        <pt x="538" y="1464" on="0"/>
        <pt x="538" y="1378" on="1"/>
        <pt x="538" y="1011" on="1"/>
        <pt x="538" y="898" on="0"/>
        <pt x="669" y="802" on="0"/>
        <pt x="794" y="802" on="1"/>
      </contour>
      <contour>
        <pt x="653" y="1274" on="1"/>
      </contour>
      <contour>
        <pt x="648" y="1836" on="1"/>
      </contour>
      <contour>
        <pt x="679" y="-548" on="1"/>
      </contour>
    </TTGlyph>
    <TTGlyph name="bracketleft.deva" xMin="214" yMin="-548" xMax="698" yMax="1836">
      <contour>
        <pt x="698" y="-339" on="1"/>
        <pt x="214" y="-339" on="1"/>
        <pt x="214" y="1704" on="1"/>
        <pt x="698" y="1704" on="1"/>
        <pt x="698" y="1493" on="1"/>
        <pt x="474" y="1493" on="1"/>
        <pt x="474" y="-128" on="1"/>
        <pt x="698" y="-128" on="1"/>
      </contour>
      <contour>
        <pt x="553" y="1274" on="1"/>
      </contour>
      <contour>
        <pt x="548" y="1836" on="1"/>
      </contour>
      <contour>
        <pt x="579" y="-548" on="1"/>
      </contour>
    </TTGlyph>
    <TTGlyph name="bracketright.deva" xMin="100" yMin="-548" xMax="584" yMax="1836">
      <contour>
        <pt x="100" y="1704" on="1"/>
        <pt x="584" y="1704" on="1"/>
        <pt x="584" y="-339" on="1"/>
        <pt x="100" y="-339" on="1"/>
        <pt x="100" y="-128" on="1"/>
        <pt x="324" y="-128" on="1"/>
        <pt x="324" y="1493" on="1"/>
        <pt x="100" y="1493" on="1"/>
      </contour>
      <contour>
        <pt x="253" y="1274" on="1"/>
      </contour>
      <contour>
        <pt x="248" y="1836" on="1"/>
      </contour>
      <contour>
        <pt x="279" y="-548" on="1"/>
      </contour>
    </TTGlyph>
    <TTGlyph name="cadeva" xMin="0" yMin="0" xMax="1443" yMax="1274">
      <contour>
        <pt x="976" y="261" on="1"/>
        <pt x="904" y="221" on="0"/>
        <pt x="767" y="186" on="0"/>
        <pt x="681" y="186" on="1"/>
        <pt x="498" y="186" on="0"/>
        <pt x="277" y="356" on="0"/>
        <pt x="277" y="494" on="1"/>
        <pt x="277" y="612" on="0"/>
        <pt x="351" y="683" on="1"/>
        <pt x="75" y="676" on="1"/>
        <pt x="75" y="904" on="1"/>
        <pt x="709" y="904" on="1"/>
        <pt x="779" y="904" on="0"/>
        <pt x="828" y="899" on="1"/>
        <pt x="806" y="678" on="1"/>
        <pt x="762" y="678" on="1"/>
        <pt x="657" y="678" on="0"/>
        <pt x="552" y="609" on="0"/>
        <pt x="552" y="537" on="1"/>
        <pt x="552" y="480" on="0"/>
        <pt x="631" y="412" on="0"/>
        <pt x="699" y="412" on="1"/>
        <pt x="786" y="412" on="0"/>
        <pt x="915" y="475" on="0"/>
        <pt x="976" y="546" on="1"/>
        <pt x="976" y="1048" on="1"/>
        <pt x="0" y="1048" on="1"/>
        <pt x="0" y="1274" on="1"/>
        <pt x="1443" y="1274" on="1"/>
        <pt x="1443" y="1048" on="1"/>
        <pt x="1250" y="1048" on="1"/>
        <pt x="1250" y="0" on="1"/>
        <pt x="976" y="0" on="1"/>
      </contour>
    </TTGlyph>
    <TTGlyph name="candrabindudeva" xMin="-856" yMin="1274" xMax="139" yMax="1836">
      <contour>
        <pt x="-354" y="1836" on="1"/>
        <pt x="-305" y="1836" on="0"/>
        <pt x="-234" y="1766" on="0"/>
        <pt x="-234" y="1716" on="1"/>
        <pt x="-234" y="1666" on="0"/>
        <pt x="-306" y="1596" on="0"/>
        <pt x="-354" y="1596" on="1"/>
        <pt x="-402" y="1596" on="0"/>
        <pt x="-474" y="1666" on="0"/>
        <pt x="-474" y="1716" on="1"/>
        <pt x="-474" y="1766" on="0"/>
        <pt x="-403" y="1836" on="0"/>
      </contour>
      <contour>
        <pt x="139" y="1761" on="1"/>
        <pt x="89" y="1551" on="0"/>
        <pt x="-152" y="1343" on="0"/>
        <pt x="-352" y="1343" on="1"/>
        <pt x="-528" y="1343" on="0"/>
        <pt x="-782" y="1553" on="0"/>
        <pt x="-856" y="1757" on="1"/>
        <pt x="-646" y="1836" on="1"/>
        <pt x="-598" y="1682" on="0"/>
        <pt x="-454" y="1540" on="0"/>
        <pt x="-347" y="1540" on="1"/>
        <pt x="-240" y="1540" on="0"/>
        <pt x="-117" y="1678" on="0"/>
        <pt x="-86" y="1836" on="1"/>
      </contour>
      <contour>
        <pt x="-439" y="1274" on="1"/>
      </contour>
    </TTGlyph>
    <TTGlyph name="candrabindusmalldeva" xMin="-736" yMin="1274" xMax="119" yMax="1836">
      <contour>
        <pt x="-304" y="1836" on="1"/>
        <pt x="-258" y="1836" on="0"/>
        <pt x="-192" y="1770" on="0"/>
        <pt x="-192" y="1724" on="1"/>
        <pt x="-192" y="1678" on="0"/>
        <pt x="-258" y="1612" on="0"/>
        <pt x="-304" y="1612" on="1"/>
        <pt x="-350" y="1612" on="0"/>
        <pt x="-416" y="1678" on="0"/>
        <pt x="-416" y="1724" on="1"/>
        <pt x="-416" y="1770" on="0"/>
        <pt x="-350" y="1836" on="0"/>
      </contour>
      <contour>
        <pt x="119" y="1761" on="1"/>
        <pt x="90" y="1565" on="0"/>
        <pt x="-126" y="1367" on="0"/>
        <pt x="-309" y="1367" on="1"/>
        <pt x="-463" y="1367" on="0"/>
        <pt x="-677" y="1562" on="0"/>
        <pt x="-736" y="1757" on="1"/>
        <pt x="-546" y="1836" on="1"/>
        <pt x="-513" y="1695" on="0"/>
        <pt x="-394" y="1556" on="0"/>
        <pt x="-300" y="1556" on="1"/>
        <pt x="-206" y="1556" on="0"/>
        <pt x="-106" y="1690" on="0"/>
        <pt x="-86" y="1836" on="1"/>
      </contour>
      <contour>
        <pt x="-439" y="1274" on="1"/>
      </contour>
    </TTGlyph>
    <TTGlyph name="canuktadeva" xMin="0" yMin="-216" xMax="1443" yMax="1274">
      <component glyphName="cadeva" x="0" y="0" flags="0x204"/>
      <component glyphName="nuktadeva" x="1051" y="212" flags="0x4"/>
    </TTGlyph>
    <TTGlyph name="canuktaprehalfdeva" xMin="0" yMin="-216" xMax="1113" yMax="1274">
      <component glyphName="caprehalfdeva" x="0" y="0" flags="0x204"/>
      <component glyphName="nuktadeva" x="1051" y="212" flags="0x4"/>
    </TTGlyph>
    <TTGlyph name="canuktaradeva" xMin="0" yMin="-403" xMax="1443" yMax="1274">
      <component glyphName="caradeva" x="0" y="0" flags="0x204"/>
      <component glyphName="nuktadeva" x="1207" y="25" flags="0x4"/>
    </TTGlyph>
    <TTGlyph name="canuktaraprehalfdeva" xMin="0" yMin="-403" xMax="1110" yMax="1274">
      <component glyphName="caraprehalfdeva" x="0" y="0" flags="0x204"/>
      <component glyphName="nuktadeva" x="1207" y="25" flags="0x4"/>
    </TTGlyph>
    <TTGlyph name="caprehalfdeva" xMin="0" yMin="186" xMax="1113" yMax="1274">
      <contour>
        <pt x="1113" y="358" on="1"/>
        <pt x="1013" y="268" on="0"/>
        <pt x="802" y="186" on="0"/>
        <pt x="681" y="186" on="1"/>
        <pt x="498" y="186" on="0"/>
        <pt x="277" y="356" on="0"/>
        <pt x="277" y="494" on="1"/>
        <pt x="277" y="612" on="0"/>
        <pt x="351" y="683" on="1"/>
        <pt x="75" y="676" on="1"/>
        <pt x="75" y="904" on="1"/>
        <pt x="709" y="904" on="1"/>
        <pt x="779" y="904" on="0"/>
        <pt x="828" y="899" on="1"/>
        <pt x="806" y="678" on="1"/>
        <pt x="762" y="678" on="1"/>
        <pt x="657" y="678" on="0"/>
        <pt x="552" y="609" on="0"/>
        <pt x="552" y="537" on="1"/>
        <pt x="552" y="480" on="0"/>
        <pt x="631" y="412" on="0"/>
        <pt x="699" y="412" on="1"/>
        <pt x="786" y="412" on="0"/>
        <pt x="915" y="475" on="0"/>
        <pt x="976" y="546" on="1"/>
      </contour>
      <contour>
        <pt x="0" y="1048" on="1"/>
        <pt x="0" y="1274" on="1"/>
        <pt x="922" y="1274" on="1"/>
        <pt x="922" y="1048" on="1"/>
      </contour>
    </TTGlyph>
    <TTGlyph name="caradeva" xMin="0" yMin="-89" xMax="1443" yMax="1274">
      <contour>
        <pt x="976" y="289" on="1"/>
        <pt x="367" y="-89" on="1"/>
        <pt x="227" y="102" on="1"/>
        <pt x="476" y="236" on="1"/>
        <pt x="380" y="273" on="0"/>
        <pt x="277" y="411" on="0"/>
        <pt x="277" y="500" on="1"/>
        <pt x="277" y="615" on="0"/>
        <pt x="351" y="683" on="1"/>
        <pt x="75" y="676" on="1"/>
        <pt x="75" y="904" on="1"/>
        <pt x="709" y="904" on="1"/>
        <pt x="779" y="904" on="0"/>
        <pt x="828" y="899" on="1"/>
        <pt x="806" y="678" on="1"/>
        <pt x="762" y="678" on="1"/>
        <pt x="657" y="678" on="0"/>
        <pt x="552" y="609" on="0"/>
        <pt x="552" y="537" on="1"/>
        <pt x="552" y="480" on="0"/>
        <pt x="631" y="412" on="0"/>
        <pt x="699" y="412" on="1"/>
        <pt x="786" y="412" on="0"/>
        <pt x="915" y="475" on="0"/>
        <pt x="976" y="546" on="1"/>
        <pt x="976" y="1048" on="1"/>
        <pt x="0" y="1048" on="1"/>
        <pt x="0" y="1274" on="1"/>
        <pt x="1443" y="1274" on="1"/>
        <pt x="1443" y="1048" on="1"/>
        <pt x="1250" y="1048" on="1"/>
        <pt x="1250" y="0" on="1"/>
        <pt x="976" y="0" on="1"/>
      </contour>
      <contour>
        <pt x="681" y="186" on="1"/>
      </contour>
    </TTGlyph>
    <TTGlyph name="caraprehalfdeva" xMin="0" yMin="-89" xMax="1110" yMax="1274">
      <contour>
        <pt x="1110" y="361" on="1"/>
        <pt x="367" y="-89" on="1"/>
        <pt x="227" y="102" on="1"/>
        <pt x="476" y="236" on="1"/>
        <pt x="380" y="273" on="0"/>
        <pt x="277" y="411" on="0"/>
        <pt x="277" y="500" on="1"/>
        <pt x="277" y="615" on="0"/>
        <pt x="351" y="683" on="1"/>
        <pt x="75" y="676" on="1"/>
        <pt x="75" y="904" on="1"/>
        <pt x="709" y="904" on="1"/>
        <pt x="779" y="904" on="0"/>
        <pt x="828" y="899" on="1"/>
        <pt x="806" y="678" on="1"/>
        <pt x="762" y="678" on="1"/>
        <pt x="657" y="678" on="0"/>
        <pt x="552" y="609" on="0"/>
        <pt x="552" y="537" on="1"/>
        <pt x="552" y="480" on="0"/>
        <pt x="631" y="412" on="0"/>
        <pt x="699" y="412" on="1"/>
        <pt x="786" y="412" on="0"/>
        <pt x="915" y="475" on="0"/>
        <pt x="976" y="546" on="1"/>
      </contour>
      <contour>
        <pt x="0" y="1048" on="1"/>
        <pt x="0" y="1274" on="1"/>
        <pt x="922" y="1274" on="1"/>
        <pt x="922" y="1048" on="1"/>
      </contour>
      <contour>
        <pt x="681" y="186" on="1"/>
      </contour>
    </TTGlyph>
    <TTGlyph name="chaaltdeva" xMin="0" yMin="0" xMax="1585" yMax="1274">
      <contour>
        <pt x="1237" y="958" on="1"/>
        <pt x="1356" y="927" on="0"/>
        <pt x="1481" y="780" on="0"/>
        <pt x="1481" y="671" on="1"/>
        <pt x="1481" y="547" on="0"/>
        <pt x="1282" y="327" on="0"/>
        <pt x="915" y="201" on="0"/>
        <pt x="677" y="201" on="1"/>
        <pt x="439" y="201" on="0"/>
        <pt x="188" y="335" on="0"/>
        <pt x="188" y="453" on="1"/>
        <pt x="188" y="515" on="0"/>
        <pt x="231" y="568" on="1"/>
        <pt x="69" y="644" on="0"/>
        <pt x="69" y="772" on="1"/>
        <pt x="69" y="871" on="0"/>
        <pt x="263" y="985" on="0"/>
        <pt x="439" y="985" on="1"/>
        <pt x="554" y="985" on="0"/>
        <pt x="633" y="971" on="1"/>
        <pt x="613" y="789" on="1"/>
        <pt x="553" y="804" on="0"/>
        <pt x="467" y="804" on="1"/>
        <pt x="401" y="804" on="0"/>
        <pt x="344" y="777" on="0"/>
        <pt x="344" y="750" on="1"/>
        <pt x="344" y="707" on="0"/>
        <pt x="452" y="691" on="1"/>
        <pt x="502" y="701" on="0"/>
        <pt x="570" y="701" on="1"/>
        <pt x="613" y="701" on="0"/>
        <pt x="667" y="694" on="1"/>
        <pt x="646" y="518" on="1"/>
        <pt x="623" y="520" on="0"/>
        <pt x="583" y="520" on="1"/>
        <pt x="516" y="520" on="0"/>
        <pt x="453" y="494" on="0"/>
        <pt x="453" y="464" on="1"/>
        <pt x="453" y="427" on="0"/>
        <pt x="568" y="394" on="0"/>
        <pt x="686" y="394" on="1"/>
        <pt x="917" y="394" on="0"/>
        <pt x="1207" y="556" on="0"/>
        <pt x="1207" y="680" on="1"/>
        <pt x="1207" y="739" on="0"/>
        <pt x="1136" y="813" on="0"/>
        <pt x="1074" y="813" on="1"/>
        <pt x="1032" y="813" on="0"/>
        <pt x="993" y="782" on="0"/>
        <pt x="993" y="759" on="1"/>
        <pt x="993" y="718" on="0"/>
        <pt x="1086" y="670" on="0"/>
        <pt x="1165" y="654" on="1"/>
        <pt x="1044" y="501" on="1"/>
        <pt x="740" y="585" on="0"/>
        <pt x="740" y="764" on="1"/>
        <pt x="740" y="847" on="0"/>
        <pt x="855" y="953" on="0"/>
        <pt x="962" y="970" on="1"/>
        <pt x="962" y="1048" on="1"/>
        <pt x="0" y="1048" on="1"/>
        <pt x="0" y="1274" on="1"/>
        <pt x="1585" y="1274" on="1"/>
        <pt x="1585" y="1048" on="1"/>
        <pt x="1237" y="1048" on="1"/>
      </contour>
      <contour>
        <pt x="962" y="1274" on="1"/>
      </contour>
      <contour>
        <pt x="837" y="0" on="1"/>
      </contour>
      <contour>
        <pt x="74" y="261" on="1"/>
      </contour>
    </TTGlyph>
    <TTGlyph name="chadeva" xMin="0" yMin="0" xMax="1585" yMax="1274">
      <contour>
        <pt x="1237" y="937" on="1"/>
        <pt x="1356" y="899" on="0"/>
        <pt x="1481" y="717" on="0"/>
        <pt x="1481" y="581" on="1"/>
        <pt x="1481" y="425" on="0"/>
        <pt x="1283" y="152" on="0"/>
        <pt x="919" y="0" on="0"/>
        <pt x="677" y="0" on="1"/>
        <pt x="439" y="0" on="0"/>
        <pt x="188" y="165" on="0"/>
        <pt x="188" y="312" on="1"/>
        <pt x="188" y="392" on="0"/>
        <pt x="233" y="458" on="1"/>
        <pt x="69" y="549" on="0"/>
        <pt x="69" y="706" on="1"/>
        <pt x="69" y="829" on="0"/>
        <pt x="263" y="970" on="0"/>
        <pt x="439" y="970" on="1"/>
        <pt x="559" y="970" on="0"/>
        <pt x="633" y="953" on="1"/>
        <pt x="613" y="740" on="1"/>
        <pt x="550" y="759" on="0"/>
        <pt x="467" y="759" on="1"/>
        <pt x="344" y="759" on="0"/>
        <pt x="344" y="687" on="1"/>
        <pt x="344" y="630" on="0"/>
        <pt x="441" y="604" on="1"/>
        <pt x="498" y="618" on="0"/>
        <pt x="570" y="618" on="1"/>
        <pt x="625" y="618" on="0"/>
        <pt x="667" y="610" on="1"/>
        <pt x="646" y="404" on="1"/>
        <pt x="623" y="407" on="0"/>
        <pt x="583" y="407" on="1"/>
        <pt x="514" y="407" on="0"/>
        <pt x="453" y="367" on="0"/>
        <pt x="453" y="327" on="1"/>
        <pt x="453" y="226" on="0"/>
        <pt x="686" y="226" on="1"/>
        <pt x="832" y="226" on="0"/>
        <pt x="1071" y="321" on="0"/>
        <pt x="1207" y="492" on="0"/>
        <pt x="1207" y="598" on="1"/>
        <pt x="1207" y="679" on="0"/>
        <pt x="1140" y="769" on="0"/>
        <pt x="1077" y="769" on="1"/>
        <pt x="1040" y="769" on="0"/>
        <pt x="993" y="729" on="0"/>
        <pt x="993" y="699" on="1"/>
        <pt x="993" y="650" on="0"/>
        <pt x="1072" y="586" on="0"/>
        <pt x="1153" y="564" on="1"/>
        <pt x="1050" y="380" on="1"/>
        <pt x="895" y="430" on="0"/>
        <pt x="740" y="588" on="0"/>
        <pt x="740" y="696" on="1"/>
        <pt x="740" y="795" on="0"/>
        <pt x="853" y="928" on="0"/>
        <pt x="962" y="951" on="1"/>
        <pt x="962" y="1048" on="1"/>
        <pt x="0" y="1048" on="1"/>
        <pt x="0" y="1274" on="1"/>
        <pt x="1585" y="1274" on="1"/>
        <pt x="1585" y="1048" on="1"/>
        <pt x="1237" y="1048" on="1"/>
      </contour>
      <contour>
        <pt x="962" y="1274" on="1"/>
      </contour>
      <contour>
        <pt x="837" y="0" on="1"/>
      </contour>
      <contour>
        <pt x="1067" y="961" on="1"/>
      </contour>
    </TTGlyph>
    <TTGlyph name="chanuktaaltdeva" xMin="0" yMin="-135" xMax="1585" yMax="1274">
      <component glyphName="chaaltdeva" x="0" y="0" flags="0x204"/>
      <component glyphName="nuktadeva" x="924" y="293" flags="0x4"/>
    </TTGlyph>
    <TTGlyph name="chanuktadeva" xMin="0" yMin="-428" xMax="1585" yMax="1274">
      <component glyphName="chadeva" x="0" y="0" flags="0x204"/>
      <component glyphName="nuktadeva" x="1338" y="0" flags="0x4"/>
    </TTGlyph>
    <TTGlyph name="chanuktaprehalfdeva" xMin="0" yMin="-428" xMax="1585" yMax="1274">
      <component glyphName="chaprehalfdeva" x="0" y="0" flags="0x204"/>
      <component glyphName="nuktadeva" x="1338" y="0" flags="0x4"/>
    </TTGlyph>
    <TTGlyph name="chanuktaradeva" xMin="0" yMin="-548" xMax="1585" yMax="1274">
      <component glyphName="chadeva" x="0" y="0" flags="0x204"/>
      <component glyphName="vattudeva" x="1286" y="0" flags="0x4"/>
      <component glyphName="nuktasmalldeva" x="812" y="163" flags="0x4"/>
    </TTGlyph>
    <TTGlyph name="chanuktaraprehalfdeva" xMin="0" yMin="-548" xMax="1585" yMax="1274">
      <component glyphName="chaprehalfdeva" x="0" y="0" flags="0x204"/>
      <component glyphName="vattudeva" x="1286" y="0" flags="0x4"/>
      <component glyphName="nuktasmalldeva" x="812" y="163" flags="0x4"/>
    </TTGlyph>
    <TTGlyph name="chaprehalfdeva" xMin="0" yMin="0" xMax="1585" yMax="1274">
      <contour>
        <pt x="1067" y="961" on="1"/>
        <pt x="1263" y="961" on="0"/>
        <pt x="1481" y="763" on="0"/>
        <pt x="1481" y="581" on="1"/>
        <pt x="1481" y="425" on="0"/>
        <pt x="1283" y="152" on="0"/>
        <pt x="919" y="0" on="0"/>
        <pt x="677" y="0" on="1"/>
        <pt x="439" y="0" on="0"/>
        <pt x="188" y="165" on="0"/>
        <pt x="188" y="312" on="1"/>
        <pt x="188" y="392" on="0"/>
        <pt x="233" y="458" on="1"/>
        <pt x="69" y="549" on="0"/>
        <pt x="69" y="706" on="1"/>
        <pt x="69" y="829" on="0"/>
        <pt x="263" y="970" on="0"/>
        <pt x="439" y="970" on="1"/>
        <pt x="559" y="970" on="0"/>
        <pt x="633" y="953" on="1"/>
        <pt x="613" y="740" on="1"/>
        <pt x="550" y="759" on="0"/>
        <pt x="467" y="759" on="1"/>
        <pt x="344" y="759" on="0"/>
        <pt x="344" y="687" on="1"/>
        <pt x="344" y="630" on="0"/>
        <pt x="441" y="604" on="1"/>
        <pt x="498" y="618" on="0"/>
        <pt x="570" y="618" on="1"/>
        <pt x="625" y="618" on="0"/>
        <pt x="667" y="610" on="1"/>
        <pt x="646" y="404" on="1"/>
        <pt x="623" y="407" on="0"/>
        <pt x="583" y="407" on="1"/>
        <pt x="514" y="407" on="0"/>
        <pt x="453" y="367" on="0"/>
        <pt x="453" y="327" on="1"/>
        <pt x="453" y="226" on="0"/>
        <pt x="686" y="226" on="1"/>
        <pt x="832" y="226" on="0"/>
        <pt x="1071" y="321" on="0"/>
        <pt x="1207" y="492" on="0"/>
        <pt x="1207" y="598" on="1"/>
        <pt x="1207" y="679" on="0"/>
        <pt x="1140" y="769" on="0"/>
        <pt x="1077" y="769" on="1"/>
        <pt x="1040" y="769" on="0"/>
        <pt x="993" y="729" on="0"/>
        <pt x="993" y="699" on="1"/>
        <pt x="993" y="650" on="0"/>
        <pt x="1072" y="586" on="0"/>
        <pt x="1153" y="564" on="1"/>
        <pt x="1050" y="380" on="1"/>
        <pt x="895" y="430" on="0"/>
        <pt x="740" y="588" on="0"/>
        <pt x="740" y="696" on="1"/>
        <pt x="740" y="819" on="0"/>
        <pt x="911" y="961" on="0"/>
      </contour>
      <contour>
        <pt x="1585" y="1048" on="1"/>
        <pt x="0" y="1048" on="1"/>
        <pt x="0" y="1274" on="1"/>
        <pt x="1585" y="1274" on="1"/>
      </contour>
    </TTGlyph>
    <TTGlyph name="charadeva" xMin="0" yMin="-548" xMax="1585" yMax="1274">
      <component glyphName="chadeva" x="0" y="0" flags="0x204"/>
      <component glyphName="vattudeva" x="1286" y="0" flags="0x4"/>
    </TTGlyph>
    <TTGlyph name="charaprehalfdeva" xMin="0" yMin="-548" xMax="1585" yMax="1274">
      <component glyphName="chaprehalfdeva" x="0" y="0" flags="0x204"/>
      <component glyphName="vattudeva" x="1286" y="0" flags="0x4"/>
    </TTGlyph>
    <TTGlyph name="chayadeva" xMin="0" yMin="0" xMax="2825" yMax="1274">
      <contour>
        <pt x="1153" y="564" on="1"/>
        <pt x="1050" y="380" on="1"/>
        <pt x="740" y="481" on="0"/>
        <pt x="740" y="696" on="1"/>
        <pt x="740" y="795" on="0"/>
        <pt x="853" y="928" on="0"/>
        <pt x="962" y="951" on="1"/>
        <pt x="962" y="1048" on="1"/>
        <pt x="0" y="1048" on="1"/>
        <pt x="0" y="1274" on="1"/>
        <pt x="2825" y="1274" on="1"/>
        <pt x="2825" y="1048" on="1"/>
        <pt x="2632" y="1048" on="1"/>
        <pt x="2632" y="0" on="1"/>
        <pt x="2358" y="0" on="1"/>
        <pt x="2358" y="130" on="1"/>
        <pt x="2249" y="77" on="0"/>
        <pt x="2097" y="77" on="1"/>
        <pt x="1916" y="77" on="0"/>
        <pt x="1677" y="294" on="0"/>
        <pt x="1615" y="519" on="1"/>
        <pt x="1714" y="535" on="0"/>
        <pt x="1821" y="607" on="0"/>
        <pt x="1821" y="658" on="1"/>
        <pt x="1821" y="686" on="0"/>
        <pt x="1789" y="722" on="0"/>
        <pt x="1732" y="731" on="0"/>
        <pt x="1663" y="731" on="1"/>
        <pt x="1623" y="731" on="1"/>
        <pt x="1529" y="731" on="0"/>
        <pt x="1452" y="737" on="1"/>
        <pt x="1481" y="672" on="0"/>
        <pt x="1481" y="581" on="1"/>
        <pt x="1481" y="425" on="0"/>
        <pt x="1283" y="152" on="0"/>
        <pt x="919" y="0" on="0"/>
        <pt x="677" y="0" on="1"/>
        <pt x="439" y="0" on="0"/>
        <pt x="188" y="165" on="0"/>
        <pt x="188" y="312" on="1"/>
        <pt x="188" y="392" on="0"/>
        <pt x="233" y="458" on="1"/>
        <pt x="69" y="549" on="0"/>
        <pt x="69" y="706" on="1"/>
        <pt x="69" y="829" on="0"/>
        <pt x="263" y="970" on="0"/>
        <pt x="439" y="970" on="1"/>
        <pt x="559" y="970" on="0"/>
        <pt x="633" y="953" on="1"/>
        <pt x="613" y="740" on="1"/>
        <pt x="550" y="759" on="0"/>
        <pt x="467" y="759" on="1"/>
        <pt x="344" y="759" on="0"/>
        <pt x="344" y="687" on="1"/>
        <pt x="344" y="630" on="0"/>
        <pt x="441" y="604" on="1"/>
        <pt x="498" y="618" on="0"/>
        <pt x="570" y="618" on="1"/>
        <pt x="625" y="618" on="0"/>
        <pt x="667" y="610" on="1"/>
        <pt x="646" y="404" on="1"/>
        <pt x="623" y="407" on="0"/>
        <pt x="583" y="407" on="1"/>
        <pt x="514" y="407" on="0"/>
        <pt x="453" y="367" on="0"/>
        <pt x="453" y="327" on="1"/>
        <pt x="453" y="226" on="0"/>
        <pt x="686" y="226" on="1"/>
        <pt x="832" y="226" on="0"/>
        <pt x="1071" y="321" on="0"/>
        <pt x="1207" y="492" on="0"/>
        <pt x="1207" y="598" on="1"/>
        <pt x="1207" y="679" on="0"/>
        <pt x="1140" y="769" on="0"/>
        <pt x="1077" y="769" on="1"/>
        <pt x="1040" y="769" on="0"/>
        <pt x="993" y="729" on="0"/>
        <pt x="993" y="699" on="1"/>
        <pt x="993" y="650" on="0"/>
        <pt x="1072" y="586" on="0"/>
      </contour>
      <contour>
        <pt x="1237" y="933" on="1"/>
        <pt x="1662" y="933" on="1"/>
        <pt x="1844" y="933" on="0"/>
        <pt x="2005" y="877" on="0"/>
        <pt x="2096" y="754" on="0"/>
        <pt x="2096" y="660" on="1"/>
        <pt x="2096" y="580" on="0"/>
        <pt x="2009" y="449" on="0"/>
        <pt x="1925" y="410" on="1"/>
        <pt x="1959" y="354" on="0"/>
        <pt x="2054" y="303" on="0"/>
        <pt x="2121" y="303" on="1"/>
        <pt x="2255" y="303" on="0"/>
        <pt x="2358" y="391" on="1"/>
        <pt x="2358" y="1048" on="1"/>
        <pt x="1237" y="1048" on="1"/>
      </contour>
      <contour>
        <pt x="1067" y="961" on="1"/>
      </contour>
    </TTGlyph>
    <TTGlyph name="colon.deva" xMin="156" yMin="-27" xMax="506" yMax="1139">
      <contour>
        <pt x="156" y="143" on="1"/>
        <pt x="156" y="190" on="0"/>
        <pt x="183" y="255" on="0"/>
        <pt x="231" y="295" on="0"/>
        <pt x="295" y="313" on="0"/>
        <pt x="332" y="313" on="1"/>
        <pt x="367" y="313" on="0"/>
        <pt x="430" y="295" on="0"/>
        <pt x="478" y="255" on="0"/>
        <pt x="506" y="190" on="0"/>
        <pt x="506" y="143" on="1"/>
        <pt x="506" y="98" on="0"/>
        <pt x="478" y="34" on="0"/>
        <pt x="430" y="-8" on="0"/>
        <pt x="367" y="-27" on="0"/>
        <pt x="332" y="-27" on="1"/>
        <pt x="295" y="-27" on="0"/>
        <pt x="231" y="-8" on="0"/>
        <pt x="183" y="34" on="0"/>
        <pt x="156" y="98" on="0"/>
      </contour>
      <contour>
        <pt x="156" y="969" on="1"/>
        <pt x="156" y="1016" on="0"/>
        <pt x="183" y="1081" on="0"/>
        <pt x="231" y="1121" on="0"/>
        <pt x="295" y="1139" on="0"/>
        <pt x="332" y="1139" on="1"/>
        <pt x="367" y="1139" on="0"/>
        <pt x="430" y="1121" on="0"/>
        <pt x="478" y="1081" on="0"/>
        <pt x="506" y="1016" on="0"/>
        <pt x="506" y="969" on="1"/>
        <pt x="506" y="924" on="0"/>
        <pt x="478" y="859" on="0"/>
        <pt x="430" y="818" on="0"/>
        <pt x="367" y="799" on="0"/>
        <pt x="332" y="799" on="1"/>
        <pt x="295" y="799" on="0"/>
        <pt x="231" y="818" on="0"/>
        <pt x="183" y="859" on="0"/>
        <pt x="156" y="924" on="0"/>
      </contour>
    </TTGlyph>
    <TTGlyph name="comma.deva" xMin="63" yMin="-244" xMax="459" yMax="288">
      <contour>
        <pt x="444" y="288" on="1"/>
        <pt x="459" y="264" on="1"/>
        <pt x="445" y="206" on="0"/>
        <pt x="406" y="77" on="0"/>
        <pt x="359" y="-54" on="0"/>
        <pt x="308" y="-185" on="0"/>
        <pt x="283" y="-244" on="1"/>
        <pt x="63" y="-244" on="1"/>
        <pt x="78" y="-179" on="0"/>
        <pt x="107" y="-39" on="0"/>
        <pt x="134" y="99" on="0"/>
        <pt x="156" y="232" on="0"/>
        <pt x="163" y="288" on="1"/>
      </contour>
    </TTGlyph>
    <TTGlyph name="dabadeva" xMin="0" yMin="-806" xMax="1461" yMax="1274">
      <contour>
        <pt x="364" y="551" on="1"/>
        <pt x="364" y="722" on="0"/>
        <pt x="617" y="919" on="0"/>
        <pt x="849" y="931" on="1"/>
        <pt x="849" y="1048" on="1"/>
        <pt x="0" y="1048" on="1"/>
        <pt x="0" y="1274" on="1"/>
        <pt x="1461" y="1274" on="1"/>
        <pt x="1461" y="1048" on="1"/>
        <pt x="1123" y="1048" on="1"/>
        <pt x="1123" y="707" on="1"/>
        <pt x="1018" y="707" on="1"/>
        <pt x="892" y="707" on="0"/>
        <pt x="764" y="686" on="0"/>
        <pt x="677" y="639" on="0"/>
        <pt x="638" y="575" on="0"/>
        <pt x="638" y="532" on="1"/>
        <pt x="638" y="443" on="0"/>
        <pt x="778" y="354" on="0"/>
        <pt x="919" y="354" on="1"/>
        <pt x="941" y="354" on="0"/>
        <pt x="955" y="356" on="1"/>
        <pt x="953" y="371" on="0"/>
        <pt x="953" y="399" on="1"/>
        <pt x="953" y="465" on="0"/>
        <pt x="1050" y="540" on="0"/>
        <pt x="1126" y="540" on="1"/>
        <pt x="1228" y="540" on="0"/>
        <pt x="1349" y="431" on="0"/>
        <pt x="1349" y="346" on="1"/>
        <pt x="1349" y="289" on="0"/>
        <pt x="1298" y="207" on="0"/>
        <pt x="1240" y="179" on="1"/>
        <pt x="1415" y="-263" on="1"/>
        <pt x="1173" y="-347" on="1"/>
        <pt x="1068" y="-46" on="1"/>
        <pt x="952" y="-167" on="0"/>
        <pt x="666" y="-289" on="0"/>
        <pt x="495" y="-289" on="1"/>
        <pt x="299" y="-289" on="0"/>
        <pt x="68" y="-98" on="0"/>
        <pt x="68" y="68" on="1"/>
        <pt x="68" y="202" on="0"/>
        <pt x="234" y="392" on="0"/>
        <pt x="381" y="423" on="1"/>
        <pt x="364" y="480" on="0"/>
      </contour>
      <contour>
        <pt x="897" y="130" on="1"/>
        <pt x="782" y="130" on="0"/>
        <pt x="589" y="182" on="0"/>
        <pt x="525" y="227" on="1"/>
        <pt x="487" y="224" on="0"/>
        <pt x="455" y="218" on="1"/>
        <pt x="747" y="-16" on="1"/>
        <pt x="833" y="35" on="0"/>
        <pt x="917" y="130" on="1"/>
      </contour>
      <contour>
        <pt x="596" y="-75" on="1"/>
        <pt x="331" y="142" on="1"/>
        <pt x="313" y="109" on="0"/>
        <pt x="313" y="67" on="1"/>
        <pt x="313" y="-7" on="0"/>
        <pt x="419" y="-82" on="0"/>
        <pt x="522" y="-82" on="1"/>
        <pt x="554" y="-82" on="0"/>
      </contour>
      <contour>
        <pt x="849" y="1274" on="1"/>
      </contour>
      <contour>
        <pt x="1131" y="0" on="1"/>
      </contour>
      <contour>
        <pt x="985" y="-806" on="1"/>
      </contour>
      <contour>
        <pt x="976" y="-257" on="1"/>
      </contour>
    </TTGlyph>
    <TTGlyph name="dabhaaltdeva" xMin="0" yMin="-187" xMax="1863" yMax="1274">
      <contour>
        <pt x="766" y="620" on="1"/>
        <pt x="766" y="766" on="0"/>
        <pt x="1014" y="937" on="0"/>
        <pt x="1251" y="948" on="1"/>
        <pt x="1251" y="1048" on="1"/>
        <pt x="0" y="1048" on="1"/>
        <pt x="0" y="1274" on="1"/>
        <pt x="1863" y="1274" on="1"/>
        <pt x="1863" y="1048" on="1"/>
        <pt x="1525" y="1048" on="1"/>
        <pt x="1525" y="742" on="1"/>
        <pt x="1420" y="742" on="1"/>
        <pt x="1258" y="742" on="0"/>
        <pt x="1110" y="709" on="0"/>
        <pt x="1040" y="646" on="0"/>
        <pt x="1040" y="600" on="1"/>
        <pt x="1040" y="530" on="0"/>
        <pt x="1181" y="457" on="0"/>
        <pt x="1321" y="457" on="1"/>
        <pt x="1337" y="457" on="1"/>
        <pt x="1346" y="457" on="0"/>
        <pt x="1357" y="458" on="1"/>
        <pt x="1355" y="473" on="0"/>
        <pt x="1355" y="499" on="1"/>
        <pt x="1355" y="558" on="0"/>
        <pt x="1453" y="625" on="0"/>
        <pt x="1528" y="625" on="1"/>
        <pt x="1630" y="625" on="0"/>
        <pt x="1751" y="526" on="0"/>
        <pt x="1751" y="449" on="1"/>
        <pt x="1751" y="397" on="0"/>
        <pt x="1701" y="325" on="0"/>
        <pt x="1644" y="299" on="1"/>
        <pt x="1790" y="-69" on="1"/>
        <pt x="1548" y="-141" on="1"/>
        <pt x="1413" y="251" on="1"/>
        <pt x="879" y="32" on="1"/>
        <pt x="887" y="10" on="1"/>
        <pt x="906" y="-42" on="0"/>
        <pt x="906" y="-70" on="1"/>
        <pt x="906" y="-122" on="0"/>
        <pt x="825" y="-187" on="0"/>
        <pt x="762" y="-187" on="1"/>
        <pt x="700" y="-187" on="0"/>
        <pt x="549" y="-125" on="0"/>
        <pt x="458" y="-32" on="0"/>
        <pt x="458" y="24" on="1"/>
        <pt x="458" y="89" on="0"/>
        <pt x="547" y="125" on="1"/>
        <pt x="564" y="132" on="1"/>
        <pt x="484" y="331" on="1"/>
        <pt x="446" y="424" on="0"/>
        <pt x="384" y="480" on="0"/>
        <pt x="343" y="480" on="1"/>
        <pt x="304" y="480" on="0"/>
        <pt x="259" y="438" on="0"/>
        <pt x="259" y="405" on="1"/>
        <pt x="259" y="369" on="0"/>
        <pt x="298" y="330" on="0"/>
        <pt x="330" y="330" on="1"/>
        <pt x="376" y="330" on="0"/>
        <pt x="412" y="346" on="1"/>
        <pt x="467" y="184" on="1"/>
        <pt x="393" y="157" on="0"/>
        <pt x="296" y="157" on="1"/>
        <pt x="188" y="157" on="0"/>
        <pt x="52" y="291" on="0"/>
        <pt x="52" y="398" on="1"/>
        <pt x="52" y="525" on="0"/>
        <pt x="230" y="670" on="0"/>
        <pt x="373" y="670" on="1"/>
        <pt x="512" y="670" on="0"/>
        <pt x="670" y="549" on="0"/>
        <pt x="731" y="397" on="1"/>
        <pt x="800" y="226" on="1"/>
        <pt x="1005" y="307" on="1"/>
        <pt x="889" y="349" on="0"/>
        <pt x="766" y="508" on="0"/>
      </contour>
      <contour>
        <pt x="1251" y="1274" on="1"/>
      </contour>
      <contour>
        <pt x="1511" y="0" on="1"/>
      </contour>
    </TTGlyph>
    <TTGlyph name="dabhadeva" xMin="0" yMin="-806" xMax="1806" yMax="1274">
      <contour>
        <pt x="709" y="551" on="1"/>
        <pt x="709" y="722" on="0"/>
        <pt x="962" y="919" on="0"/>
        <pt x="1194" y="931" on="1"/>
        <pt x="1194" y="1048" on="1"/>
        <pt x="0" y="1048" on="1"/>
        <pt x="0" y="1274" on="1"/>
        <pt x="1806" y="1274" on="1"/>
        <pt x="1806" y="1048" on="1"/>
        <pt x="1468" y="1048" on="1"/>
        <pt x="1468" y="707" on="1"/>
        <pt x="1363" y="707" on="1"/>
        <pt x="1237" y="707" on="0"/>
        <pt x="1109" y="686" on="0"/>
        <pt x="1022" y="639" on="0"/>
        <pt x="983" y="575" on="0"/>
        <pt x="983" y="532" on="1"/>
        <pt x="983" y="443" on="0"/>
        <pt x="1123" y="354" on="0"/>
        <pt x="1264" y="354" on="1"/>
        <pt x="1286" y="354" on="0"/>
        <pt x="1300" y="356" on="1"/>
        <pt x="1298" y="371" on="0"/>
        <pt x="1298" y="399" on="1"/>
        <pt x="1298" y="465" on="0"/>
        <pt x="1395" y="540" on="0"/>
        <pt x="1471" y="540" on="1"/>
        <pt x="1573" y="540" on="0"/>
        <pt x="1694" y="431" on="0"/>
        <pt x="1694" y="346" on="1"/>
        <pt x="1694" y="289" on="0"/>
        <pt x="1643" y="207" on="0"/>
        <pt x="1585" y="179" on="1"/>
        <pt x="1760" y="-263" on="1"/>
        <pt x="1518" y="-348" on="1"/>
        <pt x="1393" y="13" on="1"/>
        <pt x="879" y="-198" on="1"/>
        <pt x="887" y="-220" on="1"/>
        <pt x="906" y="-272" on="0"/>
        <pt x="906" y="-300" on="1"/>
        <pt x="906" y="-352" on="0"/>
        <pt x="825" y="-417" on="0"/>
        <pt x="762" y="-417" on="1"/>
        <pt x="700" y="-417" on="0"/>
        <pt x="549" y="-355" on="0"/>
        <pt x="458" y="-262" on="0"/>
        <pt x="458" y="-206" on="1"/>
        <pt x="458" y="-141" on="0"/>
        <pt x="547" y="-105" on="1"/>
        <pt x="564" y="-98" on="1"/>
        <pt x="484" y="101" on="1"/>
        <pt x="446" y="194" on="0"/>
        <pt x="384" y="250" on="0"/>
        <pt x="343" y="250" on="1"/>
        <pt x="304" y="250" on="0"/>
        <pt x="259" y="208" on="0"/>
        <pt x="259" y="175" on="1"/>
        <pt x="259" y="139" on="0"/>
        <pt x="298" y="100" on="0"/>
        <pt x="330" y="100" on="1"/>
        <pt x="376" y="100" on="0"/>
        <pt x="412" y="116" on="1"/>
        <pt x="467" y="-46" on="1"/>
        <pt x="393" y="-73" on="0"/>
        <pt x="296" y="-73" on="1"/>
        <pt x="188" y="-73" on="0"/>
        <pt x="52" y="61" on="0"/>
        <pt x="52" y="168" on="1"/>
        <pt x="52" y="295" on="0"/>
        <pt x="230" y="440" on="0"/>
        <pt x="373" y="440" on="1"/>
        <pt x="512" y="440" on="0"/>
        <pt x="670" y="319" on="0"/>
        <pt x="731" y="167" on="1"/>
        <pt x="800" y="-4" on="1"/>
        <pt x="1164" y="140" on="1"/>
        <pt x="949" y="158" on="0"/>
        <pt x="709" y="369" on="0"/>
      </contour>
      <contour>
        <pt x="1194" y="1274" on="1"/>
      </contour>
      <contour>
        <pt x="1476" y="0" on="1"/>
      </contour>
      <contour>
        <pt x="1308" y="130" on="1"/>
      </contour>
      <contour>
        <pt x="1185" y="-806" on="1"/>
      </contour>
      <contour>
        <pt x="1176" y="-257" on="1"/>
      </contour>
    </TTGlyph>
    <TTGlyph name="dadaaltdeva" xMin="0" yMin="-138" xMax="1226" yMax="1274">
      <contour>
        <pt x="775" y="480" on="1"/>
        <pt x="711" y="487" on="0"/>
        <pt x="647" y="487" on="1"/>
        <pt x="426" y="487" on="0"/>
        <pt x="426" y="386" on="1"/>
        <pt x="426" y="333" on="0"/>
        <pt x="553" y="284" on="0"/>
        <pt x="688" y="284" on="1"/>
        <pt x="708" y="284" on="1"/>
        <pt x="716" y="284" on="0"/>
        <pt x="724" y="285" on="1"/>
        <pt x="721" y="296" on="0"/>
        <pt x="721" y="319" on="1"/>
        <pt x="721" y="375" on="0"/>
        <pt x="817" y="439" on="0"/>
        <pt x="894" y="439" on="1"/>
        <pt x="997" y="439" on="0"/>
        <pt x="1117" y="350" on="0"/>
        <pt x="1117" y="282" on="1"/>
        <pt x="1117" y="184" on="0"/>
        <pt x="1009" y="141" on="1"/>
        <pt x="1052" y="68" on="0"/>
        <pt x="1131" y="-44" on="1"/>
        <pt x="910" y="-138" on="1"/>
        <pt x="856" y="-54" on="0"/>
        <pt x="787" y="99" on="1"/>
        <pt x="755" y="93" on="0"/>
        <pt x="679" y="93" on="1"/>
        <pt x="428" y="93" on="0"/>
        <pt x="152" y="246" on="0"/>
        <pt x="152" y="393" on="1"/>
        <pt x="152" y="475" on="0"/>
        <pt x="216" y="539" on="1"/>
        <pt x="84" y="625" on="0"/>
        <pt x="84" y="744" on="1"/>
        <pt x="84" y="798" on="0"/>
        <pt x="135" y="877" on="0"/>
        <pt x="233" y="932" on="0"/>
        <pt x="368" y="955" on="0"/>
        <pt x="488" y="955" on="1"/>
        <pt x="637" y="955" on="1"/>
        <pt x="637" y="1048" on="1"/>
        <pt x="0" y="1048" on="1"/>
        <pt x="0" y="1274" on="1"/>
        <pt x="1226" y="1274" on="1"/>
        <pt x="1226" y="1048" on="1"/>
        <pt x="910" y="1048" on="1"/>
        <pt x="910" y="762" on="1"/>
        <pt x="491" y="762" on="1"/>
        <pt x="428" y="762" on="0"/>
        <pt x="380" y="748" on="0"/>
        <pt x="352" y="719" on="0"/>
        <pt x="352" y="699" on="1"/>
        <pt x="352" y="669" on="0"/>
        <pt x="396" y="638" on="1"/>
        <pt x="499" y="670" on="0"/>
        <pt x="604" y="670" on="1"/>
        <pt x="711" y="670" on="0"/>
        <pt x="793" y="661" on="1"/>
      </contour>
      <contour>
        <pt x="637" y="1274" on="1"/>
      </contour>
    </TTGlyph>
    <TTGlyph name="dadadeva" xMin="0" yMin="-806" xMax="1226" yMax="1274">
      <contour>
        <pt x="775" y="358" on="1"/>
        <pt x="709" y="366" on="0"/>
        <pt x="647" y="366" on="1"/>
        <pt x="426" y="366" on="0"/>
        <pt x="426" y="232" on="1"/>
        <pt x="426" y="162" on="0"/>
        <pt x="554" y="96" on="0"/>
        <pt x="688" y="96" on="1"/>
        <pt x="708" y="96" on="1"/>
        <pt x="717" y="96" on="0"/>
        <pt x="724" y="97" on="1"/>
        <pt x="721" y="123" on="0"/>
        <pt x="721" y="141" on="1"/>
        <pt x="721" y="207" on="0"/>
        <pt x="818" y="282" on="0"/>
        <pt x="894" y="282" on="1"/>
        <pt x="998" y="282" on="0"/>
        <pt x="1117" y="175" on="0"/>
        <pt x="1117" y="88" on="1"/>
        <pt x="1117" y="-36" on="0"/>
        <pt x="1008" y="-78" on="1"/>
        <pt x="1066" y="-184" on="0"/>
        <pt x="1145" y="-285" on="1"/>
        <pt x="923" y="-380" on="1"/>
        <pt x="852" y="-267" on="0"/>
        <pt x="785" y="-122" on="1"/>
        <pt x="756" y="-128" on="0"/>
        <pt x="679" y="-128" on="1"/>
        <pt x="429" y="-128" on="0"/>
        <pt x="152" y="59" on="0"/>
        <pt x="152" y="240" on="1"/>
        <pt x="152" y="341" on="0"/>
        <pt x="215" y="419" on="1"/>
        <pt x="84" y="524" on="0"/>
        <pt x="84" y="672" on="1"/>
        <pt x="84" y="740" on="0"/>
        <pt x="137" y="838" on="0"/>
        <pt x="236" y="905" on="0"/>
        <pt x="370" y="933" on="0"/>
        <pt x="488" y="933" on="1"/>
        <pt x="637" y="933" on="1"/>
        <pt x="637" y="1048" on="1"/>
        <pt x="0" y="1048" on="1"/>
        <pt x="0" y="1274" on="1"/>
        <pt x="1226" y="1274" on="1"/>
        <pt x="1226" y="1048" on="1"/>
        <pt x="910" y="1048" on="1"/>
        <pt x="910" y="722" on="1"/>
        <pt x="491" y="722" on="1"/>
        <pt x="436" y="722" on="0"/>
        <pt x="386" y="706" on="0"/>
        <pt x="352" y="664" on="0"/>
        <pt x="352" y="632" on="1"/>
        <pt x="352" y="585" on="0"/>
        <pt x="400" y="543" on="1"/>
        <pt x="501" y="580" on="0"/>
        <pt x="604" y="580" on="1"/>
        <pt x="703" y="580" on="0"/>
        <pt x="793" y="569" on="1"/>
      </contour>
      <contour>
        <pt x="637" y="1274" on="1"/>
      </contour>
      <contour>
        <pt x="852" y="0" on="1"/>
      </contour>
      <contour>
        <pt x="665" y="-806" on="1"/>
      </contour>
      <contour>
        <pt x="656" y="-257" on="1"/>
      </contour>
    </TTGlyph>
    <TTGlyph name="dadeva" xMin="0" yMin="-140" xMax="1172" yMax="1274">
      <contour>
        <pt x="75" y="551" on="1"/>
        <pt x="75" y="722" on="0"/>
        <pt x="328" y="919" on="0"/>
        <pt x="560" y="931" on="1"/>
        <pt x="560" y="1048" on="1"/>
        <pt x="0" y="1048" on="1"/>
        <pt x="0" y="1274" on="1"/>
        <pt x="1172" y="1274" on="1"/>
        <pt x="1172" y="1048" on="1"/>
        <pt x="834" y="1048" on="1"/>
        <pt x="834" y="707" on="1"/>
        <pt x="729" y="707" on="1"/>
        <pt x="603" y="707" on="0"/>
        <pt x="475" y="686" on="0"/>
        <pt x="388" y="639" on="0"/>
        <pt x="349" y="575" on="0"/>
        <pt x="349" y="532" on="1"/>
        <pt x="349" y="443" on="0"/>
        <pt x="489" y="354" on="0"/>
        <pt x="630" y="354" on="1"/>
        <pt x="653" y="354" on="0"/>
        <pt x="667" y="356" on="1"/>
        <pt x="664" y="380" on="0"/>
        <pt x="664" y="399" on="1"/>
        <pt x="664" y="465" on="0"/>
        <pt x="761" y="540" on="0"/>
        <pt x="837" y="540" on="1"/>
        <pt x="939" y="540" on="0"/>
        <pt x="1060" y="431" on="0"/>
        <pt x="1060" y="346" on="1"/>
        <pt x="1060" y="286" on="0"/>
        <pt x="1011" y="206" on="0"/>
        <pt x="951" y="178" on="1"/>
        <pt x="998" y="92" on="0"/>
        <pt x="1098" y="-40" on="1"/>
        <pt x="875" y="-140" on="1"/>
        <pt x="804" y="-26" on="0"/>
        <pt x="729" y="136" on="1"/>
        <pt x="702" y="130" on="0"/>
        <pt x="608" y="130" on="1"/>
        <pt x="366" y="130" on="0"/>
        <pt x="75" y="348" on="0"/>
      </contour>
      <contour>
        <pt x="560" y="1274" on="1"/>
      </contour>
      <contour>
        <pt x="827" y="0" on="1"/>
      </contour>
    </TTGlyph>
    <TTGlyph name="dadhadeva" xMin="0" yMin="-806" xMax="1795" yMax="1274">
      <contour>
        <pt x="1403" y="-48" on="1"/>
        <pt x="1265" y="-198" on="0"/>
        <pt x="940" y="-348" on="0"/>
        <pt x="753" y="-348" on="1"/>
        <pt x="568" y="-348" on="0"/>
        <pt x="353" y="-188" on="0"/>
        <pt x="353" y="-54" on="1"/>
        <pt x="353" y="-1" on="0"/>
        <pt x="376" y="48" on="1"/>
        <pt x="223" y="88" on="0"/>
        <pt x="64" y="257" on="0"/>
        <pt x="64" y="380" on="1"/>
        <pt x="64" y="508" on="0"/>
        <pt x="244" y="679" on="0"/>
        <pt x="383" y="679" on="1"/>
        <pt x="511" y="679" on="0"/>
        <pt x="668" y="557" on="0"/>
        <pt x="668" y="461" on="1"/>
        <pt x="668" y="354" on="0"/>
        <pt x="597" y="274" on="1"/>
        <pt x="428" y="367" on="1"/>
        <pt x="454" y="399" on="0"/>
        <pt x="454" y="433" on="1"/>
        <pt x="454" y="460" on="0"/>
        <pt x="421" y="491" on="0"/>
        <pt x="392" y="491" on="1"/>
        <pt x="350" y="491" on="0"/>
        <pt x="295" y="427" on="0"/>
        <pt x="295" y="377" on="1"/>
        <pt x="295" y="305" on="0"/>
        <pt x="424" y="223" on="0"/>
        <pt x="544" y="215" on="1"/>
        <pt x="609" y="245" on="0"/>
        <pt x="708" y="245" on="1"/>
        <pt x="762" y="245" on="0"/>
        <pt x="801" y="237" on="1"/>
        <pt x="780" y="41" on="1"/>
        <pt x="759" y="44" on="0"/>
        <pt x="721" y="44" on="1"/>
        <pt x="665" y="44" on="0"/>
        <pt x="601" y="-1" on="0"/>
        <pt x="601" y="-37" on="1"/>
        <pt x="601" y="-82" on="0"/>
        <pt x="680" y="-135" on="0"/>
        <pt x="761" y="-135" on="1"/>
        <pt x="892" y="-135" on="0"/>
        <pt x="1137" y="-2" on="0"/>
        <pt x="1251" y="130" on="1"/>
        <pt x="1231" y="130" on="1"/>
        <pt x="989" y="130" on="0"/>
        <pt x="698" y="348" on="0"/>
        <pt x="698" y="551" on="1"/>
        <pt x="698" y="722" on="0"/>
        <pt x="951" y="919" on="0"/>
        <pt x="1183" y="931" on="1"/>
        <pt x="1183" y="1048" on="1"/>
        <pt x="0" y="1048" on="1"/>
        <pt x="0" y="1274" on="1"/>
        <pt x="1795" y="1274" on="1"/>
        <pt x="1795" y="1048" on="1"/>
        <pt x="1457" y="1048" on="1"/>
        <pt x="1457" y="707" on="1"/>
        <pt x="1352" y="707" on="1"/>
        <pt x="1226" y="707" on="0"/>
        <pt x="1098" y="686" on="0"/>
        <pt x="1011" y="639" on="0"/>
        <pt x="972" y="575" on="0"/>
        <pt x="972" y="532" on="1"/>
        <pt x="972" y="443" on="0"/>
        <pt x="1112" y="354" on="0"/>
        <pt x="1253" y="354" on="1"/>
        <pt x="1275" y="354" on="0"/>
        <pt x="1289" y="356" on="1"/>
        <pt x="1287" y="371" on="0"/>
        <pt x="1287" y="399" on="1"/>
        <pt x="1287" y="465" on="0"/>
        <pt x="1384" y="540" on="0"/>
        <pt x="1460" y="540" on="1"/>
        <pt x="1562" y="540" on="0"/>
        <pt x="1683" y="431" on="0"/>
        <pt x="1683" y="346" on="1"/>
        <pt x="1683" y="289" on="0"/>
        <pt x="1632" y="207" on="0"/>
        <pt x="1574" y="179" on="1"/>
        <pt x="1749" y="-263" on="1"/>
        <pt x="1507" y="-348" on="1"/>
      </contour>
      <contour>
        <pt x="1183" y="1274" on="1"/>
      </contour>
      <contour>
        <pt x="1465" y="0" on="1"/>
      </contour>
      <contour>
        <pt x="1285" y="-806" on="1"/>
      </contour>
      <contour>
        <pt x="1276" y="-257" on="1"/>
      </contour>
    </TTGlyph>
    <TTGlyph name="dadhayadeva" xMin="0" yMin="-806" xMax="2472" yMax="1274">
      <contour>
        <pt x="1443" y="-1" on="1"/>
        <pt x="1304" y="-172" on="0"/>
        <pt x="954" y="-348" on="0"/>
        <pt x="753" y="-348" on="1"/>
        <pt x="568" y="-348" on="0"/>
        <pt x="353" y="-188" on="0"/>
        <pt x="353" y="-54" on="1"/>
        <pt x="353" y="-1" on="0"/>
        <pt x="376" y="48" on="1"/>
        <pt x="223" y="88" on="0"/>
        <pt x="64" y="257" on="0"/>
        <pt x="64" y="380" on="1"/>
        <pt x="64" y="508" on="0"/>
        <pt x="244" y="679" on="0"/>
        <pt x="383" y="679" on="1"/>
        <pt x="511" y="679" on="0"/>
        <pt x="668" y="557" on="0"/>
        <pt x="668" y="461" on="1"/>
        <pt x="668" y="354" on="0"/>
        <pt x="597" y="274" on="1"/>
        <pt x="428" y="367" on="1"/>
        <pt x="454" y="399" on="0"/>
        <pt x="454" y="433" on="1"/>
        <pt x="454" y="460" on="0"/>
        <pt x="421" y="491" on="0"/>
        <pt x="392" y="491" on="1"/>
        <pt x="350" y="491" on="0"/>
        <pt x="295" y="427" on="0"/>
        <pt x="295" y="377" on="1"/>
        <pt x="295" y="305" on="0"/>
        <pt x="424" y="223" on="0"/>
        <pt x="544" y="215" on="1"/>
        <pt x="609" y="245" on="0"/>
        <pt x="708" y="245" on="1"/>
        <pt x="762" y="245" on="0"/>
        <pt x="801" y="237" on="1"/>
        <pt x="780" y="41" on="1"/>
        <pt x="759" y="44" on="0"/>
        <pt x="721" y="44" on="1"/>
        <pt x="665" y="44" on="0"/>
        <pt x="601" y="-1" on="0"/>
        <pt x="601" y="-37" on="1"/>
        <pt x="601" y="-82" on="0"/>
        <pt x="680" y="-135" on="0"/>
        <pt x="761" y="-135" on="1"/>
        <pt x="892" y="-135" on="0"/>
        <pt x="1137" y="-2" on="0"/>
        <pt x="1251" y="130" on="1"/>
        <pt x="1231" y="130" on="1"/>
        <pt x="989" y="130" on="0"/>
        <pt x="698" y="348" on="0"/>
        <pt x="698" y="551" on="1"/>
        <pt x="698" y="722" on="0"/>
        <pt x="951" y="919" on="0"/>
        <pt x="1183" y="931" on="1"/>
        <pt x="1183" y="1048" on="1"/>
        <pt x="0" y="1048" on="1"/>
        <pt x="0" y="1274" on="1"/>
        <pt x="2472" y="1274" on="1"/>
        <pt x="2472" y="1048" on="1"/>
        <pt x="2279" y="1048" on="1"/>
        <pt x="2279" y="-306" on="1"/>
        <pt x="2005" y="-306" on="1"/>
        <pt x="2005" y="-58" on="1"/>
        <pt x="1956" y="-91" on="0"/>
        <pt x="1821" y="-130" on="0"/>
        <pt x="1754" y="-130" on="1"/>
        <pt x="1667" y="-130" on="0"/>
        <pt x="1507" y="-65" on="0"/>
      </contour>
      <contour>
        <pt x="2005" y="235" on="1"/>
        <pt x="2005" y="1048" on="1"/>
        <pt x="1457" y="1048" on="1"/>
        <pt x="1457" y="707" on="1"/>
        <pt x="1352" y="707" on="1"/>
        <pt x="1226" y="707" on="0"/>
        <pt x="1098" y="686" on="0"/>
        <pt x="1011" y="639" on="0"/>
        <pt x="972" y="575" on="0"/>
        <pt x="972" y="532" on="1"/>
        <pt x="972" y="443" on="0"/>
        <pt x="1112" y="354" on="0"/>
        <pt x="1253" y="354" on="1"/>
        <pt x="1275" y="354" on="0"/>
        <pt x="1289" y="356" on="1"/>
        <pt x="1287" y="371" on="0"/>
        <pt x="1287" y="399" on="1"/>
        <pt x="1287" y="465" on="0"/>
        <pt x="1384" y="540" on="0"/>
        <pt x="1460" y="540" on="1"/>
        <pt x="1562" y="540" on="0"/>
        <pt x="1683" y="431" on="0"/>
        <pt x="1683" y="346" on="1"/>
        <pt x="1683" y="233" on="0"/>
        <pt x="1580" y="182" on="1"/>
        <pt x="1637" y="104" on="0"/>
        <pt x="1752" y="104" on="1"/>
        <pt x="1895" y="104" on="0"/>
      </contour>
      <contour>
        <pt x="1285" y="-806" on="1"/>
      </contour>
      <contour>
        <pt x="1276" y="-257" on="1"/>
      </contour>
      <contour>
        <pt x="1507" y="-348" on="1"/>
      </contour>
    </TTGlyph>
    <TTGlyph name="dagadeva" xMin="0" yMin="-806" xMax="1172" yMax="1274">
      <contour>
        <pt x="75" y="551" on="1"/>
        <pt x="75" y="722" on="0"/>
        <pt x="328" y="919" on="0"/>
        <pt x="560" y="931" on="1"/>
        <pt x="560" y="1048" on="1"/>
        <pt x="0" y="1048" on="1"/>
        <pt x="0" y="1274" on="1"/>
        <pt x="1172" y="1274" on="1"/>
        <pt x="1172" y="1048" on="1"/>
        <pt x="834" y="1048" on="1"/>
        <pt x="834" y="707" on="1"/>
        <pt x="729" y="707" on="1"/>
        <pt x="603" y="707" on="0"/>
        <pt x="475" y="686" on="0"/>
        <pt x="388" y="639" on="0"/>
        <pt x="349" y="575" on="0"/>
        <pt x="349" y="532" on="1"/>
        <pt x="349" y="443" on="0"/>
        <pt x="489" y="354" on="0"/>
        <pt x="630" y="354" on="1"/>
        <pt x="652" y="354" on="0"/>
        <pt x="666" y="356" on="1"/>
        <pt x="664" y="371" on="0"/>
        <pt x="664" y="399" on="1"/>
        <pt x="664" y="465" on="0"/>
        <pt x="761" y="540" on="0"/>
        <pt x="837" y="540" on="1"/>
        <pt x="939" y="540" on="0"/>
        <pt x="1060" y="431" on="0"/>
        <pt x="1060" y="346" on="1"/>
        <pt x="1060" y="289" on="0"/>
        <pt x="1009" y="207" on="0"/>
        <pt x="951" y="179" on="1"/>
        <pt x="1126" y="-263" on="1"/>
        <pt x="884" y="-347" on="1"/>
        <pt x="717" y="134" on="1"/>
        <pt x="656" y="130" on="0"/>
        <pt x="608" y="130" on="1"/>
        <pt x="550" y="130" on="0"/>
        <pt x="511" y="135" on="1"/>
        <pt x="511" y="-196" on="1"/>
        <pt x="511" y="-267" on="0"/>
        <pt x="449" y="-335" on="0"/>
        <pt x="383" y="-335" on="1"/>
        <pt x="327" y="-335" on="0"/>
        <pt x="195" y="-249" on="0"/>
        <pt x="106" y="-121" on="0"/>
        <pt x="106" y="-67" on="1"/>
        <pt x="106" y="-2" on="0"/>
        <pt x="172" y="55" on="0"/>
        <pt x="236" y="55" on="1"/>
        <pt x="271" y="55" on="1"/>
        <pt x="271" y="205" on="1"/>
        <pt x="173" y="260" on="0"/>
        <pt x="75" y="433" on="0"/>
      </contour>
      <contour>
        <pt x="560" y="1274" on="1"/>
      </contour>
      <contour>
        <pt x="871" y="0" on="1"/>
      </contour>
      <contour>
        <pt x="685" y="-806" on="1"/>
      </contour>
      <contour>
        <pt x="676" y="-257" on="1"/>
      </contour>
    </TTGlyph>
    <TTGlyph name="daghadeva" xMin="0" yMin="-806" xMax="1630" yMax="1274">
      <contour>
        <pt x="538" y="616" on="1"/>
        <pt x="559" y="753" on="0"/>
        <pt x="804" y="919" on="0"/>
        <pt x="1018" y="931" on="1"/>
        <pt x="1018" y="1048" on="1"/>
        <pt x="0" y="1048" on="1"/>
        <pt x="0" y="1274" on="1"/>
        <pt x="1630" y="1274" on="1"/>
        <pt x="1630" y="1048" on="1"/>
        <pt x="1292" y="1048" on="1"/>
        <pt x="1292" y="707" on="1"/>
        <pt x="1187" y="707" on="1"/>
        <pt x="1061" y="707" on="0"/>
        <pt x="933" y="686" on="0"/>
        <pt x="846" y="639" on="0"/>
        <pt x="807" y="575" on="0"/>
        <pt x="807" y="532" on="1"/>
        <pt x="807" y="443" on="0"/>
        <pt x="947" y="354" on="0"/>
        <pt x="1088" y="354" on="1"/>
        <pt x="1110" y="354" on="0"/>
        <pt x="1124" y="356" on="1"/>
        <pt x="1122" y="371" on="0"/>
        <pt x="1122" y="399" on="1"/>
        <pt x="1122" y="465" on="0"/>
        <pt x="1219" y="540" on="0"/>
        <pt x="1295" y="540" on="1"/>
        <pt x="1397" y="540" on="0"/>
        <pt x="1518" y="431" on="0"/>
        <pt x="1518" y="346" on="1"/>
        <pt x="1518" y="289" on="0"/>
        <pt x="1467" y="207" on="0"/>
        <pt x="1409" y="179" on="1"/>
        <pt x="1584" y="-263" on="1"/>
        <pt x="1342" y="-348" on="1"/>
        <pt x="1238" y="-48" on="1"/>
        <pt x="1100" y="-198" on="0"/>
        <pt x="775" y="-348" on="0"/>
        <pt x="588" y="-348" on="1"/>
        <pt x="403" y="-348" on="0"/>
        <pt x="188" y="-188" on="0"/>
        <pt x="188" y="-54" on="1"/>
        <pt x="188" y="32" on="0"/>
        <pt x="242" y="100" on="1"/>
        <pt x="62" y="189" on="0"/>
        <pt x="62" y="355" on="1"/>
        <pt x="62" y="478" on="0"/>
        <pt x="259" y="620" on="0"/>
        <pt x="438" y="620" on="1"/>
        <pt x="507" y="620" on="0"/>
      </contour>
      <contour>
        <pt x="1066" y="130" on="1"/>
        <pt x="873" y="130" on="0"/>
        <pt x="601" y="272" on="0"/>
        <pt x="554" y="410" on="1"/>
        <pt x="522" y="419" on="0"/>
        <pt x="467" y="419" on="1"/>
        <pt x="396" y="419" on="0"/>
        <pt x="319" y="373" on="0"/>
        <pt x="319" y="331" on="1"/>
        <pt x="319" y="293" on="0"/>
        <pt x="387" y="244" on="0"/>
        <pt x="451" y="237" on="1"/>
        <pt x="493" y="245" on="0"/>
        <pt x="543" y="245" on="1"/>
        <pt x="597" y="245" on="0"/>
        <pt x="636" y="237" on="1"/>
        <pt x="615" y="41" on="1"/>
        <pt x="594" y="44" on="0"/>
        <pt x="556" y="44" on="1"/>
        <pt x="500" y="44" on="0"/>
        <pt x="436" y="-1" on="0"/>
        <pt x="436" y="-37" on="1"/>
        <pt x="436" y="-82" on="0"/>
        <pt x="515" y="-135" on="0"/>
        <pt x="596" y="-135" on="1"/>
        <pt x="727" y="-135" on="0"/>
        <pt x="972" y="-2" on="0"/>
        <pt x="1086" y="130" on="1"/>
      </contour>
      <contour>
        <pt x="1018" y="1274" on="1"/>
      </contour>
      <contour>
        <pt x="1301" y="0" on="1"/>
      </contour>
      <contour>
        <pt x="1285" y="-806" on="1"/>
      </contour>
      <contour>
        <pt x="1276" y="-257" on="1"/>
      </contour>
    </TTGlyph>
    <TTGlyph name="damadeva" xMin="0" yMin="-10" xMax="1596" yMax="1274">
      <contour>
        <pt x="598" y="373" on="1"/>
        <pt x="595" y="411" on="0"/>
        <pt x="554" y="437" on="0"/>
        <pt x="499" y="437" on="1"/>
        <pt x="412" y="437" on="1"/>
        <pt x="237" y="437" on="0"/>
        <pt x="67" y="570" on="0"/>
        <pt x="67" y="685" on="1"/>
        <pt x="67" y="807" on="0"/>
        <pt x="238" y="933" on="0"/>
        <pt x="403" y="933" on="1"/>
        <pt x="494" y="933" on="1"/>
        <pt x="494" y="1048" on="1"/>
        <pt x="0" y="1048" on="1"/>
        <pt x="0" y="1274" on="1"/>
        <pt x="1596" y="1274" on="1"/>
        <pt x="1596" y="1048" on="1"/>
        <pt x="1403" y="1048" on="1"/>
        <pt x="1403" y="0" on="1"/>
        <pt x="1128" y="0" on="1"/>
        <pt x="1128" y="172" on="1"/>
        <pt x="853" y="172" on="1"/>
        <pt x="853" y="132" on="1"/>
        <pt x="853" y="60" on="0"/>
        <pt x="785" y="-10" on="0"/>
        <pt x="710" y="-10" on="1"/>
        <pt x="654" y="-10" on="0"/>
        <pt x="510" y="79" on="0"/>
        <pt x="414" y="206" on="0"/>
        <pt x="414" y="259" on="1"/>
        <pt x="414" y="373" on="0"/>
        <pt x="559" y="373" on="1"/>
      </contour>
      <contour>
        <pt x="767" y="1048" on="1"/>
        <pt x="767" y="732" on="1"/>
        <pt x="426" y="732" on="1"/>
        <pt x="375" y="732" on="0"/>
        <pt x="338" y="724" on="0"/>
        <pt x="315" y="698" on="0"/>
        <pt x="315" y="678" on="1"/>
        <pt x="315" y="660" on="0"/>
        <pt x="340" y="636" on="0"/>
        <pt x="383" y="628" on="0"/>
        <pt x="433" y="628" on="1"/>
        <pt x="548" y="628" on="1"/>
        <pt x="693" y="628" on="0"/>
        <pt x="838" y="502" on="0"/>
        <pt x="845" y="373" on="1"/>
        <pt x="1128" y="373" on="1"/>
        <pt x="1128" y="1048" on="1"/>
      </contour>
    </TTGlyph>
    <TTGlyph name="dandadeva" xMin="364" yMin="0" xMax="638" yMax="1274">
      <contour>
        <pt x="364" y="0" on="1"/>
        <pt x="364" y="1274" on="1"/>
        <pt x="638" y="1274" on="1"/>
        <pt x="638" y="0" on="1"/>
      </contour>
    </TTGlyph>
    <TTGlyph name="danuktadeva" xMin="0" yMin="-292" xMax="1172" yMax="1274">
      <component glyphName="dadeva" x="0" y="0" flags="0x204"/>
      <component glyphName="nuktadeva" x="1011" y="136" flags="0x4"/>
    </TTGlyph>
    <TTGlyph name="danuktaprehalfdeva" xMin="0" yMin="-548" xMax="1359" yMax="1274">
      <component glyphName="dadeva" x="0" y="0" flags="0x204"/>
      <component glyphName="viramadeva" x="1071" y="0" flags="0x4"/>
      <component glyphName="nuktadeva" x="891" y="156" flags="0x4"/>
    </TTGlyph>
    <TTGlyph name="danuktaradeva" xMin="0" yMin="-428" xMax="1172" yMax="1274">
      <component glyphName="daradeva" x="0" y="0" flags="0x204"/>
      <component glyphName="nuktadeva" x="1159" y="0" flags="0x4"/>
    </TTGlyph>
    <TTGlyph name="danuktaraprehalfdeva" xMin="0" yMin="-548" xMax="1359" yMax="1274">
      <component glyphName="daradeva" x="0" y="0" flags="0x204"/>
      <component glyphName="viramadeva" x="1071" y="0" flags="0x4"/>
      <component glyphName="nukta2deva" x="987" y="-72" flags="0x4"/>
    </TTGlyph>
    <TTGlyph name="danuktarvocalicdeva" xMin="0" yMin="-548" xMax="1272" yMax="1274">
      <component glyphName="darvocalicdeva" x="0" y="0" flags="0x204"/>
      <component glyphName="nuktadeva" x="941" y="136" flags="0x4"/>
    </TTGlyph>
    <TTGlyph name="danuktaudeva" xMin="0" yMin="-548" xMax="1219" yMax="1274">
      <contour>
        <pt x="75" y="551" on="1"/>
        <pt x="75" y="722" on="0"/>
        <pt x="328" y="919" on="0"/>
        <pt x="560" y="931" on="1"/>
        <pt x="560" y="1048" on="1"/>
        <pt x="0" y="1048" on="1"/>
        <pt x="0" y="1274" on="1"/>
        <pt x="1172" y="1274" on="1"/>
        <pt x="1172" y="1048" on="1"/>
        <pt x="834" y="1048" on="1"/>
        <pt x="834" y="707" on="1"/>
        <pt x="729" y="707" on="1"/>
        <pt x="603" y="707" on="0"/>
        <pt x="475" y="686" on="0"/>
        <pt x="388" y="639" on="0"/>
        <pt x="349" y="575" on="0"/>
        <pt x="349" y="532" on="1"/>
        <pt x="349" y="443" on="0"/>
        <pt x="489" y="354" on="0"/>
        <pt x="630" y="354" on="1"/>
        <pt x="653" y="354" on="0"/>
        <pt x="667" y="356" on="1"/>
        <pt x="664" y="380" on="0"/>
        <pt x="664" y="399" on="1"/>
        <pt x="664" y="465" on="0"/>
        <pt x="761" y="540" on="0"/>
        <pt x="837" y="540" on="1"/>
        <pt x="939" y="540" on="0"/>
        <pt x="1060" y="431" on="0"/>
        <pt x="1060" y="346" on="1"/>
        <pt x="1060" y="286" on="0"/>
        <pt x="1011" y="206" on="0"/>
        <pt x="951" y="178" on="1"/>
        <pt x="989" y="109" on="0"/>
        <pt x="1044" y="32" on="1"/>
        <pt x="1127" y="-3" on="0"/>
        <pt x="1219" y="-149" on="0"/>
        <pt x="1219" y="-248" on="1"/>
        <pt x="1219" y="-383" on="0"/>
        <pt x="1037" y="-548" on="0"/>
        <pt x="882" y="-548" on="1"/>
        <pt x="693" y="-548" on="0"/>
        <pt x="410" y="-403" on="0"/>
        <pt x="278" y="-238" on="1"/>
        <pt x="465" y="-104" on="1"/>
        <pt x="560" y="-227" on="0"/>
        <pt x="735" y="-342" on="0"/>
        <pt x="854" y="-342" on="1"/>
        <pt x="911" y="-342" on="0"/>
        <pt x="978" y="-287" on="0"/>
        <pt x="978" y="-240" on="1"/>
        <pt x="978" y="-194" on="0"/>
        <pt x="919" y="-145" on="0"/>
        <pt x="868" y="-145" on="1"/>
        <pt x="836" y="-145" on="0"/>
        <pt x="781" y="-157" on="0"/>
        <pt x="739" y="-174" on="1"/>
        <pt x="671" y="15" on="1"/>
        <pt x="727" y="36" on="0"/>
        <pt x="772" y="46" on="1"/>
        <pt x="760" y="69" on="0"/>
        <pt x="729" y="136" on="1"/>
        <pt x="702" y="130" on="0"/>
        <pt x="608" y="130" on="1"/>
        <pt x="366" y="130" on="0"/>
        <pt x="75" y="348" on="0"/>
      </contour>
      <contour>
        <pt x="226" y="126" on="1"/>
        <pt x="280" y="126" on="0"/>
        <pt x="353" y="52" on="0"/>
        <pt x="353" y="-4" on="1"/>
        <pt x="353" y="-60" on="0"/>
        <pt x="280" y="-134" on="0"/>
        <pt x="226" y="-134" on="1"/>
        <pt x="172" y="-134" on="0"/>
        <pt x="98" y="-60" on="0"/>
        <pt x="98" y="-4" on="1"/>
        <pt x="98" y="52" on="0"/>
        <pt x="172" y="126" on="0"/>
      </contour>
      <contour>
        <pt x="560" y="1274" on="1"/>
      </contour>
      <contour>
        <pt x="1096" y="61" on="1"/>
      </contour>
    </TTGlyph>
    <TTGlyph name="danuktauudeva" xMin="0" yMin="-548" xMax="1465" yMax="1274">
      <component glyphName="dadeva" x="0" y="0" flags="0x204"/>
      <component glyphName="uuvowelsigndeva" x="1192" y="0" flags="0x4"/>
      <component glyphName="nuktasmalldeva" x="815" y="247" flags="0x4"/>
    </TTGlyph>
    <TTGlyph name="daprehalfdeva" xMin="0" yMin="-548" xMax="1359" yMax="1274">
      <component glyphName="dadeva" x="0" y="0" flags="0x204"/>
      <component glyphName="viramadeva" x="1071" y="0" flags="0x4"/>
    </TTGlyph>
    <TTGlyph name="daradeva" xMin="0" yMin="-181" xMax="1172" yMax="1274">
      <contour>
        <pt x="75" y="551" on="1"/>
        <pt x="75" y="722" on="0"/>
        <pt x="328" y="919" on="0"/>
        <pt x="560" y="931" on="1"/>
        <pt x="560" y="1048" on="1"/>
        <pt x="0" y="1048" on="1"/>
        <pt x="0" y="1274" on="1"/>
        <pt x="1172" y="1274" on="1"/>
        <pt x="1172" y="1048" on="1"/>
        <pt x="834" y="1048" on="1"/>
        <pt x="834" y="707" on="1"/>
        <pt x="729" y="707" on="1"/>
        <pt x="603" y="707" on="0"/>
        <pt x="475" y="686" on="0"/>
        <pt x="388" y="639" on="0"/>
        <pt x="349" y="575" on="0"/>
        <pt x="349" y="532" on="1"/>
        <pt x="349" y="443" on="0"/>
        <pt x="489" y="354" on="0"/>
        <pt x="630" y="354" on="1"/>
        <pt x="653" y="354" on="0"/>
        <pt x="667" y="356" on="1"/>
        <pt x="664" y="380" on="0"/>
        <pt x="664" y="399" on="1"/>
        <pt x="664" y="465" on="0"/>
        <pt x="761" y="540" on="0"/>
        <pt x="837" y="540" on="1"/>
        <pt x="939" y="540" on="0"/>
        <pt x="1060" y="431" on="0"/>
        <pt x="1060" y="346" on="1"/>
        <pt x="1060" y="286" on="0"/>
        <pt x="1011" y="206" on="0"/>
        <pt x="951" y="178" on="1"/>
        <pt x="998" y="92" on="0"/>
        <pt x="1098" y="-40" on="1"/>
        <pt x="875" y="-140" on="1"/>
        <pt x="790" y="-2" on="0"/>
        <pt x="723" y="145" on="1"/>
        <pt x="193" y="-181" on="1"/>
        <pt x="53" y="10" on="1"/>
        <pt x="367" y="172" on="1"/>
        <pt x="221" y="217" on="0"/>
        <pt x="75" y="406" on="0"/>
      </contour>
      <contour>
        <pt x="560" y="1274" on="1"/>
      </contour>
      <contour>
        <pt x="827" y="0" on="1"/>
      </contour>
      <contour>
        <pt x="608" y="130" on="1"/>
      </contour>
    </TTGlyph>
    <TTGlyph name="daraprehalfdeva" xMin="0" yMin="-548" xMax="1359" yMax="1274">
      <component glyphName="daradeva" x="0" y="0" flags="0x204"/>
      <component glyphName="viramadeva" x="1071" y="0" flags="0x4"/>
    </TTGlyph>
    <TTGlyph name="darvocalicdeva" xMin="0" yMin="-548" xMax="1272" yMax="1274">
      <contour>
        <pt x="75" y="551" on="1"/>
        <pt x="75" y="722" on="0"/>
        <pt x="328" y="919" on="0"/>
        <pt x="560" y="931" on="1"/>
        <pt x="560" y="1048" on="1"/>
        <pt x="0" y="1048" on="1"/>
        <pt x="0" y="1274" on="1"/>
        <pt x="1172" y="1274" on="1"/>
        <pt x="1172" y="1048" on="1"/>
        <pt x="834" y="1048" on="1"/>
        <pt x="834" y="707" on="1"/>
        <pt x="729" y="707" on="1"/>
        <pt x="603" y="707" on="0"/>
        <pt x="475" y="686" on="0"/>
        <pt x="388" y="639" on="0"/>
        <pt x="349" y="575" on="0"/>
        <pt x="349" y="532" on="1"/>
        <pt x="349" y="443" on="0"/>
        <pt x="489" y="354" on="0"/>
        <pt x="630" y="354" on="1"/>
        <pt x="653" y="354" on="0"/>
        <pt x="667" y="356" on="1"/>
        <pt x="664" y="380" on="0"/>
        <pt x="664" y="399" on="1"/>
        <pt x="664" y="465" on="0"/>
        <pt x="761" y="540" on="0"/>
        <pt x="837" y="540" on="1"/>
        <pt x="939" y="540" on="0"/>
        <pt x="1060" y="431" on="0"/>
        <pt x="1060" y="346" on="1"/>
        <pt x="1060" y="286" on="0"/>
        <pt x="1011" y="206" on="0"/>
        <pt x="951" y="178" on="1"/>
        <pt x="1006" y="82" on="0"/>
        <pt x="1118" y="-68" on="1"/>
        <pt x="1015" y="-100" on="1"/>
        <pt x="937" y="-124" on="0"/>
        <pt x="852" y="-191" on="0"/>
        <pt x="852" y="-241" on="1"/>
        <pt x="852" y="-342" on="0"/>
        <pt x="977" y="-342" on="1"/>
        <pt x="1029" y="-342" on="0"/>
        <pt x="1130" y="-310" on="0"/>
        <pt x="1193" y="-278" on="1"/>
        <pt x="1272" y="-477" on="1"/>
        <pt x="1132" y="-548" on="0"/>
        <pt x="965" y="-548" on="1"/>
        <pt x="810" y="-548" on="0"/>
        <pt x="611" y="-382" on="0"/>
        <pt x="611" y="-251" on="1"/>
        <pt x="611" y="-70" on="0"/>
        <pt x="787" y="16" on="1"/>
        <pt x="761" y="65" on="0"/>
        <pt x="729" y="136" on="1"/>
        <pt x="702" y="130" on="0"/>
        <pt x="608" y="130" on="1"/>
        <pt x="366" y="130" on="0"/>
        <pt x="75" y="348" on="0"/>
      </contour>
      <contour>
        <pt x="560" y="1274" on="1"/>
      </contour>
      <contour>
        <pt x="1080" y="81" on="1"/>
      </contour>
      <contour>
        <pt x="1104" y="-129" on="1"/>
      </contour>
    </TTGlyph>
    <TTGlyph name="daudeva" xMin="0" yMin="-548" xMax="1220" yMax="1274">
      <component glyphName="dadeva" x="0" y="0" flags="0x204"/>
      <component glyphName="uvowelsigndeva" x="1173" y="0" flags="0x4"/>
    </TTGlyph>
    <TTGlyph name="dauudeva" xMin="0" yMin="-548" xMax="1465" yMax="1274">
      <component glyphName="dadeva" x="0" y="0" flags="0x204"/>
      <component glyphName="uuvowelsigndeva" x="1192" y="0" flags="0x4"/>
    </TTGlyph>
    <TTGlyph name="davadeva" xMin="0" yMin="-806" xMax="1441" yMax="1274">
      <contour>
        <pt x="344" y="551" on="1"/>
        <pt x="344" y="722" on="0"/>
        <pt x="597" y="919" on="0"/>
        <pt x="829" y="931" on="1"/>
        <pt x="829" y="1048" on="1"/>
        <pt x="0" y="1048" on="1"/>
        <pt x="0" y="1274" on="1"/>
        <pt x="1441" y="1274" on="1"/>
        <pt x="1441" y="1048" on="1"/>
        <pt x="1103" y="1048" on="1"/>
        <pt x="1103" y="707" on="1"/>
        <pt x="998" y="707" on="1"/>
        <pt x="872" y="707" on="0"/>
        <pt x="744" y="686" on="0"/>
        <pt x="657" y="639" on="0"/>
        <pt x="618" y="575" on="0"/>
        <pt x="618" y="532" on="1"/>
        <pt x="618" y="443" on="0"/>
        <pt x="758" y="354" on="0"/>
        <pt x="899" y="354" on="1"/>
        <pt x="921" y="354" on="0"/>
        <pt x="935" y="356" on="1"/>
        <pt x="933" y="371" on="0"/>
        <pt x="933" y="399" on="1"/>
        <pt x="933" y="465" on="0"/>
        <pt x="1030" y="540" on="0"/>
        <pt x="1106" y="540" on="1"/>
        <pt x="1208" y="540" on="0"/>
        <pt x="1329" y="431" on="0"/>
        <pt x="1329" y="346" on="1"/>
        <pt x="1329" y="289" on="0"/>
        <pt x="1278" y="207" on="0"/>
        <pt x="1220" y="179" on="1"/>
        <pt x="1395" y="-263" on="1"/>
        <pt x="1153" y="-347" on="1"/>
        <pt x="1048" y="-46" on="1"/>
        <pt x="932" y="-167" on="0"/>
        <pt x="651" y="-289" on="0"/>
        <pt x="487" y="-289" on="1"/>
        <pt x="296" y="-289" on="0"/>
        <pt x="68" y="-98" on="0"/>
        <pt x="68" y="70" on="1"/>
        <pt x="68" y="200" on="0"/>
        <pt x="221" y="388" on="0"/>
        <pt x="361" y="421" on="1"/>
        <pt x="344" y="480" on="0"/>
      </contour>
      <contour>
        <pt x="877" y="130" on="1"/>
        <pt x="767" y="130" on="0"/>
        <pt x="588" y="174" on="0"/>
        <pt x="518" y="218" on="1"/>
        <pt x="425" y="209" on="0"/>
        <pt x="323" y="129" on="0"/>
        <pt x="323" y="67" on="1"/>
        <pt x="323" y="-1" on="0"/>
        <pt x="422" y="-72" on="0"/>
        <pt x="513" y="-72" on="1"/>
        <pt x="612" y="-72" on="0"/>
        <pt x="803" y="29" on="0"/>
        <pt x="896" y="130" on="1"/>
      </contour>
      <contour>
        <pt x="829" y="1274" on="1"/>
      </contour>
      <contour>
        <pt x="1111" y="0" on="1"/>
      </contour>
      <contour>
        <pt x="985" y="-806" on="1"/>
      </contour>
      <contour>
        <pt x="976" y="-257" on="1"/>
      </contour>
    </TTGlyph>
    <TTGlyph name="dayadeva" xMin="0" yMin="-24" xMax="1612" yMax="1274">
      <contour>
        <pt x="1144" y="161" on="1"/>
        <pt x="902" y="-24" on="0"/>
        <pt x="596" y="-24" on="1"/>
        <pt x="407" y="-24" on="0"/>
        <pt x="152" y="146" on="0"/>
        <pt x="152" y="298" on="1"/>
        <pt x="152" y="375" on="0"/>
        <pt x="193" y="438" on="1"/>
        <pt x="84" y="536" on="0"/>
        <pt x="84" y="672" on="1"/>
        <pt x="84" y="740" on="0"/>
        <pt x="137" y="838" on="0"/>
        <pt x="236" y="905" on="0"/>
        <pt x="370" y="933" on="0"/>
        <pt x="488" y="933" on="1"/>
        <pt x="547" y="933" on="1"/>
        <pt x="547" y="1048" on="1"/>
        <pt x="0" y="1048" on="1"/>
        <pt x="0" y="1274" on="1"/>
        <pt x="1612" y="1274" on="1"/>
        <pt x="1612" y="1048" on="1"/>
        <pt x="1419" y="1048" on="1"/>
        <pt x="1419" y="0" on="1"/>
        <pt x="1144" y="0" on="1"/>
      </contour>
      <contour>
        <pt x="823" y="385" on="1"/>
        <pt x="699" y="401" on="0"/>
        <pt x="625" y="401" on="1"/>
        <pt x="528" y="401" on="0"/>
        <pt x="426" y="352" on="0"/>
        <pt x="426" y="295" on="1"/>
        <pt x="426" y="243" on="0"/>
        <pt x="515" y="185" on="0"/>
        <pt x="598" y="185" on="1"/>
        <pt x="736" y="185" on="0"/>
        <pt x="982" y="305" on="0"/>
        <pt x="1144" y="465" on="1"/>
        <pt x="1144" y="1048" on="1"/>
        <pt x="820" y="1048" on="1"/>
        <pt x="820" y="722" on="1"/>
        <pt x="491" y="722" on="1"/>
        <pt x="436" y="722" on="0"/>
        <pt x="386" y="706" on="0"/>
        <pt x="352" y="664" on="0"/>
        <pt x="352" y="632" on="1"/>
        <pt x="352" y="599" on="0"/>
        <pt x="377" y="568" on="1"/>
        <pt x="481" y="605" on="0"/>
        <pt x="598" y="605" on="1"/>
        <pt x="722" y="605" on="0"/>
        <pt x="841" y="584" on="1"/>
      </contour>
    </TTGlyph>
    <TTGlyph name="dayaprehalfdeva" xMin="0" yMin="-24" xMax="1277" yMax="1274">
      <contour>
        <pt x="1277" y="267" on="1"/>
        <pt x="990" y="-24" on="0"/>
        <pt x="596" y="-24" on="1"/>
        <pt x="407" y="-24" on="0"/>
        <pt x="152" y="146" on="0"/>
        <pt x="152" y="298" on="1"/>
        <pt x="152" y="375" on="0"/>
        <pt x="193" y="438" on="1"/>
        <pt x="84" y="536" on="0"/>
        <pt x="84" y="672" on="1"/>
        <pt x="84" y="740" on="0"/>
        <pt x="137" y="838" on="0"/>
        <pt x="236" y="905" on="0"/>
        <pt x="370" y="933" on="0"/>
        <pt x="488" y="933" on="1"/>
        <pt x="547" y="933" on="1"/>
        <pt x="547" y="1048" on="1"/>
        <pt x="0" y="1048" on="1"/>
        <pt x="0" y="1274" on="1"/>
        <pt x="1121" y="1274" on="1"/>
        <pt x="1121" y="1048" on="1"/>
        <pt x="820" y="1048" on="1"/>
        <pt x="820" y="722" on="1"/>
        <pt x="491" y="722" on="1"/>
        <pt x="436" y="722" on="0"/>
        <pt x="386" y="706" on="0"/>
        <pt x="352" y="664" on="0"/>
        <pt x="352" y="632" on="1"/>
        <pt x="352" y="599" on="0"/>
        <pt x="377" y="568" on="1"/>
        <pt x="481" y="605" on="0"/>
        <pt x="598" y="605" on="1"/>
        <pt x="722" y="605" on="0"/>
        <pt x="841" y="584" on="1"/>
        <pt x="823" y="385" on="1"/>
        <pt x="699" y="401" on="0"/>
        <pt x="625" y="401" on="1"/>
        <pt x="528" y="401" on="0"/>
        <pt x="426" y="352" on="0"/>
        <pt x="426" y="295" on="1"/>
        <pt x="426" y="243" on="0"/>
        <pt x="515" y="185" on="0"/>
        <pt x="598" y="185" on="1"/>
        <pt x="736" y="185" on="0"/>
        <pt x="982" y="305" on="0"/>
        <pt x="1144" y="465" on="1"/>
      </contour>
    </TTGlyph>
    <TTGlyph name="dbldandadeva" xMin="364" yMin="0" xMax="1129" yMax="1274">
      <contour>
        <pt x="854" y="0" on="1"/>
        <pt x="854" y="1274" on="1"/>
        <pt x="1129" y="1274" on="1"/>
        <pt x="1129" y="0" on="1"/>
      </contour>
      <contour>
        <pt x="364" y="0" on="1"/>
        <pt x="364" y="1274" on="1"/>
        <pt x="639" y="1274" on="1"/>
        <pt x="639" y="0" on="1"/>
      </contour>
    </TTGlyph>
    <TTGlyph name="ddaaltdeva" xMin="0" yMin="0" xMax="1439" yMax="1274">
      <contour>
        <pt x="728" y="513" on="1"/>
        <pt x="598" y="545" on="0"/>
        <pt x="426" y="694" on="0"/>
        <pt x="426" y="777" on="1"/>
        <pt x="426" y="845" on="0"/>
        <pt x="507" y="939" on="0"/>
        <pt x="652" y="987" on="0"/>
        <pt x="805" y="987" on="1"/>
        <pt x="953" y="987" on="1"/>
        <pt x="953" y="1048" on="1"/>
        <pt x="0" y="1048" on="1"/>
        <pt x="0" y="1274" on="1"/>
        <pt x="1439" y="1274" on="1"/>
        <pt x="1439" y="1048" on="1"/>
        <pt x="1228" y="1048" on="1"/>
        <pt x="1228" y="807" on="1"/>
        <pt x="852" y="807" on="1"/>
        <pt x="740" y="807" on="0"/>
        <pt x="694" y="785" on="0"/>
        <pt x="694" y="770" on="1"/>
        <pt x="694" y="731" on="0"/>
        <pt x="760" y="701" on="1"/>
        <pt x="854" y="727" on="0"/>
        <pt x="960" y="727" on="1"/>
        <pt x="1136" y="727" on="0"/>
        <pt x="1335" y="585" on="0"/>
        <pt x="1335" y="465" on="1"/>
        <pt x="1335" y="339" on="0"/>
        <pt x="1099" y="201" on="0"/>
        <pt x="876" y="201" on="1"/>
        <pt x="609" y="201" on="0"/>
        <pt x="198" y="395" on="0"/>
        <pt x="40" y="584" on="1"/>
        <pt x="218" y="732" on="1"/>
        <pt x="381" y="559" on="0"/>
        <pt x="664" y="401" on="0"/>
        <pt x="836" y="401" on="1"/>
        <pt x="948" y="401" on="0"/>
        <pt x="1059" y="439" on="0"/>
        <pt x="1059" y="481" on="1"/>
        <pt x="1059" y="515" on="0"/>
        <pt x="987" y="545" on="0"/>
        <pt x="914" y="545" on="1"/>
        <pt x="825" y="545" on="0"/>
      </contour>
      <contour>
        <pt x="953" y="1274" on="1"/>
      </contour>
      <contour>
        <pt x="747" y="0" on="1"/>
      </contour>
      <contour>
        <pt x="374" y="261" on="1"/>
      </contour>
    </TTGlyph>
    <TTGlyph name="ddabardeva" xMin="0" yMin="-40" xMax="1439" yMax="1274">
      <contour>
        <pt x="728" y="481" on="1"/>
        <pt x="597" y="515" on="0"/>
        <pt x="426" y="672" on="0"/>
        <pt x="426" y="759" on="1"/>
        <pt x="426" y="826" on="0"/>
        <pt x="499" y="922" on="0"/>
        <pt x="644" y="980" on="0"/>
        <pt x="805" y="980" on="1"/>
        <pt x="953" y="980" on="1"/>
        <pt x="953" y="1048" on="1"/>
        <pt x="0" y="1048" on="1"/>
        <pt x="0" y="1274" on="1"/>
        <pt x="1439" y="1274" on="1"/>
        <pt x="1439" y="1048" on="1"/>
        <pt x="1228" y="1048" on="1"/>
        <pt x="1228" y="789" on="1"/>
        <pt x="811" y="789" on="1"/>
        <pt x="741" y="789" on="0"/>
        <pt x="718" y="780" on="1"/>
        <pt x="694" y="768" on="0"/>
        <pt x="694" y="751" on="1"/>
        <pt x="694" y="711" on="0"/>
        <pt x="760" y="680" on="1"/>
        <pt x="854" y="706" on="0"/>
        <pt x="960" y="706" on="1"/>
        <pt x="1127" y="706" on="0"/>
        <pt x="1335" y="557" on="0"/>
        <pt x="1335" y="437" on="1"/>
        <pt x="1335" y="310" on="0"/>
        <pt x="1099" y="165" on="0"/>
        <pt x="876" y="165" on="1"/>
        <pt x="671" y="165" on="0"/>
        <pt x="385" y="255" on="0"/>
        <pt x="147" y="438" on="0"/>
        <pt x="40" y="577" on="1"/>
        <pt x="259" y="705" on="1"/>
        <pt x="371" y="537" on="0"/>
        <pt x="638" y="367" on="0"/>
        <pt x="836" y="367" on="1"/>
        <pt x="1059" y="367" on="0"/>
        <pt x="1059" y="449" on="1"/>
        <pt x="1059" y="477" on="0"/>
        <pt x="990" y="514" on="0"/>
        <pt x="914" y="514" on="1"/>
        <pt x="828" y="514" on="0"/>
      </contour>
      <contour>
        <pt x="168" y="-40" on="1"/>
        <pt x="168" y="146" on="1"/>
        <pt x="1299" y="146" on="1"/>
        <pt x="1299" y="-40" on="1"/>
      </contour>
      <contour>
        <pt x="953" y="1274" on="1"/>
      </contour>
      <contour>
        <pt x="747" y="0" on="1"/>
      </contour>
    </TTGlyph>
    <TTGlyph name="ddaddadeva" xMin="0" yMin="-548" xMax="1439" yMax="1274">
      <contour>
        <pt x="876" y="-497" on="1"/>
        <pt x="610" y="-497" on="0"/>
        <pt x="200" y="-287" on="0"/>
        <pt x="40" y="-79" on="1"/>
        <pt x="225" y="66" on="1"/>
        <pt x="366" y="-110" on="0"/>
        <pt x="672" y="-287" on="0"/>
        <pt x="836" y="-287" on="1"/>
        <pt x="945" y="-287" on="0"/>
        <pt x="1059" y="-247" on="0"/>
        <pt x="1059" y="-201" on="1"/>
        <pt x="1059" y="-167" on="0"/>
        <pt x="986" y="-133" on="0"/>
        <pt x="914" y="-133" on="1"/>
        <pt x="825" y="-133" on="0"/>
        <pt x="728" y="-165" on="1"/>
        <pt x="597" y="-133" on="0"/>
        <pt x="426" y="25" on="0"/>
        <pt x="426" y="115" on="1"/>
        <pt x="426" y="178" on="0"/>
        <pt x="455" y="222" on="1"/>
        <pt x="336" y="274" on="0"/>
        <pt x="129" y="442" on="0"/>
        <pt x="40" y="559" on="1"/>
        <pt x="225" y="704" on="1"/>
        <pt x="366" y="527" on="0"/>
        <pt x="672" y="351" on="0"/>
        <pt x="836" y="351" on="1"/>
        <pt x="945" y="351" on="0"/>
        <pt x="1059" y="391" on="0"/>
        <pt x="1059" y="437" on="1"/>
        <pt x="1059" y="505" on="0"/>
        <pt x="914" y="505" on="1"/>
        <pt x="825" y="505" on="0"/>
        <pt x="728" y="473" on="1"/>
        <pt x="597" y="505" on="0"/>
        <pt x="426" y="663" on="0"/>
        <pt x="426" y="753" on="1"/>
        <pt x="426" y="825" on="0"/>
        <pt x="507" y="926" on="0"/>
        <pt x="651" y="977" on="0"/>
        <pt x="805" y="977" on="1"/>
        <pt x="953" y="977" on="1"/>
        <pt x="953" y="1048" on="1"/>
        <pt x="0" y="1048" on="1"/>
        <pt x="0" y="1274" on="1"/>
        <pt x="1439" y="1274" on="1"/>
        <pt x="1439" y="1048" on="1"/>
        <pt x="1228" y="1048" on="1"/>
        <pt x="1228" y="787" on="1"/>
        <pt x="852" y="787" on="1"/>
        <pt x="745" y="787" on="0"/>
        <pt x="718" y="776" on="1"/>
        <pt x="694" y="764" on="0"/>
        <pt x="694" y="745" on="1"/>
        <pt x="694" y="701" on="0"/>
        <pt x="760" y="671" on="1"/>
        <pt x="854" y="697" on="0"/>
        <pt x="960" y="697" on="1"/>
        <pt x="1136" y="697" on="0"/>
        <pt x="1335" y="547" on="0"/>
        <pt x="1335" y="420" on="1"/>
        <pt x="1335" y="287" on="0"/>
        <pt x="1099" y="141" on="0"/>
        <pt x="876" y="141" on="1"/>
        <pt x="817" y="141" on="0"/>
        <pt x="758" y="146" on="1"/>
        <pt x="694" y="140" on="0"/>
        <pt x="694" y="107" on="1"/>
        <pt x="694" y="63" on="0"/>
        <pt x="760" y="33" on="1"/>
        <pt x="854" y="59" on="0"/>
        <pt x="960" y="59" on="1"/>
        <pt x="1136" y="59" on="0"/>
        <pt x="1335" y="-91" on="0"/>
        <pt x="1335" y="-218" on="1"/>
        <pt x="1335" y="-351" on="0"/>
        <pt x="1099" y="-497" on="0"/>
      </contour>
      <contour>
        <pt x="953" y="1274" on="1"/>
      </contour>
      <contour>
        <pt x="873" y="-548" on="1"/>
      </contour>
    </TTGlyph>
    <TTGlyph name="ddaddauudeva" xMin="0" yMin="-806" xMax="1493" yMax="1274">
      <contour>
        <pt x="591" y="-311" on="1"/>
        <pt x="429" y="-273" on="0"/>
        <pt x="154" y="-100" on="0"/>
        <pt x="40" y="34" on="1"/>
        <pt x="225" y="164" on="1"/>
        <pt x="366" y="5" on="0"/>
        <pt x="672" y="-154" on="0"/>
        <pt x="836" y="-154" on="1"/>
        <pt x="945" y="-154" on="0"/>
        <pt x="1059" y="-117" on="0"/>
        <pt x="1059" y="-76" on="1"/>
        <pt x="1059" y="-45" on="0"/>
        <pt x="989" y="-15" on="0"/>
        <pt x="914" y="-15" on="1"/>
        <pt x="820" y="-15" on="0"/>
        <pt x="728" y="-44" on="1"/>
        <pt x="599" y="-15" on="0"/>
        <pt x="426" y="127" on="0"/>
        <pt x="426" y="208" on="1"/>
        <pt x="426" y="264" on="0"/>
        <pt x="455" y="305" on="1"/>
        <pt x="338" y="350" on="0"/>
        <pt x="131" y="501" on="0"/>
        <pt x="40" y="608" on="1"/>
        <pt x="225" y="738" on="1"/>
        <pt x="366" y="579" on="0"/>
        <pt x="671" y="421" on="0"/>
        <pt x="836" y="421" on="1"/>
        <pt x="947" y="421" on="0"/>
        <pt x="1059" y="458" on="0"/>
        <pt x="1059" y="498" on="1"/>
        <pt x="1059" y="529" on="0"/>
        <pt x="989" y="559" on="0"/>
        <pt x="914" y="559" on="1"/>
        <pt x="820" y="559" on="0"/>
        <pt x="728" y="530" on="1"/>
        <pt x="599" y="559" on="0"/>
        <pt x="426" y="701" on="0"/>
        <pt x="426" y="782" on="1"/>
        <pt x="426" y="843" on="0"/>
        <pt x="499" y="933" on="0"/>
        <pt x="641" y="984" on="0"/>
        <pt x="805" y="984" on="1"/>
        <pt x="953" y="984" on="1"/>
        <pt x="953" y="1048" on="1"/>
        <pt x="0" y="1048" on="1"/>
        <pt x="0" y="1274" on="1"/>
        <pt x="1439" y="1274" on="1"/>
        <pt x="1439" y="1048" on="1"/>
        <pt x="1228" y="1048" on="1"/>
        <pt x="1228" y="813" on="1"/>
        <pt x="852" y="813" on="1"/>
        <pt x="754" y="813" on="0"/>
        <pt x="694" y="797" on="0"/>
        <pt x="694" y="775" on="1"/>
        <pt x="694" y="736" on="0"/>
        <pt x="760" y="709" on="1"/>
        <pt x="855" y="732" on="0"/>
        <pt x="960" y="732" on="1"/>
        <pt x="1137" y="732" on="0"/>
        <pt x="1335" y="596" on="0"/>
        <pt x="1335" y="483" on="1"/>
        <pt x="1335" y="363" on="0"/>
        <pt x="1099" y="232" on="0"/>
        <pt x="876" y="232" on="1"/>
        <pt x="804" y="232" on="0"/>
        <pt x="761" y="236" on="1"/>
        <pt x="694" y="233" on="0"/>
        <pt x="694" y="201" on="1"/>
        <pt x="694" y="162" on="0"/>
        <pt x="760" y="134" on="1"/>
        <pt x="855" y="158" on="0"/>
        <pt x="960" y="158" on="1"/>
        <pt x="1137" y="158" on="0"/>
        <pt x="1335" y="22" on="0"/>
        <pt x="1335" y="-91" on="1"/>
        <pt x="1335" y="-173" on="0"/>
        <pt x="1222" y="-288" on="0"/>
        <pt x="1113" y="-317" on="1"/>
        <pt x="1205" y="-357" on="0"/>
        <pt x="1395" y="-519" on="0"/>
        <pt x="1493" y="-642" on="1"/>
        <pt x="1294" y="-750" on="1"/>
        <pt x="1181" y="-587" on="0"/>
        <pt x="963" y="-443" on="0"/>
        <pt x="844" y="-443" on="1"/>
        <pt x="773" y="-443" on="0"/>
        <pt x="697" y="-491" on="0"/>
        <pt x="697" y="-535" on="1"/>
        <pt x="697" y="-577" on="0"/>
        <pt x="759" y="-621" on="0"/>
        <pt x="818" y="-621" on="1"/>
        <pt x="890" y="-621" on="0"/>
        <pt x="973" y="-590" on="1"/>
        <pt x="1043" y="-765" on="1"/>
        <pt x="924" y="-806" on="0"/>
        <pt x="807" y="-806" on="1"/>
        <pt x="649" y="-806" on="0"/>
        <pt x="456" y="-652" on="0"/>
        <pt x="456" y="-539" on="1"/>
        <pt x="456" y="-463" on="0"/>
        <pt x="523" y="-349" on="0"/>
      </contour>
      <contour>
        <pt x="953" y="1274" on="1"/>
      </contour>
      <contour>
        <pt x="836" y="-343" on="1"/>
      </contour>
      <contour>
        <pt x="844" y="-254" on="1"/>
      </contour>
    </TTGlyph>
    <TTGlyph name="ddaddhadeva" xMin="0" yMin="-548" xMax="1439" yMax="1274">
      <contour>
        <pt x="728" y="513" on="1"/>
        <pt x="598" y="545" on="0"/>
        <pt x="426" y="694" on="0"/>
        <pt x="426" y="777" on="1"/>
        <pt x="426" y="845" on="0"/>
        <pt x="507" y="939" on="0"/>
        <pt x="652" y="987" on="0"/>
        <pt x="805" y="987" on="1"/>
        <pt x="953" y="987" on="1"/>
        <pt x="953" y="1048" on="1"/>
        <pt x="0" y="1048" on="1"/>
        <pt x="0" y="1274" on="1"/>
        <pt x="1439" y="1274" on="1"/>
        <pt x="1439" y="1048" on="1"/>
        <pt x="1228" y="1048" on="1"/>
        <pt x="1228" y="807" on="1"/>
        <pt x="852" y="807" on="1"/>
        <pt x="740" y="807" on="0"/>
        <pt x="694" y="785" on="0"/>
        <pt x="694" y="770" on="1"/>
        <pt x="694" y="731" on="0"/>
        <pt x="760" y="701" on="1"/>
        <pt x="854" y="727" on="0"/>
        <pt x="960" y="727" on="1"/>
        <pt x="1136" y="727" on="0"/>
        <pt x="1335" y="585" on="0"/>
        <pt x="1335" y="465" on="1"/>
        <pt x="1335" y="359" on="0"/>
        <pt x="1164" y="225" on="0"/>
        <pt x="1003" y="207" on="1"/>
        <pt x="1003" y="16" on="1"/>
        <pt x="846" y="16" on="1"/>
        <pt x="709" y="16" on="0"/>
        <pt x="579" y="0" on="0"/>
        <pt x="494" y="-41" on="0"/>
        <pt x="453" y="-98" on="0"/>
        <pt x="453" y="-137" on="1"/>
        <pt x="453" y="-247" on="0"/>
        <pt x="608" y="-276" on="1"/>
        <pt x="602" y="-250" on="0"/>
        <pt x="602" y="-223" on="1"/>
        <pt x="602" y="-132" on="0"/>
        <pt x="781" y="-33" on="0"/>
        <pt x="954" y="-33" on="1"/>
        <pt x="1113" y="-33" on="0"/>
        <pt x="1286" y="-141" on="0"/>
        <pt x="1286" y="-235" on="1"/>
        <pt x="1286" y="-351" on="0"/>
        <pt x="1025" y="-479" on="0"/>
        <pt x="778" y="-479" on="1"/>
        <pt x="492" y="-479" on="0"/>
        <pt x="179" y="-300" on="0"/>
        <pt x="179" y="-136" on="1"/>
        <pt x="179" y="17" on="0"/>
        <pt x="455" y="204" on="0"/>
        <pt x="707" y="211" on="1"/>
        <pt x="508" y="237" on="0"/>
        <pt x="175" y="423" on="0"/>
        <pt x="40" y="584" on="1"/>
        <pt x="218" y="732" on="1"/>
        <pt x="381" y="559" on="0"/>
        <pt x="664" y="401" on="0"/>
        <pt x="836" y="401" on="1"/>
        <pt x="948" y="401" on="0"/>
        <pt x="1059" y="439" on="0"/>
        <pt x="1059" y="481" on="1"/>
        <pt x="1059" y="515" on="0"/>
        <pt x="987" y="545" on="0"/>
        <pt x="914" y="545" on="1"/>
        <pt x="825" y="545" on="0"/>
      </contour>
      <contour>
        <pt x="825" y="-268" on="1"/>
        <pt x="825" y="-277" on="1"/>
        <pt x="825" y="-282" on="0"/>
        <pt x="826" y="-287" on="1"/>
        <pt x="1036" y="-285" on="0"/>
        <pt x="1036" y="-238" on="1"/>
        <pt x="1036" y="-220" on="0"/>
        <pt x="991" y="-194" on="0"/>
        <pt x="943" y="-194" on="1"/>
        <pt x="825" y="-194" on="0"/>
      </contour>
      <contour>
        <pt x="953" y="1274" on="1"/>
      </contour>
      <contour>
        <pt x="583" y="-548" on="1"/>
      </contour>
    </TTGlyph>
    <TTGlyph name="ddadeva" xMin="0" yMin="0" xMax="1439" yMax="1274">
      <contour>
        <pt x="728" y="382" on="1"/>
        <pt x="598" y="420" on="0"/>
        <pt x="426" y="593" on="0"/>
        <pt x="426" y="690" on="1"/>
        <pt x="426" y="754" on="0"/>
        <pt x="479" y="848" on="0"/>
        <pt x="572" y="908" on="0"/>
        <pt x="699" y="933" on="0"/>
        <pt x="805" y="933" on="1"/>
        <pt x="953" y="933" on="1"/>
        <pt x="953" y="1048" on="1"/>
        <pt x="0" y="1048" on="1"/>
        <pt x="0" y="1274" on="1"/>
        <pt x="1439" y="1274" on="1"/>
        <pt x="1439" y="1048" on="1"/>
        <pt x="1228" y="1048" on="1"/>
        <pt x="1228" y="731" on="1"/>
        <pt x="811" y="731" on="1"/>
        <pt x="759" y="731" on="0"/>
        <pt x="719" y="722" on="0"/>
        <pt x="694" y="698" on="0"/>
        <pt x="694" y="678" on="1"/>
        <pt x="694" y="631" on="0"/>
        <pt x="755" y="597" on="1"/>
        <pt x="841" y="624" on="0"/>
        <pt x="960" y="624" on="1"/>
        <pt x="1130" y="624" on="0"/>
        <pt x="1335" y="455" on="0"/>
        <pt x="1335" y="314" on="1"/>
        <pt x="1335" y="171" on="0"/>
        <pt x="1095" y="0" on="0"/>
        <pt x="875" y="0" on="1"/>
        <pt x="629" y="0" on="0"/>
        <pt x="224" y="212" on="0"/>
        <pt x="47" y="423" on="1"/>
        <pt x="259" y="577" on="1"/>
        <pt x="404" y="396" on="0"/>
        <pt x="687" y="230" on="0"/>
        <pt x="845" y="230" on="1"/>
        <pt x="1059" y="230" on="0"/>
        <pt x="1059" y="334" on="1"/>
        <pt x="1059" y="420" on="0"/>
        <pt x="914" y="420" on="1"/>
        <pt x="831" y="420" on="0"/>
      </contour>
      <contour>
        <pt x="953" y="1274" on="1"/>
      </contour>
      <contour>
        <pt x="747" y="0" on="1"/>
      </contour>
    </TTGlyph>
    <TTGlyph name="ddanuktaprehalfdeva" xMin="0" yMin="-548" xMax="1439" yMax="1274">
      <component glyphName="ddadeva" x="0" y="0" flags="0x204"/>
      <component glyphName="viramanuktadeva" x="1096" y="0" flags="0x4"/>
    </TTGlyph>
    <TTGlyph name="ddanuktaradeva" xMin="0" yMin="-548" xMax="1439" yMax="1274">
      <component glyphName="ddadeva" x="0" y="0" flags="0x204"/>
      <component glyphName="vattudeva" x="1289" y="0" flags="0x4"/>
      <component glyphName="nuktasmalldeva" x="841" y="235" flags="0x4"/>
    </TTGlyph>
    <TTGlyph name="ddanuktaraprehalfUIdeva" xMin="0" yMin="-548" xMax="1468" yMax="1274">
      <component glyphName="ddaaltdeva" x="0" y="0" flags="0x204"/>
      <component glyphName="vattuviramadeva" x="1369" y="0" flags="0x4"/>
      <component glyphName="nuktasmalldeva" x="837" y="431" flags="0x4"/>
    </TTGlyph>
    <TTGlyph name="ddanuktaraprehalfdeva" xMin="0" yMin="-806" xMax="1439" yMax="1274">
      <component glyphName="ddadeva" x="0" y="0" flags="0x204"/>
      <component glyphName="vattuviramalowdeva" x="1289" y="0" flags="0x4"/>
      <component glyphName="nuktasmalldeva" x="841" y="235" flags="0x4"/>
    </TTGlyph>
    <TTGlyph name="ddaprehalfdeva" xMin="0" yMin="-548" xMax="1439" yMax="1274">
      <component glyphName="ddadeva" x="0" y="0" flags="0x204"/>
      <component glyphName="viramadeva" x="1096" y="0" flags="0x4"/>
    </TTGlyph>
    <TTGlyph name="ddaradeva" xMin="0" yMin="-548" xMax="1439" yMax="1274">
      <component glyphName="ddadeva" x="0" y="0" flags="0x204"/>
      <component glyphName="vattudeva" x="1289" y="0" flags="0x4"/>
    </TTGlyph>
    <TTGlyph name="ddaraprehalfUIdeva" xMin="0" yMin="-548" xMax="1439" yMax="1274">
      <component glyphName="ddaaltdeva" x="0" y="0" flags="0x204"/>
      <component glyphName="vattuviramadeva" x="1289" y="0" flags="0x4"/>
    </TTGlyph>
    <TTGlyph name="ddaraprehalfdeva" xMin="0" yMin="-806" xMax="1439" yMax="1274">
      <component glyphName="ddadeva" x="0" y="0" flags="0x204"/>
      <component glyphName="vattuviramalowdeva" x="1289" y="0" flags="0x4"/>
    </TTGlyph>
    <TTGlyph name="ddayadeva" xMin="0" yMin="0" xMax="2650" yMax="1274">
      <contour>
        <pt x="728" y="382" on="1"/>
        <pt x="598" y="420" on="0"/>
        <pt x="426" y="593" on="0"/>
        <pt x="426" y="690" on="1"/>
        <pt x="426" y="754" on="0"/>
        <pt x="479" y="848" on="0"/>
        <pt x="572" y="908" on="0"/>
        <pt x="699" y="933" on="0"/>
        <pt x="805" y="933" on="1"/>
        <pt x="953" y="933" on="1"/>
        <pt x="953" y="1048" on="1"/>
        <pt x="0" y="1048" on="1"/>
        <pt x="0" y="1274" on="1"/>
        <pt x="2650" y="1274" on="1"/>
        <pt x="2650" y="1048" on="1"/>
        <pt x="2457" y="1048" on="1"/>
        <pt x="2457" y="0" on="1"/>
        <pt x="2183" y="0" on="1"/>
        <pt x="2183" y="130" on="1"/>
        <pt x="2074" y="77" on="0"/>
        <pt x="1922" y="77" on="1"/>
        <pt x="1741" y="77" on="0"/>
        <pt x="1502" y="294" on="0"/>
        <pt x="1440" y="519" on="1"/>
        <pt x="1539" y="535" on="0"/>
        <pt x="1646" y="607" on="0"/>
        <pt x="1646" y="658" on="1"/>
        <pt x="1646" y="686" on="0"/>
        <pt x="1614" y="722" on="0"/>
        <pt x="1557" y="731" on="0"/>
        <pt x="1488" y="731" on="1"/>
        <pt x="811" y="731" on="1"/>
        <pt x="759" y="731" on="0"/>
        <pt x="719" y="722" on="0"/>
        <pt x="694" y="698" on="0"/>
        <pt x="694" y="678" on="1"/>
        <pt x="694" y="631" on="0"/>
        <pt x="755" y="597" on="1"/>
        <pt x="841" y="624" on="0"/>
        <pt x="960" y="624" on="1"/>
        <pt x="1130" y="624" on="0"/>
        <pt x="1335" y="455" on="0"/>
        <pt x="1335" y="314" on="1"/>
        <pt x="1335" y="171" on="0"/>
        <pt x="1095" y="0" on="0"/>
        <pt x="875" y="0" on="1"/>
        <pt x="629" y="0" on="0"/>
        <pt x="224" y="212" on="0"/>
        <pt x="47" y="423" on="1"/>
        <pt x="259" y="577" on="1"/>
        <pt x="404" y="396" on="0"/>
        <pt x="687" y="230" on="0"/>
        <pt x="845" y="230" on="1"/>
        <pt x="1059" y="230" on="0"/>
        <pt x="1059" y="334" on="1"/>
        <pt x="1059" y="420" on="0"/>
        <pt x="914" y="420" on="1"/>
        <pt x="831" y="420" on="0"/>
      </contour>
      <contour>
        <pt x="1228" y="1048" on="1"/>
        <pt x="1228" y="933" on="1"/>
        <pt x="1487" y="933" on="1"/>
        <pt x="1669" y="933" on="0"/>
        <pt x="1830" y="877" on="0"/>
        <pt x="1921" y="754" on="0"/>
        <pt x="1921" y="660" on="1"/>
        <pt x="1921" y="580" on="0"/>
        <pt x="1834" y="449" on="0"/>
        <pt x="1750" y="410" on="1"/>
        <pt x="1784" y="354" on="0"/>
        <pt x="1879" y="303" on="0"/>
        <pt x="1946" y="303" on="1"/>
        <pt x="2080" y="303" on="0"/>
        <pt x="2183" y="391" on="1"/>
        <pt x="2183" y="1048" on="1"/>
      </contour>
    </TTGlyph>
    <TTGlyph name="dddhaaltdeva" xMin="0" yMin="0" xMax="1439" yMax="1274">
      <component glyphName="ddaaltdeva" x="0" y="0" flags="0x204"/>
      <component glyphName="nuktasmalldeva" x="837" y="431" flags="0x4"/>
    </TTGlyph>
    <TTGlyph name="dddhadeva" xMin="0" yMin="-428" xMax="1439" yMax="1274">
      <component glyphName="ddadeva" x="0" y="0" flags="0x204"/>
      <component glyphName="nuktadeva" x="1364" y="0" flags="0x4"/>
    </TTGlyph>
    <TTGlyph name="ddhaaltdeva" xMin="0" yMin="0" xMax="1262" yMax="1274">
      <contour>
        <pt x="899" y="756" on="1"/>
        <pt x="742" y="756" on="1"/>
        <pt x="605" y="756" on="0"/>
        <pt x="475" y="740" on="0"/>
        <pt x="390" y="699" on="0"/>
        <pt x="349" y="642" on="0"/>
        <pt x="349" y="603" on="1"/>
        <pt x="349" y="492" on="0"/>
        <pt x="504" y="463" on="1"/>
        <pt x="498" y="489" on="0"/>
        <pt x="498" y="517" on="1"/>
        <pt x="498" y="608" on="0"/>
        <pt x="677" y="707" on="0"/>
        <pt x="850" y="707" on="1"/>
        <pt x="1009" y="707" on="0"/>
        <pt x="1182" y="599" on="0"/>
        <pt x="1182" y="505" on="1"/>
        <pt x="1182" y="389" on="0"/>
        <pt x="921" y="261" on="0"/>
        <pt x="674" y="261" on="1"/>
        <pt x="388" y="261" on="0"/>
        <pt x="75" y="440" on="0"/>
        <pt x="75" y="604" on="1"/>
        <pt x="75" y="763" on="0"/>
        <pt x="371" y="950" on="0"/>
        <pt x="632" y="952" on="1"/>
        <pt x="632" y="1048" on="1"/>
        <pt x="0" y="1048" on="1"/>
        <pt x="0" y="1274" on="1"/>
        <pt x="1262" y="1274" on="1"/>
        <pt x="1262" y="1048" on="1"/>
        <pt x="899" y="1048" on="1"/>
      </contour>
      <contour>
        <pt x="721" y="472" on="1"/>
        <pt x="721" y="462" on="1"/>
        <pt x="721" y="458" on="0"/>
        <pt x="722" y="453" on="1"/>
        <pt x="932" y="455" on="0"/>
        <pt x="932" y="502" on="1"/>
        <pt x="932" y="520" on="0"/>
        <pt x="887" y="546" on="0"/>
        <pt x="839" y="546" on="1"/>
        <pt x="721" y="546" on="0"/>
      </contour>
      <contour>
        <pt x="632" y="1274" on="1"/>
      </contour>
      <contour>
        <pt x="632" y="0" on="1"/>
      </contour>
    </TTGlyph>
    <TTGlyph name="ddhaddhadeva" xMin="0" yMin="-548" xMax="1262" yMax="1274">
      <contour>
        <pt x="899" y="756" on="1"/>
        <pt x="742" y="756" on="1"/>
        <pt x="605" y="756" on="0"/>
        <pt x="475" y="740" on="0"/>
        <pt x="390" y="699" on="0"/>
        <pt x="349" y="642" on="0"/>
        <pt x="349" y="603" on="1"/>
        <pt x="349" y="492" on="0"/>
        <pt x="504" y="463" on="1"/>
        <pt x="498" y="489" on="0"/>
        <pt x="498" y="517" on="1"/>
        <pt x="498" y="608" on="0"/>
        <pt x="677" y="707" on="0"/>
        <pt x="850" y="707" on="1"/>
        <pt x="1009" y="707" on="0"/>
        <pt x="1182" y="599" on="0"/>
        <pt x="1182" y="505" on="1"/>
        <pt x="1182" y="420" on="0"/>
        <pt x="1038" y="303" on="0"/>
        <pt x="899" y="278" on="1"/>
        <pt x="899" y="16" on="1"/>
        <pt x="742" y="16" on="1"/>
        <pt x="605" y="16" on="0"/>
        <pt x="475" y="0" on="0"/>
        <pt x="390" y="-41" on="0"/>
        <pt x="349" y="-98" on="0"/>
        <pt x="349" y="-137" on="1"/>
        <pt x="349" y="-247" on="0"/>
        <pt x="504" y="-276" on="1"/>
        <pt x="498" y="-250" on="0"/>
        <pt x="498" y="-223" on="1"/>
        <pt x="498" y="-132" on="0"/>
        <pt x="677" y="-33" on="0"/>
        <pt x="850" y="-33" on="1"/>
        <pt x="1009" y="-33" on="0"/>
        <pt x="1182" y="-141" on="0"/>
        <pt x="1182" y="-235" on="1"/>
        <pt x="1182" y="-351" on="0"/>
        <pt x="921" y="-479" on="0"/>
        <pt x="674" y="-479" on="1"/>
        <pt x="388" y="-479" on="0"/>
        <pt x="75" y="-300" on="0"/>
        <pt x="75" y="-136" on="1"/>
        <pt x="75" y="23" on="0"/>
        <pt x="371" y="210" on="0"/>
        <pt x="632" y="212" on="1"/>
        <pt x="632" y="261" on="1"/>
        <pt x="362" y="269" on="0"/>
        <pt x="75" y="447" on="0"/>
        <pt x="75" y="604" on="1"/>
        <pt x="75" y="763" on="0"/>
        <pt x="371" y="950" on="0"/>
        <pt x="632" y="952" on="1"/>
        <pt x="632" y="1048" on="1"/>
        <pt x="0" y="1048" on="1"/>
        <pt x="0" y="1274" on="1"/>
        <pt x="1262" y="1274" on="1"/>
        <pt x="1262" y="1048" on="1"/>
        <pt x="899" y="1048" on="1"/>
      </contour>
      <contour>
        <pt x="721" y="472" on="1"/>
        <pt x="721" y="462" on="1"/>
        <pt x="721" y="458" on="0"/>
        <pt x="722" y="453" on="1"/>
        <pt x="932" y="455" on="0"/>
        <pt x="932" y="502" on="1"/>
        <pt x="932" y="520" on="0"/>
        <pt x="887" y="546" on="0"/>
        <pt x="839" y="546" on="1"/>
        <pt x="721" y="546" on="0"/>
      </contour>
      <contour>
        <pt x="721" y="-268" on="1"/>
        <pt x="721" y="-277" on="1"/>
        <pt x="721" y="-282" on="0"/>
        <pt x="722" y="-287" on="1"/>
        <pt x="932" y="-285" on="0"/>
        <pt x="932" y="-238" on="1"/>
        <pt x="932" y="-220" on="0"/>
        <pt x="887" y="-194" on="0"/>
        <pt x="839" y="-194" on="1"/>
        <pt x="721" y="-194" on="0"/>
      </contour>
      <contour>
        <pt x="632" y="1274" on="1"/>
      </contour>
      <contour>
        <pt x="583" y="-548" on="1"/>
      </contour>
    </TTGlyph>
    <TTGlyph name="ddhadeva" xMin="0" yMin="0" xMax="1262" yMax="1274">
      <contour>
        <pt x="899" y="699" on="1"/>
        <pt x="753" y="699" on="1"/>
        <pt x="596" y="699" on="0"/>
        <pt x="445" y="655" on="0"/>
        <pt x="349" y="546" on="0"/>
        <pt x="349" y="465" on="1"/>
        <pt x="349" y="380" on="0"/>
        <pt x="430" y="258" on="0"/>
        <pt x="510" y="229" on="1"/>
        <pt x="498" y="277" on="0"/>
        <pt x="498" y="332" on="1"/>
        <pt x="498" y="460" on="0"/>
        <pt x="681" y="610" on="0"/>
        <pt x="850" y="610" on="1"/>
        <pt x="1006" y="610" on="0"/>
        <pt x="1182" y="455" on="0"/>
        <pt x="1182" y="332" on="1"/>
        <pt x="1182" y="181" on="0"/>
        <pt x="908" y="0" on="0"/>
        <pt x="674" y="0" on="1"/>
        <pt x="496" y="0" on="0"/>
        <pt x="221" y="118" on="0"/>
        <pt x="75" y="336" on="0"/>
        <pt x="75" y="478" on="1"/>
        <pt x="75" y="675" on="0"/>
        <pt x="366" y="912" on="0"/>
        <pt x="632" y="922" on="1"/>
        <pt x="632" y="1048" on="1"/>
        <pt x="0" y="1048" on="1"/>
        <pt x="0" y="1274" on="1"/>
        <pt x="1262" y="1274" on="1"/>
        <pt x="1262" y="1048" on="1"/>
        <pt x="899" y="1048" on="1"/>
      </contour>
      <contour>
        <pt x="747" y="208" on="1"/>
        <pt x="932" y="220" on="0"/>
        <pt x="932" y="330" on="1"/>
        <pt x="932" y="369" on="0"/>
        <pt x="884" y="416" on="0"/>
        <pt x="843" y="416" on="1"/>
        <pt x="791" y="416" on="0"/>
        <pt x="731" y="351" on="0"/>
        <pt x="731" y="301" on="1"/>
        <pt x="731" y="256" on="0"/>
      </contour>
      <contour>
        <pt x="632" y="1274" on="1"/>
      </contour>
      <contour>
        <pt x="632" y="0" on="1"/>
      </contour>
    </TTGlyph>
    <TTGlyph name="ddhanuktaprehalfdeva" xMin="0" yMin="-548" xMax="1262" yMax="1274">
      <component glyphName="ddhadeva" x="0" y="0" flags="0x204"/>
      <component glyphName="viramanuktadeva" x="919" y="0" flags="0x4"/>
    </TTGlyph>
    <TTGlyph name="ddhanuktaradeva" xMin="0" yMin="-548" xMax="1262" yMax="1274">
      <component glyphName="ddhadeva" x="0" y="0" flags="0x204"/>
      <component glyphName="vattudeva" x="1176" y="0" flags="0x4"/>
      <component glyphName="nuktasmalldeva" x="785" y="193" flags="0x4"/>
    </TTGlyph>
    <TTGlyph name="ddhanuktaraprehalfUIdeva" xMin="0" yMin="-548" xMax="1344" yMax="1274">
      <component glyphName="ddhaaltdeva" x="0" y="0" flags="0x204"/>
      <component glyphName="vattuviramadeva" x="1245" y="0" flags="0x4"/>
      <component glyphName="nuktasmalldeva" x="785" y="438" flags="0x4"/>
    </TTGlyph>
    <TTGlyph name="ddhanuktaraprehalfdeva" xMin="0" yMin="-806" xMax="1344" yMax="1274">
      <component glyphName="ddhadeva" x="0" y="0" flags="0x204"/>
      <component glyphName="vattuviramalowdeva" x="1245" y="0" flags="0x4"/>
      <component glyphName="nuktasmalldeva" x="785" y="193" flags="0x4"/>
    </TTGlyph>
    <TTGlyph name="ddhaprehalfdeva" xMin="0" yMin="-548" xMax="1262" yMax="1274">
      <component glyphName="ddhadeva" x="0" y="0" flags="0x204"/>
      <component glyphName="viramadeva" x="919" y="0" flags="0x4"/>
    </TTGlyph>
    <TTGlyph name="ddharadeva" xMin="0" yMin="-548" xMax="1262" yMax="1274">
      <component glyphName="ddhadeva" x="0" y="0" flags="0x204"/>
      <component glyphName="vattudeva" x="1146" y="0" flags="0x4"/>
    </TTGlyph>
    <TTGlyph name="ddharaprehalfUIdeva" xMin="0" yMin="-548" xMax="1262" yMax="1274">
      <component glyphName="ddhaaltdeva" x="0" y="0" flags="0x204"/>
      <component glyphName="vattuviramadeva" x="1146" y="0" flags="0x4"/>
    </TTGlyph>
    <TTGlyph name="ddharaprehalfdeva" xMin="0" yMin="-806" xMax="1262" yMax="1274">
      <component glyphName="ddhadeva" x="0" y="0" flags="0x204"/>
      <component glyphName="vattuviramalowdeva" x="1146" y="0" flags="0x4"/>
    </TTGlyph>
    <TTGlyph name="ddhayadeva" xMin="0" yMin="0" xMax="2490" yMax="1274">
      <contour>
        <pt x="2490" y="1274" on="1"/>
        <pt x="2490" y="1048" on="1"/>
        <pt x="2297" y="1048" on="1"/>
        <pt x="2297" y="0" on="1"/>
        <pt x="2023" y="0" on="1"/>
        <pt x="2023" y="98" on="1"/>
        <pt x="1914" y="45" on="0"/>
        <pt x="1762" y="45" on="1"/>
        <pt x="1581" y="45" on="0"/>
        <pt x="1342" y="262" on="0"/>
        <pt x="1280" y="487" on="1"/>
        <pt x="1379" y="503" on="0"/>
        <pt x="1486" y="575" on="0"/>
        <pt x="1486" y="626" on="1"/>
        <pt x="1486" y="654" on="0"/>
        <pt x="1454" y="690" on="0"/>
        <pt x="1397" y="699" on="0"/>
        <pt x="1328" y="699" on="1"/>
        <pt x="753" y="699" on="1"/>
        <pt x="596" y="699" on="0"/>
        <pt x="445" y="655" on="0"/>
        <pt x="349" y="546" on="0"/>
        <pt x="349" y="465" on="1"/>
        <pt x="349" y="380" on="0"/>
        <pt x="430" y="258" on="0"/>
        <pt x="510" y="229" on="1"/>
        <pt x="498" y="277" on="0"/>
        <pt x="498" y="332" on="1"/>
        <pt x="498" y="460" on="0"/>
        <pt x="681" y="610" on="0"/>
        <pt x="850" y="610" on="1"/>
        <pt x="1006" y="610" on="0"/>
        <pt x="1182" y="455" on="0"/>
        <pt x="1182" y="332" on="1"/>
        <pt x="1182" y="181" on="0"/>
        <pt x="908" y="0" on="0"/>
        <pt x="674" y="0" on="1"/>
        <pt x="496" y="0" on="0"/>
        <pt x="221" y="118" on="0"/>
        <pt x="75" y="336" on="0"/>
        <pt x="75" y="478" on="1"/>
        <pt x="75" y="675" on="0"/>
        <pt x="366" y="912" on="0"/>
        <pt x="632" y="922" on="1"/>
        <pt x="632" y="1048" on="1"/>
        <pt x="0" y="1048" on="1"/>
        <pt x="0" y="1274" on="1"/>
      </contour>
      <contour>
        <pt x="899" y="901" on="1"/>
        <pt x="1327" y="901" on="1"/>
        <pt x="1509" y="901" on="0"/>
        <pt x="1670" y="845" on="0"/>
        <pt x="1761" y="722" on="0"/>
        <pt x="1761" y="628" on="1"/>
        <pt x="1761" y="548" on="0"/>
        <pt x="1674" y="417" on="0"/>
        <pt x="1590" y="378" on="1"/>
        <pt x="1624" y="322" on="0"/>
        <pt x="1719" y="271" on="0"/>
        <pt x="1786" y="271" on="1"/>
        <pt x="1920" y="271" on="0"/>
        <pt x="2023" y="359" on="1"/>
        <pt x="2023" y="1048" on="1"/>
        <pt x="899" y="1048" on="1"/>
      </contour>
      <contour>
        <pt x="747" y="208" on="1"/>
        <pt x="932" y="220" on="0"/>
        <pt x="932" y="330" on="1"/>
        <pt x="932" y="369" on="0"/>
        <pt x="884" y="416" on="0"/>
        <pt x="843" y="416" on="1"/>
        <pt x="791" y="416" on="0"/>
        <pt x="731" y="351" on="0"/>
        <pt x="731" y="301" on="1"/>
        <pt x="731" y="256" on="0"/>
      </contour>
    </TTGlyph>
    <TTGlyph name="dhadeva" xMin="87" yMin="0" xMax="1435" yMax="1295">
      <contour>
        <pt x="967" y="257" on="1"/>
        <pt x="884" y="211" on="0"/>
        <pt x="742" y="175" on="0"/>
        <pt x="650" y="175" on="1"/>
        <pt x="459" y="175" on="0"/>
        <pt x="241" y="350" on="0"/>
        <pt x="241" y="496" on="1"/>
        <pt x="241" y="596" on="0"/>
        <pt x="296" y="670" on="1"/>
        <pt x="195" y="723" on="0"/>
        <pt x="87" y="891" on="0"/>
        <pt x="87" y="995" on="1"/>
        <pt x="87" y="1125" on="0"/>
        <pt x="279" y="1295" on="0"/>
        <pt x="425" y="1295" on="1"/>
        <pt x="562" y="1295" on="0"/>
        <pt x="730" y="1167" on="0"/>
        <pt x="730" y="1066" on="1"/>
        <pt x="730" y="946" on="0"/>
        <pt x="641" y="868" on="1"/>
        <pt x="485" y="966" on="1"/>
        <pt x="514" y="994" on="0"/>
        <pt x="514" y="1028" on="1"/>
        <pt x="514" y="1061" on="0"/>
        <pt x="472" y="1098" on="0"/>
        <pt x="436" y="1098" on="1"/>
        <pt x="384" y="1098" on="0"/>
        <pt x="323" y="1039" on="0"/>
        <pt x="323" y="989" on="1"/>
        <pt x="323" y="921" on="0"/>
        <pt x="428" y="827" on="0"/>
        <pt x="513" y="814" on="1"/>
        <pt x="576" y="828" on="0"/>
        <pt x="648" y="828" on="1"/>
        <pt x="698" y="828" on="0"/>
        <pt x="750" y="819" on="1"/>
        <pt x="737" y="609" on="1"/>
        <pt x="716" y="612" on="0"/>
        <pt x="683" y="612" on="1"/>
        <pt x="600" y="612" on="0"/>
        <pt x="516" y="557" on="0"/>
        <pt x="516" y="506" on="1"/>
        <pt x="516" y="456" on="0"/>
        <pt x="599" y="401" on="0"/>
        <pt x="670" y="401" on="1"/>
        <pt x="754" y="401" on="0"/>
        <pt x="903" y="475" on="0"/>
        <pt x="967" y="550" on="1"/>
        <pt x="967" y="1048" on="1"/>
        <pt x="853" y="1048" on="1"/>
        <pt x="853" y="1274" on="1"/>
        <pt x="1435" y="1274" on="1"/>
        <pt x="1435" y="1048" on="1"/>
        <pt x="1242" y="1048" on="1"/>
        <pt x="1242" y="0" on="1"/>
        <pt x="967" y="0" on="1"/>
      </contour>
    </TTGlyph>
    <TTGlyph name="dhanuktadeva" xMin="87" yMin="-265" xMax="1435" yMax="1295">
      <component glyphName="dhadeva" x="0" y="0" flags="0x204"/>
      <component glyphName="nuktadeva" x="1104" y="163" flags="0x4"/>
    </TTGlyph>
    <TTGlyph name="dhanuktaprehalfdeva" xMin="87" yMin="-265" xMax="1105" yMax="1295">
      <component glyphName="dhaprehalfdeva" x="0" y="0" flags="0x204"/>
      <component glyphName="nuktadeva" x="1104" y="163" flags="0x4"/>
    </TTGlyph>
    <TTGlyph name="dhanuktaradeva" xMin="87" yMin="-427" xMax="1435" yMax="1295">
      <component glyphName="dharadeva" x="0" y="0" flags="0x204"/>
      <component glyphName="nuktadeva" x="1177" y="1" flags="0x4"/>
    </TTGlyph>
    <TTGlyph name="dhanuktaraprehalfdeva" xMin="87" yMin="-427" xMax="1105" yMax="1295">
      <component glyphName="dharaprehalfdeva" x="0" y="0" flags="0x204"/>
      <component glyphName="nuktadeva" x="1177" y="1" flags="0x4"/>
    </TTGlyph>
    <TTGlyph name="dhaprehalfdeva" xMin="87" yMin="175" xMax="1105" yMax="1295">
      <contour>
        <pt x="1105" y="358" on="1"/>
        <pt x="995" y="263" on="0"/>
        <pt x="778" y="175" on="0"/>
        <pt x="650" y="175" on="1"/>
        <pt x="459" y="175" on="0"/>
        <pt x="241" y="350" on="0"/>
        <pt x="241" y="496" on="1"/>
        <pt x="241" y="596" on="0"/>
        <pt x="296" y="670" on="1"/>
        <pt x="195" y="723" on="0"/>
        <pt x="87" y="891" on="0"/>
        <pt x="87" y="995" on="1"/>
        <pt x="87" y="1125" on="0"/>
        <pt x="279" y="1295" on="0"/>
        <pt x="425" y="1295" on="1"/>
        <pt x="562" y="1295" on="0"/>
        <pt x="730" y="1167" on="0"/>
        <pt x="730" y="1066" on="1"/>
        <pt x="730" y="946" on="0"/>
        <pt x="641" y="868" on="1"/>
        <pt x="485" y="966" on="1"/>
        <pt x="514" y="994" on="0"/>
        <pt x="514" y="1028" on="1"/>
        <pt x="514" y="1061" on="0"/>
        <pt x="472" y="1098" on="0"/>
        <pt x="436" y="1098" on="1"/>
        <pt x="384" y="1098" on="0"/>
        <pt x="323" y="1039" on="0"/>
        <pt x="323" y="989" on="1"/>
        <pt x="323" y="921" on="0"/>
        <pt x="428" y="827" on="0"/>
        <pt x="513" y="814" on="1"/>
        <pt x="576" y="828" on="0"/>
        <pt x="648" y="828" on="1"/>
        <pt x="698" y="828" on="0"/>
        <pt x="750" y="819" on="1"/>
        <pt x="737" y="609" on="1"/>
        <pt x="716" y="612" on="0"/>
        <pt x="683" y="612" on="1"/>
        <pt x="600" y="612" on="0"/>
        <pt x="516" y="557" on="0"/>
        <pt x="516" y="506" on="1"/>
        <pt x="516" y="456" on="0"/>
        <pt x="599" y="401" on="0"/>
        <pt x="670" y="401" on="1"/>
        <pt x="754" y="401" on="0"/>
        <pt x="903" y="475" on="0"/>
        <pt x="967" y="550" on="1"/>
      </contour>
      <contour>
        <pt x="853" y="1274" on="1"/>
      </contour>
    </TTGlyph>
    <TTGlyph name="dharadeva" xMin="87" yMin="-124" xMax="1435" yMax="1295">
      <contour>
        <pt x="967" y="280" on="1"/>
        <pt x="311" y="-124" on="1"/>
        <pt x="171" y="67" on="1"/>
        <pt x="458" y="221" on="1"/>
        <pt x="354" y="255" on="0"/>
        <pt x="241" y="401" on="0"/>
        <pt x="241" y="503" on="1"/>
        <pt x="241" y="599" on="0"/>
        <pt x="295" y="670" on="1"/>
        <pt x="195" y="723" on="0"/>
        <pt x="87" y="890" on="0"/>
        <pt x="87" y="995" on="1"/>
        <pt x="87" y="1125" on="0"/>
        <pt x="279" y="1295" on="0"/>
        <pt x="425" y="1295" on="1"/>
        <pt x="562" y="1295" on="0"/>
        <pt x="730" y="1167" on="0"/>
        <pt x="730" y="1066" on="1"/>
        <pt x="730" y="946" on="0"/>
        <pt x="641" y="868" on="1"/>
        <pt x="485" y="966" on="1"/>
        <pt x="514" y="994" on="0"/>
        <pt x="514" y="1028" on="1"/>
        <pt x="514" y="1061" on="0"/>
        <pt x="472" y="1098" on="0"/>
        <pt x="436" y="1098" on="1"/>
        <pt x="384" y="1098" on="0"/>
        <pt x="323" y="1039" on="0"/>
        <pt x="323" y="989" on="1"/>
        <pt x="323" y="921" on="0"/>
        <pt x="428" y="827" on="0"/>
        <pt x="513" y="814" on="1"/>
        <pt x="576" y="828" on="0"/>
        <pt x="648" y="828" on="1"/>
        <pt x="698" y="828" on="0"/>
        <pt x="750" y="819" on="1"/>
        <pt x="737" y="609" on="1"/>
        <pt x="716" y="612" on="0"/>
        <pt x="683" y="612" on="1"/>
        <pt x="600" y="612" on="0"/>
        <pt x="516" y="557" on="0"/>
        <pt x="516" y="506" on="1"/>
        <pt x="516" y="456" on="0"/>
        <pt x="599" y="401" on="0"/>
        <pt x="670" y="401" on="1"/>
        <pt x="754" y="401" on="0"/>
        <pt x="903" y="475" on="0"/>
        <pt x="967" y="550" on="1"/>
        <pt x="967" y="1048" on="1"/>
        <pt x="853" y="1048" on="1"/>
        <pt x="853" y="1274" on="1"/>
        <pt x="1435" y="1274" on="1"/>
        <pt x="1435" y="1048" on="1"/>
        <pt x="1242" y="1048" on="1"/>
        <pt x="1242" y="0" on="1"/>
        <pt x="967" y="0" on="1"/>
      </contour>
      <contour>
        <pt x="650" y="175" on="1"/>
      </contour>
    </TTGlyph>
    <TTGlyph name="dharaprehalfdeva" xMin="87" yMin="-124" xMax="1105" yMax="1295">
      <contour>
        <pt x="1105" y="358" on="1"/>
        <pt x="311" y="-124" on="1"/>
        <pt x="171" y="67" on="1"/>
        <pt x="459" y="221" on="1"/>
        <pt x="352" y="256" on="0"/>
        <pt x="241" y="402" on="0"/>
        <pt x="241" y="503" on="1"/>
        <pt x="241" y="599" on="0"/>
        <pt x="295" y="670" on="1"/>
        <pt x="195" y="723" on="0"/>
        <pt x="87" y="890" on="0"/>
        <pt x="87" y="995" on="1"/>
        <pt x="87" y="1125" on="0"/>
        <pt x="279" y="1295" on="0"/>
        <pt x="425" y="1295" on="1"/>
        <pt x="562" y="1295" on="0"/>
        <pt x="730" y="1167" on="0"/>
        <pt x="730" y="1066" on="1"/>
        <pt x="730" y="946" on="0"/>
        <pt x="641" y="868" on="1"/>
        <pt x="485" y="966" on="1"/>
        <pt x="514" y="994" on="0"/>
        <pt x="514" y="1028" on="1"/>
        <pt x="514" y="1061" on="0"/>
        <pt x="472" y="1098" on="0"/>
        <pt x="436" y="1098" on="1"/>
        <pt x="384" y="1098" on="0"/>
        <pt x="323" y="1039" on="0"/>
        <pt x="323" y="989" on="1"/>
        <pt x="323" y="921" on="0"/>
        <pt x="428" y="827" on="0"/>
        <pt x="513" y="814" on="1"/>
        <pt x="576" y="828" on="0"/>
        <pt x="648" y="828" on="1"/>
        <pt x="698" y="828" on="0"/>
        <pt x="750" y="819" on="1"/>
        <pt x="737" y="609" on="1"/>
        <pt x="716" y="612" on="0"/>
        <pt x="683" y="612" on="1"/>
        <pt x="600" y="612" on="0"/>
        <pt x="516" y="557" on="0"/>
        <pt x="516" y="506" on="1"/>
        <pt x="516" y="456" on="0"/>
        <pt x="599" y="401" on="0"/>
        <pt x="670" y="401" on="1"/>
        <pt x="754" y="401" on="0"/>
        <pt x="903" y="475" on="0"/>
        <pt x="967" y="550" on="1"/>
      </contour>
      <contour>
        <pt x="650" y="175" on="1"/>
      </contour>
      <contour>
        <pt x="853" y="1274" on="1"/>
      </contour>
    </TTGlyph>
    <TTGlyph name="divide.deva" xMin="108" yMin="161" xMax="1060" yMax="1163">
      <contour>
        <pt x="108" y="552" on="1"/>
        <pt x="108" y="771" on="1"/>
        <pt x="1060" y="771" on="1"/>
        <pt x="1060" y="552" on="1"/>
      </contour>
      <contour>
        <pt x="444" y="313" on="1"/>
        <pt x="444" y="355" on="0"/>
        <pt x="466" y="413" on="0"/>
        <pt x="504" y="448" on="0"/>
        <pt x="555" y="464" on="0"/>
        <pt x="583" y="464" on="1"/>
        <pt x="611" y="464" on="0"/>
        <pt x="661" y="448" on="0"/>
        <pt x="699" y="413" on="0"/>
        <pt x="722" y="355" on="0"/>
        <pt x="722" y="313" on="1"/>
        <pt x="722" y="273" on="0"/>
        <pt x="699" y="215" on="0"/>
        <pt x="661" y="178" on="0"/>
        <pt x="611" y="161" on="0"/>
        <pt x="583" y="161" on="1"/>
        <pt x="555" y="161" on="0"/>
        <pt x="504" y="178" on="0"/>
        <pt x="466" y="215" on="0"/>
        <pt x="444" y="273" on="0"/>
      </contour>
      <contour>
        <pt x="444" y="1011" on="1"/>
        <pt x="444" y="1053" on="0"/>
        <pt x="466" y="1111" on="0"/>
        <pt x="504" y="1147" on="0"/>
        <pt x="555" y="1163" on="0"/>
        <pt x="583" y="1163" on="1"/>
        <pt x="611" y="1163" on="0"/>
        <pt x="661" y="1147" on="0"/>
        <pt x="699" y="1111" on="0"/>
        <pt x="722" y="1053" on="0"/>
        <pt x="722" y="1011" on="1"/>
        <pt x="722" y="971" on="0"/>
        <pt x="699" y="914" on="0"/>
        <pt x="661" y="877" on="0"/>
        <pt x="611" y="860" on="0"/>
        <pt x="583" y="860" on="1"/>
        <pt x="555" y="860" on="0"/>
        <pt x="504" y="877" on="0"/>
        <pt x="466" y="914" on="0"/>
        <pt x="444" y="971" on="0"/>
      </contour>
    </TTGlyph>
    <TTGlyph name="ecandraanusvaradeva" xMin="0" yMin="-405" xMax="1293" yMax="1836">
      <component glyphName="edeva" x="0" y="0" flags="0x204"/>
      <component glyphName="ecandravowelsignanusvaradeva" x="1205" y="0" flags="0x4"/>
    </TTGlyph>
    <TTGlyph name="ecandradeva" xMin="0" yMin="-405" xMax="1274" yMax="1836">
      <component glyphName="edeva" x="0" y="0" flags="0x204"/>
      <component glyphName="ecandravowelsigndeva" x="1126" y="0" flags="0x4"/>
    </TTGlyph>
    <TTGlyph name="ecandranuktaanusvaradeva" xMin="0" yMin="-405" xMax="1293" yMax="1836">
      <component glyphName="edeva" x="0" y="0" flags="0x204"/>
      <component glyphName="ecandravowelsignanusvaradeva" x="1205" y="0" flags="0x4"/>
      <component glyphName="nuktadeva" x="976" y="102" flags="0x4"/>
    </TTGlyph>
    <TTGlyph name="ecandranuktadeva" xMin="0" yMin="-405" xMax="1274" yMax="1836">
      <component glyphName="edeva" x="0" y="0" flags="0x204"/>
      <component glyphName="ecandravowelsigndeva" x="1126" y="0" flags="0x4"/>
      <component glyphName="nuktadeva" x="976" y="102" flags="0x4"/>
    </TTGlyph>
    <TTGlyph name="ecandravowelsignanusvaradeva" xMin="-1098" yMin="1274" xMax="88" yMax="1836">
      <contour>
        <pt x="-221" y="1761" on="1"/>
        <pt x="-257" y="1553" on="0"/>
        <pt x="-462" y="1343" on="0"/>
        <pt x="-638" y="1343" on="1"/>
        <pt x="-795" y="1343" on="0"/>
        <pt x="-1032" y="1554" on="0"/>
        <pt x="-1098" y="1757" on="1"/>
        <pt x="-888" y="1836" on="1"/>
        <pt x="-848" y="1690" on="0"/>
        <pt x="-735" y="1550" on="0"/>
        <pt x="-652" y="1550" on="1"/>
        <pt x="-566" y="1550" on="0"/>
        <pt x="-468" y="1690" on="0"/>
        <pt x="-446" y="1836" on="1"/>
      </contour>
      <contour>
        <pt x="-62" y="1706" on="1"/>
        <pt x="1" y="1706" on="0"/>
        <pt x="88" y="1619" on="0"/>
        <pt x="88" y="1553" on="1"/>
        <pt x="88" y="1487" on="0"/>
        <pt x="1" y="1400" on="0"/>
        <pt x="-62" y="1400" on="1"/>
        <pt x="-125" y="1400" on="0"/>
        <pt x="-212" y="1487" on="0"/>
        <pt x="-212" y="1553" on="1"/>
        <pt x="-212" y="1619" on="0"/>
        <pt x="-125" y="1706" on="0"/>
      </contour>
      <contour>
        <pt x="-439" y="1274" on="1"/>
      </contour>
    </TTGlyph>
    <TTGlyph name="ecandravowelsigncandrabindudeva" xMin="-1107" yMin="1274" xMax="399" yMax="1836">
      <contour>
        <pt x="399" y="1761" on="1"/>
        <pt x="370" y="1565" on="0"/>
        <pt x="154" y="1367" on="0"/>
        <pt x="-29" y="1367" on="1"/>
        <pt x="-215" y="1367" on="0"/>
        <pt x="-332" y="1514" on="1"/>
        <pt x="-435" y="1343" on="0"/>
        <pt x="-647" y="1343" on="1"/>
        <pt x="-804" y="1343" on="0"/>
        <pt x="-1041" y="1527" on="0"/>
        <pt x="-1107" y="1702" on="1"/>
        <pt x="-897" y="1771" on="1"/>
        <pt x="-857" y="1659" on="0"/>
        <pt x="-744" y="1550" on="0"/>
        <pt x="-661" y="1550" on="1"/>
        <pt x="-496" y="1550" on="0"/>
        <pt x="-450" y="1741" on="1"/>
        <pt x="-456" y="1757" on="1"/>
        <pt x="-266" y="1836" on="1"/>
        <pt x="-233" y="1695" on="0"/>
        <pt x="-114" y="1556" on="0"/>
        <pt x="-20" y="1556" on="1"/>
        <pt x="74" y="1556" on="0"/>
        <pt x="174" y="1690" on="0"/>
        <pt x="194" y="1836" on="1"/>
      </contour>
      <contour>
        <pt x="-24" y="1836" on="1"/>
        <pt x="22" y="1836" on="0"/>
        <pt x="88" y="1770" on="0"/>
        <pt x="88" y="1724" on="1"/>
        <pt x="88" y="1678" on="0"/>
        <pt x="22" y="1612" on="0"/>
        <pt x="-24" y="1612" on="1"/>
        <pt x="-70" y="1612" on="0"/>
        <pt x="-136" y="1678" on="0"/>
        <pt x="-136" y="1724" on="1"/>
        <pt x="-136" y="1770" on="0"/>
        <pt x="-70" y="1836" on="0"/>
      </contour>
      <contour>
        <pt x="-439" y="1274" on="1"/>
      </contour>
    </TTGlyph>
    <TTGlyph name="ecandravowelsigndeva" xMin="-856" yMin="1274" xMax="139" yMax="1836">
      <contour>
        <pt x="139" y="1761" on="1"/>
        <pt x="89" y="1551" on="0"/>
        <pt x="-152" y="1343" on="0"/>
        <pt x="-352" y="1343" on="1"/>
        <pt x="-528" y="1343" on="0"/>
        <pt x="-782" y="1553" on="0"/>
        <pt x="-856" y="1757" on="1"/>
        <pt x="-646" y="1836" on="1"/>
        <pt x="-592" y="1687" on="0"/>
        <pt x="-451" y="1550" on="0"/>
        <pt x="-347" y="1550" on="1"/>
        <pt x="-245" y="1550" on="0"/>
        <pt x="-122" y="1682" on="0"/>
        <pt x="-86" y="1836" on="1"/>
      </contour>
      <contour>
        <pt x="-439" y="1274" on="1"/>
      </contour>
    </TTGlyph>
    <TTGlyph name="ecandravowelsignrephanusvaradeva" xMin="-1107" yMin="1259" xMax="94" yMax="1836">
      <contour>
        <pt x="-418" y="1259" on="1"/>
        <pt x="-451" y="1313" on="0"/>
        <pt x="-477" y="1376" on="1"/>
        <pt x="-547" y="1343" on="0"/>
        <pt x="-647" y="1343" on="1"/>
        <pt x="-804" y="1343" on="0"/>
        <pt x="-1041" y="1554" on="0"/>
        <pt x="-1107" y="1757" on="1"/>
        <pt x="-897" y="1836" on="1"/>
        <pt x="-857" y="1690" on="0"/>
        <pt x="-744" y="1550" on="0"/>
        <pt x="-661" y="1550" on="1"/>
        <pt x="-575" y="1550" on="0"/>
        <pt x="-477" y="1690" on="0"/>
        <pt x="-455" y="1836" on="1"/>
        <pt x="-349" y="1797" on="1"/>
        <pt x="-263" y="1836" on="0"/>
        <pt x="-145" y="1836" on="1"/>
        <pt x="-18" y="1836" on="0"/>
        <pt x="94" y="1805" on="1"/>
        <pt x="44" y="1609" on="1"/>
        <pt x="-16" y="1630" on="0"/>
        <pt x="-87" y="1630" on="1"/>
        <pt x="-166" y="1630" on="0"/>
        <pt x="-239" y="1553" on="0"/>
        <pt x="-239" y="1478" on="1"/>
        <pt x="-239" y="1430" on="0"/>
        <pt x="-193" y="1311" on="0"/>
        <pt x="-155" y="1259" on="1"/>
      </contour>
      <contour>
        <pt x="-40" y="1548" on="1"/>
        <pt x="4" y="1548" on="0"/>
        <pt x="67" y="1485" on="0"/>
        <pt x="67" y="1441" on="1"/>
        <pt x="67" y="1397" on="0"/>
        <pt x="4" y="1334" on="0"/>
        <pt x="-40" y="1334" on="1"/>
        <pt x="-84" y="1334" on="0"/>
        <pt x="-147" y="1397" on="0"/>
        <pt x="-147" y="1441" on="1"/>
        <pt x="-147" y="1485" on="0"/>
        <pt x="-84" y="1548" on="0"/>
      </contour>
      <contour>
        <pt x="-439" y="1274" on="1"/>
      </contour>
    </TTGlyph>
    <TTGlyph name="ecandravowelsignrephdeva" xMin="-1107" yMin="1259" xMax="94" yMax="1836">
      <contour>
        <pt x="-418" y="1259" on="1"/>
        <pt x="-451" y="1313" on="0"/>
        <pt x="-477" y="1376" on="1"/>
        <pt x="-547" y="1343" on="0"/>
        <pt x="-647" y="1343" on="1"/>
        <pt x="-804" y="1343" on="0"/>
        <pt x="-1041" y="1554" on="0"/>
        <pt x="-1107" y="1757" on="1"/>
        <pt x="-897" y="1836" on="1"/>
        <pt x="-857" y="1690" on="0"/>
        <pt x="-744" y="1550" on="0"/>
        <pt x="-661" y="1550" on="1"/>
        <pt x="-575" y="1550" on="0"/>
        <pt x="-477" y="1690" on="0"/>
        <pt x="-455" y="1836" on="1"/>
        <pt x="-349" y="1797" on="1"/>
        <pt x="-263" y="1836" on="0"/>
        <pt x="-145" y="1836" on="1"/>
        <pt x="-18" y="1836" on="0"/>
        <pt x="94" y="1805" on="1"/>
        <pt x="44" y="1609" on="1"/>
        <pt x="-16" y="1630" on="0"/>
        <pt x="-87" y="1630" on="1"/>
        <pt x="-166" y="1630" on="0"/>
        <pt x="-239" y="1553" on="0"/>
        <pt x="-239" y="1478" on="1"/>
        <pt x="-239" y="1430" on="0"/>
        <pt x="-193" y="1311" on="0"/>
        <pt x="-155" y="1259" on="1"/>
      </contour>
      <contour>
        <pt x="-439" y="1274" on="1"/>
      </contour>
    </TTGlyph>
    <TTGlyph name="edeva" xMin="0" yMin="-405" xMax="1274" yMax="1274">
      <contour>
        <pt x="1274" y="1274" on="1"/>
        <pt x="1274" y="1048" on="1"/>
        <pt x="1106" y="1048" on="1"/>
        <pt x="1106" y="786" on="1"/>
        <pt x="1106" y="656" on="0"/>
        <pt x="1040" y="509" on="0"/>
        <pt x="882" y="420" on="0"/>
        <pt x="734" y="406" on="1"/>
        <pt x="689" y="631" on="1"/>
        <pt x="758" y="640" on="0"/>
        <pt x="813" y="680" on="0"/>
        <pt x="833" y="745" on="0"/>
        <pt x="833" y="822" on="1"/>
        <pt x="833" y="1048" on="1"/>
        <pt x="413" y="1048" on="1"/>
        <pt x="413" y="715" on="1"/>
        <pt x="413" y="600" on="0"/>
        <pt x="442" y="496" on="0"/>
        <pt x="519" y="420" on="0"/>
        <pt x="619" y="362" on="1"/>
        <pt x="906" y="197" on="1"/>
        <pt x="1022" y="130" on="0"/>
        <pt x="1116" y="-6" on="0"/>
        <pt x="1116" y="-116" on="1"/>
        <pt x="1116" y="-185" on="0"/>
        <pt x="1055" y="-342" on="0"/>
        <pt x="1005" y="-405" on="1"/>
        <pt x="781" y="-276" on="1"/>
        <pt x="804" y="-251" on="0"/>
        <pt x="837" y="-175" on="0"/>
        <pt x="837" y="-143" on="1"/>
        <pt x="837" y="-95" on="0"/>
        <pt x="803" y="-38" on="0"/>
        <pt x="726" y="19" on="0"/>
        <pt x="640" y="69" on="1"/>
        <pt x="393" y="212" on="1"/>
        <pt x="318" y="255" on="0"/>
        <pt x="227" y="333" on="0"/>
        <pt x="166" y="429" on="0"/>
        <pt x="139" y="550" on="0"/>
        <pt x="139" y="660" on="1"/>
        <pt x="139" y="1048" on="1"/>
        <pt x="0" y="1048" on="1"/>
        <pt x="0" y="1274" on="1"/>
      </contour>
      <contour>
        <pt x="833" y="1274" on="1"/>
      </contour>
    </TTGlyph>
    <TTGlyph name="eight.deva" xMin="72" yMin="-20" xMax="1057" yMax="1481">
      <contour>
        <pt x="565" y="1481" on="1"/>
        <pt x="656" y="1481" on="0"/>
        <pt x="818" y="1437" on="0"/>
        <pt x="940" y="1349" on="0"/>
        <pt x="1012" y="1217" on="0"/>
        <pt x="1012" y="1128" on="1"/>
        <pt x="1012" y="1062" on="0"/>
        <pt x="972" y="955" on="0"/>
        <pt x="902" y="868" on="0"/>
        <pt x="806" y="800" on="0"/>
        <pt x="750" y="772" on="1"/>
        <pt x="808" y="741" on="0"/>
        <pt x="919" y="665" on="0"/>
        <pt x="1005" y="570" on="0"/>
        <pt x="1057" y="452" on="0"/>
        <pt x="1057" y="379" on="1"/>
        <pt x="1057" y="288" on="0"/>
        <pt x="985" y="140" on="0"/>
        <pt x="855" y="36" on="0"/>
        <pt x="674" y="-20" on="0"/>
        <pt x="565" y="-20" on="1"/>
        <pt x="447" y="-20" on="0"/>
        <pt x="263" y="34" on="0"/>
        <pt x="137" y="134" on="0"/>
        <pt x="72" y="280" on="0"/>
        <pt x="72" y="371" on="1"/>
        <pt x="72" y="446" on="0"/>
        <pt x="116" y="566" on="0"/>
        <pt x="192" y="662" on="0"/>
        <pt x="294" y="736" on="0"/>
        <pt x="352" y="764" on="1"/>
        <pt x="303" y="795" on="0"/>
        <pt x="217" y="868" on="0"/>
        <pt x="154" y="957" on="0"/>
        <pt x="117" y="1065" on="0"/>
        <pt x="117" y="1130" on="1"/>
        <pt x="117" y="1217" on="0"/>
        <pt x="190" y="1348" on="0"/>
        <pt x="314" y="1437" on="0"/>
        <pt x="476" y="1481" on="0"/>
      </contour>
      <contour>
        <pt x="358" y="389" on="1"/>
        <pt x="358" y="349" on="0"/>
        <pt x="384" y="282" on="0"/>
        <pt x="435" y="234" on="0"/>
        <pt x="511" y="207" on="0"/>
        <pt x="561" y="207" on="1"/>
        <pt x="666" y="207" on="0"/>
        <pt x="770" y="306" on="0"/>
        <pt x="770" y="387" on="1"/>
        <pt x="770" y="429" on="0"/>
        <pt x="735" y="496" on="0"/>
        <pt x="680" y="553" on="0"/>
        <pt x="610" y="601" on="0"/>
        <pt x="575" y="623" on="1"/>
        <pt x="553" y="637" on="1"/>
        <pt x="509" y="615" on="0"/>
        <pt x="437" y="564" on="0"/>
        <pt x="386" y="503" on="0"/>
        <pt x="358" y="431" on="0"/>
      </contour>
      <contour>
        <pt x="563" y="1255" on="1"/>
        <pt x="530" y="1255" on="0"/>
        <pt x="473" y="1235" on="0"/>
        <pt x="432" y="1197" on="0"/>
        <pt x="408" y="1141" on="0"/>
        <pt x="408" y="1106" on="1"/>
        <pt x="408" y="1064" on="0"/>
        <pt x="433" y="1003" on="0"/>
        <pt x="476" y="956" on="0"/>
        <pt x="533" y="919" on="0"/>
        <pt x="565" y="901" on="1"/>
        <pt x="596" y="917" on="0"/>
        <pt x="652" y="955" on="0"/>
        <pt x="695" y="1004" on="0"/>
        <pt x="721" y="1066" on="0"/>
        <pt x="721" y="1106" on="1"/>
        <pt x="721" y="1141" on="0"/>
        <pt x="697" y="1197" on="0"/>
        <pt x="655" y="1235" on="0"/>
        <pt x="597" y="1255" on="0"/>
      </contour>
    </TTGlyph>
    <TTGlyph name="eightdeva" xMin="138" yMin="0" xMax="1095" yMax="1295">
      <contour>
        <pt x="748" y="1295" on="1"/>
        <pt x="970" y="1115" on="1"/>
        <pt x="563" y="626" on="1"/>
        <pt x="465" y="508" on="0"/>
        <pt x="415" y="409" on="0"/>
        <pt x="415" y="357" on="1"/>
        <pt x="415" y="298" on="0"/>
        <pt x="513" y="232" on="0"/>
        <pt x="602" y="232" on="1"/>
        <pt x="708" y="232" on="0"/>
        <pt x="886" y="292" on="0"/>
        <pt x="986" y="358" on="1"/>
        <pt x="1095" y="142" on="1"/>
        <pt x="955" y="64" on="0"/>
        <pt x="718" y="0" on="0"/>
        <pt x="590" y="0" on="1"/>
        <pt x="384" y="0" on="0"/>
        <pt x="138" y="195" on="0"/>
        <pt x="138" y="373" on="1"/>
        <pt x="138" y="434" on="0"/>
        <pt x="168" y="545" on="0"/>
        <pt x="265" y="707" on="0"/>
        <pt x="363" y="826" on="1"/>
      </contour>
      <contour>
        <pt x="579" y="1274" on="1"/>
      </contour>
    </TTGlyph>
    <TTGlyph name="ellipsis.deva" xMin="117" yMin="-27" xMax="1634" yMax="313">
      <contour>
        <pt x="117" y="143" on="1"/>
        <pt x="117" y="190" on="0"/>
        <pt x="144" y="255" on="0"/>
        <pt x="192" y="295" on="0"/>
        <pt x="256" y="313" on="0"/>
        <pt x="293" y="313" on="1"/>
        <pt x="328" y="313" on="0"/>
        <pt x="391" y="295" on="0"/>
        <pt x="439" y="255" on="0"/>
        <pt x="467" y="190" on="0"/>
        <pt x="467" y="143" on="1"/>
        <pt x="467" y="98" on="0"/>
        <pt x="439" y="34" on="0"/>
        <pt x="391" y="-8" on="0"/>
        <pt x="328" y="-27" on="0"/>
        <pt x="293" y="-27" on="1"/>
        <pt x="256" y="-27" on="0"/>
        <pt x="192" y="-8" on="0"/>
        <pt x="144" y="34" on="0"/>
        <pt x="117" y="98" on="0"/>
      </contour>
      <contour>
        <pt x="700" y="143" on="1"/>
        <pt x="700" y="190" on="0"/>
        <pt x="727" y="255" on="0"/>
        <pt x="775" y="295" on="0"/>
        <pt x="840" y="313" on="0"/>
        <pt x="877" y="313" on="1"/>
        <pt x="912" y="313" on="0"/>
        <pt x="975" y="295" on="0"/>
        <pt x="1023" y="255" on="0"/>
        <pt x="1051" y="190" on="0"/>
        <pt x="1051" y="143" on="1"/>
        <pt x="1051" y="98" on="0"/>
        <pt x="1023" y="34" on="0"/>
        <pt x="975" y="-8" on="0"/>
        <pt x="912" y="-27" on="0"/>
        <pt x="877" y="-27" on="1"/>
        <pt x="840" y="-27" on="0"/>
        <pt x="775" y="-8" on="0"/>
        <pt x="727" y="34" on="0"/>
        <pt x="700" y="98" on="0"/>
      </contour>
      <contour>
        <pt x="1284" y="143" on="1"/>
        <pt x="1284" y="190" on="0"/>
        <pt x="1311" y="255" on="0"/>
        <pt x="1359" y="295" on="0"/>
        <pt x="1423" y="313" on="0"/>
        <pt x="1460" y="313" on="1"/>
        <pt x="1495" y="313" on="0"/>
        <pt x="1558" y="295" on="0"/>
        <pt x="1606" y="255" on="0"/>
        <pt x="1634" y="190" on="0"/>
        <pt x="1634" y="143" on="1"/>
        <pt x="1634" y="98" on="0"/>
        <pt x="1606" y="34" on="0"/>
        <pt x="1558" y="-8" on="0"/>
        <pt x="1495" y="-27" on="0"/>
        <pt x="1460" y="-27" on="1"/>
        <pt x="1423" y="-27" on="0"/>
        <pt x="1359" y="-8" on="0"/>
        <pt x="1311" y="34" on="0"/>
        <pt x="1284" y="98" on="0"/>
      </contour>
    </TTGlyph>
    <TTGlyph name="emdash.deva" xMin="82" yMin="496" xMax="1966" yMax="726">
      <contour>
        <pt x="82" y="496" on="1"/>
        <pt x="82" y="726" on="1"/>
        <pt x="1966" y="726" on="1"/>
        <pt x="1966" y="496" on="1"/>
      </contour>
    </TTGlyph>
    <TTGlyph name="endash.deva" xMin="82" yMin="496" xMax="942" yMax="726">
      <contour>
        <pt x="82" y="496" on="1"/>
        <pt x="82" y="726" on="1"/>
        <pt x="942" y="726" on="1"/>
        <pt x="942" y="496" on="1"/>
      </contour>
    </TTGlyph>
    <TTGlyph name="enuktadeva" xMin="0" yMin="-405" xMax="1274" yMax="1274">
      <component glyphName="edeva" x="0" y="0" flags="0x204"/>
      <component glyphName="nuktadeva" x="976" y="102" flags="0x4"/>
    </TTGlyph>
    <TTGlyph name="equal.deva" xMin="108" yMin="358" xMax="1060" yMax="964">
      <contour>
        <pt x="108" y="747" on="1"/>
        <pt x="108" y="964" on="1"/>
        <pt x="1060" y="964" on="1"/>
        <pt x="1060" y="747" on="1"/>
      </contour>
      <contour>
        <pt x="108" y="358" on="1"/>
        <pt x="108" y="577" on="1"/>
        <pt x="1060" y="577" on="1"/>
        <pt x="1060" y="358" on="1"/>
      </contour>
    </TTGlyph>
    <TTGlyph name="eshortanusvaradeva" xMin="0" yMin="-405" xMax="1305" yMax="1836">
      <component glyphName="edeva" x="0" y="0" flags="0x204"/>
      <component glyphName="eshortvowelsignanusvaradeva" x="1270" y="0" flags="0x4"/>
    </TTGlyph>
    <TTGlyph name="eshortdeva" xMin="0" yMin="-405" xMax="1274" yMax="1836">
      <component glyphName="edeva" x="0" y="0" flags="0x204"/>
      <component glyphName="eshortvowelsigndeva" x="1270" y="0" flags="0x4"/>
    </TTGlyph>
    <TTGlyph name="eshortnuktaanusvaradeva" xMin="0" yMin="-405" xMax="1305" yMax="1836">
      <component glyphName="edeva" x="0" y="0" flags="0x204"/>
      <component glyphName="eshortvowelsignanusvaradeva" x="1270" y="0" flags="0x4"/>
      <component glyphName="nuktadeva" x="976" y="102" flags="0x4"/>
    </TTGlyph>
    <TTGlyph name="eshortnuktadeva" xMin="0" yMin="-405" xMax="1274" yMax="1836">
      <component glyphName="edeva" x="0" y="0" flags="0x204"/>
      <component glyphName="eshortvowelsigndeva" x="1270" y="0" flags="0x4"/>
      <component glyphName="nuktadeva" x="976" y="102" flags="0x4"/>
    </TTGlyph>
    <TTGlyph name="eshortvowelsignanusvaradeva" xMin="-1037" yMin="1259" xMax="35" yMax="1836">
      <contour>
        <pt x="-424" y="1259" on="1"/>
        <pt x="-448" y="1343" on="0"/>
        <pt x="-503" y="1436" on="0"/>
        <pt x="-569" y="1474" on="0"/>
        <pt x="-619" y="1474" on="1"/>
        <pt x="-646" y="1474" on="0"/>
        <pt x="-673" y="1472" on="1"/>
        <pt x="-699" y="1469" on="0"/>
        <pt x="-723" y="1469" on="1"/>
        <pt x="-837" y="1469" on="0"/>
        <pt x="-984" y="1615" on="0"/>
        <pt x="-1037" y="1758" on="1"/>
        <pt x="-823" y="1836" on="1"/>
        <pt x="-786" y="1745" on="0"/>
        <pt x="-717" y="1685" on="0"/>
        <pt x="-656" y="1685" on="1"/>
        <pt x="-621" y="1685" on="0"/>
        <pt x="-585" y="1689" on="1"/>
        <pt x="-548" y="1692" on="0"/>
        <pt x="-520" y="1692" on="1"/>
        <pt x="-440" y="1692" on="0"/>
        <pt x="-328" y="1628" on="0"/>
        <pt x="-229" y="1444" on="0"/>
        <pt x="-180" y="1259" on="1"/>
      </contour>
      <contour>
        <pt x="-115" y="1836" on="1"/>
        <pt x="-52" y="1836" on="0"/>
        <pt x="35" y="1749" on="0"/>
        <pt x="35" y="1683" on="1"/>
        <pt x="35" y="1617" on="0"/>
        <pt x="-52" y="1530" on="0"/>
        <pt x="-115" y="1530" on="1"/>
        <pt x="-178" y="1530" on="0"/>
        <pt x="-265" y="1617" on="0"/>
        <pt x="-265" y="1683" on="1"/>
        <pt x="-265" y="1749" on="0"/>
        <pt x="-178" y="1836" on="0"/>
      </contour>
      <contour>
        <pt x="-439" y="1274" on="1"/>
      </contour>
    </TTGlyph>
    <TTGlyph name="eshortvowelsigncandrabindudeva" xMin="-1037" yMin="1259" xMax="251" yMax="1836">
      <component glyphName="eshortvowelsigndeva" x="0" y="0" flags="0x204"/>
      <component glyphName="candrabindusmalldeva" x="132" y="0" flags="0x4"/>
    </TTGlyph>
    <TTGlyph name="eshortvowelsigndeva" xMin="-1037" yMin="1259" xMax="-180" yMax="1836">
      <contour>
        <pt x="-424" y="1259" on="1"/>
        <pt x="-448" y="1343" on="0"/>
        <pt x="-503" y="1436" on="0"/>
        <pt x="-569" y="1474" on="0"/>
        <pt x="-619" y="1474" on="1"/>
        <pt x="-646" y="1474" on="0"/>
        <pt x="-673" y="1472" on="1"/>
        <pt x="-699" y="1469" on="0"/>
        <pt x="-723" y="1469" on="1"/>
        <pt x="-837" y="1469" on="0"/>
        <pt x="-984" y="1615" on="0"/>
        <pt x="-1037" y="1758" on="1"/>
        <pt x="-823" y="1836" on="1"/>
        <pt x="-786" y="1745" on="0"/>
        <pt x="-717" y="1685" on="0"/>
        <pt x="-656" y="1685" on="1"/>
        <pt x="-621" y="1685" on="0"/>
        <pt x="-585" y="1689" on="1"/>
        <pt x="-548" y="1692" on="0"/>
        <pt x="-520" y="1692" on="1"/>
        <pt x="-440" y="1692" on="0"/>
        <pt x="-328" y="1628" on="0"/>
        <pt x="-229" y="1444" on="0"/>
        <pt x="-180" y="1259" on="1"/>
      </contour>
      <contour>
        <pt x="-439" y="1274" on="1"/>
      </contour>
    </TTGlyph>
    <TTGlyph name="eshortvowelsignrephanusvarade" xMin="-1037" yMin="1259" xMax="80" yMax="1836">
      <contour>
        <pt x="-424" y="1259" on="1"/>
        <pt x="-448" y="1343" on="0"/>
        <pt x="-503" y="1436" on="0"/>
        <pt x="-569" y="1474" on="0"/>
        <pt x="-619" y="1474" on="1"/>
        <pt x="-646" y="1474" on="0"/>
        <pt x="-673" y="1472" on="1"/>
        <pt x="-699" y="1469" on="0"/>
        <pt x="-723" y="1469" on="1"/>
        <pt x="-837" y="1469" on="0"/>
        <pt x="-984" y="1615" on="0"/>
        <pt x="-1037" y="1758" on="1"/>
        <pt x="-823" y="1836" on="1"/>
        <pt x="-786" y="1745" on="0"/>
        <pt x="-717" y="1685" on="0"/>
        <pt x="-656" y="1685" on="1"/>
        <pt x="-621" y="1685" on="0"/>
        <pt x="-585" y="1689" on="1"/>
        <pt x="-548" y="1692" on="0"/>
        <pt x="-520" y="1692" on="1"/>
        <pt x="-478" y="1692" on="0"/>
        <pt x="-450" y="1685" on="1"/>
        <pt x="-410" y="1756" on="0"/>
        <pt x="-259" y="1836" on="0"/>
        <pt x="-159" y="1836" on="1"/>
        <pt x="-32" y="1836" on="0"/>
        <pt x="80" y="1805" on="1"/>
        <pt x="30" y="1609" on="1"/>
        <pt x="-30" y="1630" on="0"/>
        <pt x="-101" y="1630" on="1"/>
        <pt x="-179" y="1630" on="0"/>
        <pt x="-251" y="1555" on="0"/>
        <pt x="-253" y="1482" on="1"/>
        <pt x="-215" y="1394" on="0"/>
        <pt x="-180" y="1259" on="1"/>
      </contour>
      <contour>
        <pt x="-54" y="1549" on="1"/>
        <pt x="-10" y="1549" on="0"/>
        <pt x="53" y="1486" on="0"/>
        <pt x="53" y="1442" on="1"/>
        <pt x="53" y="1398" on="0"/>
        <pt x="-10" y="1335" on="0"/>
        <pt x="-54" y="1335" on="1"/>
        <pt x="-98" y="1335" on="0"/>
        <pt x="-161" y="1398" on="0"/>
        <pt x="-161" y="1442" on="1"/>
        <pt x="-161" y="1486" on="0"/>
        <pt x="-98" y="1549" on="0"/>
      </contour>
      <contour>
        <pt x="-439" y="1274" on="1"/>
      </contour>
    </TTGlyph>
    <TTGlyph name="eshortvowelsignrephdeva" xMin="-1037" yMin="1259" xMax="80" yMax="1836">
      <contour>
        <pt x="-424" y="1259" on="1"/>
        <pt x="-448" y="1343" on="0"/>
        <pt x="-503" y="1436" on="0"/>
        <pt x="-569" y="1474" on="0"/>
        <pt x="-619" y="1474" on="1"/>
        <pt x="-646" y="1474" on="0"/>
        <pt x="-673" y="1472" on="1"/>
        <pt x="-699" y="1469" on="0"/>
        <pt x="-723" y="1469" on="1"/>
        <pt x="-837" y="1469" on="0"/>
        <pt x="-984" y="1615" on="0"/>
        <pt x="-1037" y="1758" on="1"/>
        <pt x="-823" y="1836" on="1"/>
        <pt x="-786" y="1745" on="0"/>
        <pt x="-717" y="1685" on="0"/>
        <pt x="-656" y="1685" on="1"/>
        <pt x="-621" y="1685" on="0"/>
        <pt x="-585" y="1689" on="1"/>
        <pt x="-548" y="1692" on="0"/>
        <pt x="-520" y="1692" on="1"/>
        <pt x="-478" y="1692" on="0"/>
        <pt x="-450" y="1685" on="1"/>
        <pt x="-410" y="1756" on="0"/>
        <pt x="-259" y="1836" on="0"/>
        <pt x="-159" y="1836" on="1"/>
        <pt x="-32" y="1836" on="0"/>
        <pt x="80" y="1805" on="1"/>
        <pt x="30" y="1609" on="1"/>
        <pt x="-30" y="1630" on="0"/>
        <pt x="-101" y="1630" on="1"/>
        <pt x="-179" y="1630" on="0"/>
        <pt x="-251" y="1555" on="0"/>
        <pt x="-253" y="1482" on="1"/>
        <pt x="-215" y="1394" on="0"/>
        <pt x="-180" y="1259" on="1"/>
      </contour>
      <contour>
        <pt x="-439" y="1274" on="1"/>
      </contour>
    </TTGlyph>
    <TTGlyph name="evowelsignanusvaradeva" xMin="-897" yMin="1259" xMax="35" yMax="1836">
      <contour>
        <pt x="-424" y="1259" on="1"/>
        <pt x="-483" y="1460" on="0"/>
        <pt x="-590" y="1605" on="0"/>
        <pt x="-684" y="1605" on="1"/>
        <pt x="-751" y="1605" on="0"/>
        <pt x="-824" y="1578" on="1"/>
        <pt x="-897" y="1795" on="1"/>
        <pt x="-790" y="1836" on="0"/>
        <pt x="-682" y="1836" on="1"/>
        <pt x="-583" y="1836" on="0"/>
        <pt x="-453" y="1787" on="0"/>
        <pt x="-335" y="1668" on="0"/>
        <pt x="-227" y="1431" on="0"/>
        <pt x="-180" y="1259" on="1"/>
      </contour>
      <contour>
        <pt x="-115" y="1836" on="1"/>
        <pt x="-52" y="1836" on="0"/>
        <pt x="35" y="1749" on="0"/>
        <pt x="35" y="1683" on="1"/>
        <pt x="35" y="1617" on="0"/>
        <pt x="-52" y="1530" on="0"/>
        <pt x="-115" y="1530" on="1"/>
        <pt x="-178" y="1530" on="0"/>
        <pt x="-265" y="1617" on="0"/>
        <pt x="-265" y="1683" on="1"/>
        <pt x="-265" y="1749" on="0"/>
        <pt x="-178" y="1836" on="0"/>
      </contour>
      <contour>
        <pt x="-439" y="1274" on="1"/>
      </contour>
    </TTGlyph>
    <TTGlyph name="evowelsigncandrabindudeva" xMin="-897" yMin="1259" xMax="267" yMax="1836">
      <component glyphName="evowelsigndeva" x="0" y="0" flags="0x204"/>
      <component glyphName="candrabindusmalldeva" x="148" y="0" flags="0x4"/>
    </TTGlyph>
    <TTGlyph name="evowelsigndeva" xMin="-897" yMin="1259" xMax="-180" yMax="1836">
      <contour>
        <pt x="-424" y="1259" on="1"/>
        <pt x="-483" y="1460" on="0"/>
        <pt x="-590" y="1605" on="0"/>
        <pt x="-684" y="1605" on="1"/>
        <pt x="-751" y="1605" on="0"/>
        <pt x="-824" y="1578" on="1"/>
        <pt x="-897" y="1795" on="1"/>
        <pt x="-790" y="1836" on="0"/>
        <pt x="-682" y="1836" on="1"/>
        <pt x="-583" y="1836" on="0"/>
        <pt x="-453" y="1787" on="0"/>
        <pt x="-335" y="1668" on="0"/>
        <pt x="-227" y="1431" on="0"/>
        <pt x="-180" y="1259" on="1"/>
      </contour>
      <contour>
        <pt x="-439" y="1274" on="1"/>
      </contour>
    </TTGlyph>
    <TTGlyph name="evowelsignrephanusvaradeva" xMin="-897" yMin="1259" xMax="80" yMax="1836">
      <contour>
        <pt x="-424" y="1259" on="1"/>
        <pt x="-483" y="1460" on="0"/>
        <pt x="-590" y="1605" on="0"/>
        <pt x="-684" y="1605" on="1"/>
        <pt x="-751" y="1605" on="0"/>
        <pt x="-824" y="1578" on="1"/>
        <pt x="-897" y="1795" on="1"/>
        <pt x="-790" y="1836" on="0"/>
        <pt x="-682" y="1836" on="1"/>
        <pt x="-570" y="1836" on="0"/>
        <pt x="-455" y="1784" on="0"/>
        <pt x="-413" y="1737" on="1"/>
        <pt x="-318" y="1836" on="0"/>
        <pt x="-159" y="1836" on="1"/>
        <pt x="-32" y="1836" on="0"/>
        <pt x="80" y="1805" on="1"/>
        <pt x="30" y="1609" on="1"/>
        <pt x="-30" y="1630" on="0"/>
        <pt x="-101" y="1630" on="1"/>
        <pt x="-178" y="1630" on="0"/>
        <pt x="-251" y="1556" on="0"/>
        <pt x="-253" y="1484" on="1"/>
        <pt x="-218" y="1396" on="0"/>
        <pt x="-180" y="1259" on="1"/>
      </contour>
      <contour>
        <pt x="-54" y="1549" on="1"/>
        <pt x="-10" y="1549" on="0"/>
        <pt x="53" y="1486" on="0"/>
        <pt x="53" y="1442" on="1"/>
        <pt x="53" y="1398" on="0"/>
        <pt x="-10" y="1335" on="0"/>
        <pt x="-54" y="1335" on="1"/>
        <pt x="-98" y="1335" on="0"/>
        <pt x="-161" y="1398" on="0"/>
        <pt x="-161" y="1442" on="1"/>
        <pt x="-161" y="1486" on="0"/>
        <pt x="-98" y="1549" on="0"/>
      </contour>
      <contour>
        <pt x="-439" y="1274" on="1"/>
      </contour>
    </TTGlyph>
    <TTGlyph name="evowelsignrephdeva" xMin="-897" yMin="1259" xMax="80" yMax="1836">
      <contour>
        <pt x="-424" y="1259" on="1"/>
        <pt x="-483" y="1460" on="0"/>
        <pt x="-590" y="1605" on="0"/>
        <pt x="-684" y="1605" on="1"/>
        <pt x="-751" y="1605" on="0"/>
        <pt x="-824" y="1578" on="1"/>
        <pt x="-897" y="1795" on="1"/>
        <pt x="-790" y="1836" on="0"/>
        <pt x="-682" y="1836" on="1"/>
        <pt x="-570" y="1836" on="0"/>
        <pt x="-455" y="1784" on="0"/>
        <pt x="-413" y="1737" on="1"/>
        <pt x="-318" y="1836" on="0"/>
        <pt x="-159" y="1836" on="1"/>
        <pt x="-32" y="1836" on="0"/>
        <pt x="80" y="1805" on="1"/>
        <pt x="30" y="1609" on="1"/>
        <pt x="-30" y="1630" on="0"/>
        <pt x="-101" y="1630" on="1"/>
        <pt x="-178" y="1630" on="0"/>
        <pt x="-251" y="1556" on="0"/>
        <pt x="-253" y="1484" on="1"/>
        <pt x="-218" y="1396" on="0"/>
        <pt x="-180" y="1259" on="1"/>
      </contour>
      <contour>
        <pt x="-439" y="1274" on="1"/>
      </contour>
    </TTGlyph>
    <TTGlyph name="exclam.deva" xMin="271" yMin="-27" xMax="621" yMax="1462">
      <contour>
        <pt x="570" y="485" on="1"/>
        <pt x="326" y="485" on="1"/>
        <pt x="275" y="1462" on="1"/>
        <pt x="621" y="1462" on="1"/>
      </contour>
      <contour>
        <pt x="271" y="143" on="1"/>
        <pt x="271" y="190" on="0"/>
        <pt x="298" y="255" on="0"/>
        <pt x="346" y="295" on="0"/>
        <pt x="410" y="313" on="0"/>
        <pt x="447" y="313" on="1"/>
        <pt x="482" y="313" on="0"/>
        <pt x="545" y="295" on="0"/>
        <pt x="593" y="255" on="0"/>
        <pt x="621" y="190" on="0"/>
        <pt x="621" y="143" on="1"/>
        <pt x="621" y="98" on="0"/>
        <pt x="593" y="34" on="0"/>
        <pt x="545" y="-8" on="0"/>
        <pt x="482" y="-27" on="0"/>
        <pt x="447" y="-27" on="1"/>
        <pt x="410" y="-27" on="0"/>
        <pt x="346" y="-8" on="0"/>
        <pt x="298" y="34" on="0"/>
        <pt x="271" y="98" on="0"/>
      </contour>
    </TTGlyph>
    <TTGlyph name="fadeva" xMin="0" yMin="-176" xMax="1711" yMax="1274">
      <component glyphName="phadeva" x="0" y="0" flags="0x204"/>
      <component glyphName="nuktadeva" x="921" y="252" flags="0x4"/>
    </TTGlyph>
</ttFont>
